<mxfile host="app.diagrams.net" modified="2022-07-07T07:44:05.265Z" agent="5.0 (Windows NT 10.0; Win64; x64) AppleWebKit/537.36 (KHTML, like Gecko) Chrome/103.0.0.0 Safari/537.36" etag="GQgvYZfCdfoJ410xVNoh" version="20.0.4" type="github">
  <diagram name="Page-1" id="c9db0220-8083-56f3-ca83-edcdcd058819">
    <mxGraphModel dx="1778" dy="953" grid="1" gridSize="10" guides="1" tooltips="1" connect="1" arrows="1" fold="1" page="1" pageScale="1.5" pageWidth="826" pageHeight="1169" background="#ffffff" math="0" shadow="0">
      <root>
        <mxCell id="0" style=";html=1;" />
        <mxCell id="1" style=";html=1;" parent="0" />
        <mxCell id="3d76a8aef4d5c911-1" value="" style="html=1;shadow=0;dashed=0;shape=mxgraph.bootstrap.rect;fillColor=#222222;strokeColor=none;whiteSpace=wrap;rounded=0;fontSize=12;fontColor=#000000;align=center;" parent="1" vertex="1">
          <mxGeometry x="35" y="50" width="1170" height="80" as="geometry" />
        </mxCell>
        <mxCell id="3d76a8aef4d5c911-2" value="HMM LA SERENA" style="html=1;shadow=0;dashed=0;fillColor=none;strokeColor=none;shape=mxgraph.bootstrap.rect;fontColor=#999999;fontSize=14;whiteSpace=wrap;" parent="3d76a8aef4d5c911-1" vertex="1">
          <mxGeometry x="90.78260869565217" width="232" height="38.43843843843843" as="geometry" />
        </mxCell>
        <mxCell id="3d76a8aef4d5c911-3" value="HABITACIONES" style="html=1;shadow=0;dashed=0;shape=mxgraph.bootstrap.rect;fillColor=#000000;strokeColor=none;fontColor=#ffffff;spacingRight=30;whiteSpace=wrap;" parent="3d76a8aef4d5c911-1" vertex="1">
          <mxGeometry x="342.95652173913044" width="186.6086956521739" height="38.43843843843843" as="geometry" />
        </mxCell>
        <mxCell id="3d76a8aef4d5c911-5" value="LUGARES DE INTERES" style="html=1;shadow=0;dashed=0;fillColor=none;strokeColor=none;shape=mxgraph.bootstrap.rect;fontColor=#999999;spacingRight=30;whiteSpace=wrap;" parent="3d76a8aef4d5c911-1" vertex="1">
          <mxGeometry x="534.6086956521739" width="181.56521739130434" height="38.43843843843843" as="geometry" />
        </mxCell>
        <mxCell id="3d76a8aef4d5c911-6" value="42" style="html=1;shadow=0;dashed=0;shape=mxgraph.bootstrap.rrect;rSize=8;fillColor=#ff0000;strokeColor=none;fontColor=#ffffff;whiteSpace=wrap;" parent="3d76a8aef4d5c911-5" vertex="1">
          <mxGeometry x="1" y="0.5" width="25" height="16" relative="1" as="geometry">
            <mxPoint x="-30" y="-8" as="offset" />
          </mxGeometry>
        </mxCell>
        <mxCell id="3d76a8aef4d5c911-7" value="RESERVAR" style="html=1;shadow=0;dashed=0;fillColor=none;strokeColor=none;shape=mxgraph.bootstrap.rect;fontColor=#999999;whiteSpace=wrap;" parent="3d76a8aef4d5c911-1" vertex="1">
          <mxGeometry x="716.1739130434783" width="181.56521739130434" height="38.43843843843843" as="geometry" />
        </mxCell>
        <mxCell id="3d76a8aef4d5c911-9" value="Profile" style="html=1;shadow=0;dashed=0;fillColor=none;strokeColor=none;shape=mxgraph.bootstrap.rect;fontColor=#999999;whiteSpace=wrap;" parent="3d76a8aef4d5c911-1" vertex="1">
          <mxGeometry x="957" width="101.5" height="38.43843843843843" as="geometry" />
        </mxCell>
        <mxCell id="3d76a8aef4d5c911-10" value="Log Out" style="html=1;shadow=0;dashed=0;fillColor=none;strokeColor=none;shape=mxgraph.bootstrap.rect;fontColor=#999999;whiteSpace=wrap;" parent="3d76a8aef4d5c911-1" vertex="1">
          <mxGeometry x="1058.5" width="101.5" height="38.43843843843843" as="geometry" />
        </mxCell>
        <mxCell id="ADrHtXgVLup0wLSR98Vt-1" value="" style="ellipse;whiteSpace=wrap;html=1;aspect=fixed;" vertex="1" parent="3d76a8aef4d5c911-1">
          <mxGeometry x="19.06" y="10.92" width="58.15902859381119" height="58.15902859381119" as="geometry" />
        </mxCell>
        <mxCell id="ADrHtXgVLup0wLSR98Vt-3" value="" style="shape=image;verticalLabelPosition=bottom;verticalAlign=top;imageAspect=0;aspect=fixed;image=data:image/png,iVBORw0KGgoAAAANSUhEUgAAAggAAAFzCAYAAABb8fH8AAAAAXNSR0IArs4c6QAAIABJREFUeF7snQeYFFX29u+t7slDFhZwEGRYEVBUECQYMKyuqGAaV4GZaRBxzX9dw7rqOruGVVcxJyRM94BpzApmBURJohhQEUmiIEqQNLG77vf8aqv8mrZ7Og4TuPd55hmYrnDrVHWd977nPedIoYe2gLaAtsAesIDH4/EEAoHtLpfrvdLS0l/3wCn1KbQFtAWSsIBMYl+9q7aAtoC2QEwWKCoq2ldK+YwQYqhS6k8+n+9dIYSKaWe9kbaAtkCDWEADhAYxuz7pXmgBWVBQkFZeXl67tznGCRMmpNXU1LyqlDrJvu8VUso/l5aWfrAXPgf6krUFmowFNEBoMrdKT7QpW2DcuHGdA4HAEr/fP6Cmpubn8vLymqZ8PbHOfdiwYe799tvvWSnlCMMwXKZpOrteLaWcokMNsVpSb6ctsOctoAHCnre5PuNeaIHCwsL9DMNYK4TYJYQozcjIuHbSpEkVzdwUsqioaIIQ4nopZdd+/fqJ7777Tvz666/CMAwhpTy2tLR0zt7GqDTze64vrxlZQAOEZnQz9aU0TgtMmDAhu6qq6u9SypvsGRJ7/8rlcg2eOnXqjsY56+RnNXr06Dy32+0TQhzrdrvFVVddJTp27CgeeughsWrVKk7wkMvl+s/UqVPXJ382fQRtAW2BVFtAA4RUW1QfT1sgxAKFhYUdDMNYLYTIdrlcrJyF3+9nq1WmaQ7Oz8/fVFJS8hv33hwMCCiqrq5+VghxCtd85ZVXioMOOsi6tLvuukt89dVX1r9N0xxWVlY2V7MIzeGu62tobhbQAKG53VF9PY3OAmPGjOnkcrnWZ2ZmihNOOEFs27ZNLF68WFRVVQEWAAknV1ZWriwvLw80usknMKGCggJXdnb2RCHEWMMwWowZM0YMGTJEcP2MXRW7xMR7JoqVK1cKpdSdSqmJZWVlPydwKr2LtoC2QD1aQAOEejSuPrS2AM6yRYsWgwOBwAetW7cWd999N05RfPzxx2L69Oli1y4kCWK1lPLMXbt2fdEcQEJRUdFhhA+EEEPy8vLEuHHjRH5+/m4Pw3/+8x+xfPly629KqSE+n2+BZhH090VboHFZQAOExnU/9GyamQVGjx7d0uVyzRBCnJqbmysefvhh6woDgYAl2HvggQcckLCytrb27AMOOODzphxu4Hrdbvd0IcRphBYuu+wyceihh/7urv7www/iscceE/xWShVmZma+sBeINpvZ060vp7lbQAOE5n6H9fU1qAXGjh3b3jTNn1Htd+nSRfzrX//6bT6k/K1evVrce++9YufOnYQblvv9/pHTp0//timupmFLsrKy7iW04Ha7c88//3wxcOBAgUAx3Lj11lstkCSE+MXlcv1p6tSpnzXozdIn1xbQFtjNAhog6AdCW6AeLeDxeDoqpTZkZ2eLsWPHigEDBux2NkACiv77779f7NhhJTQsMwzj5GnTpq2rx2lZh0ZIuHXrVqO8vHxnKs41ZsyYQ1wu1wNKqaMJKaA96N69e8RDv/vuu+LVV1910h6H7dy5c15zCLGkwpb6GNoCjcECGiA0hrug59AsLWCL9YYKIea0atVK3HfffVYGQ+gg3EA8/tFHH3VAwucul+vk+k7/Ky4uPkcp1VUIMdXn821O5iZMmDChVXV19TQhxBnp6eni4osvDhtaCD3HLbfcYokVTdOcpJQqmT59+oZk5qH31RbQFkidBTRASJ0t9ZG0BXazQGFhYY5hGJOVUufm5OSIRx55JKKFqqurxZIlS4TP5yO7gToJn0opTyktLf2pPsyKViAtLe06pdQ/hBCPKaVuTAIkSI/Hw7GukFJ2LCwsFEceeaQAKEQbd955p/jmm28ACFxzf5/P92m0ffTn2gLaAnvGAhog7Bk767PshRa46KKL2lRWVrIizujQoYPAGdY1tm/fLl597VXx7jvv4jCrhRCv+/3+4hkzZmxPtfmKiorGCSHuNAxjH1iNQCDwSFpa2k1TpkzZEu+5qBIppXxUSjn8D3/4g/B4PKJXr14xHQbmZOrUqWLjxo1WTYSqqiodZojJcnojbYH6t4AGCPVvY32GvdQC559/flu/3785IyNDnHrqqeK0006Lagkc5SOPPiJWr1pNOeL1Uso7du3a9UgqY/P2vK5zuVzXtmnTxsqo2LJlyy7DMP6bnp7+33iyCTweT6Zpmk9IKUdlZmYaEyZMEJRUjmeUlJRYYk0hxOOGYZTUF2sSz5z0ttoC2gJCaICgnwJtgfqxgCwsLOxC/4UWLVoIYu3UQYhlrFu3zqqXQM8CKeUXUsqi0tLSpbHsG8M2hAMuNE3z7t69e+cMHjzYyiRYuHChqK6uXiSl/FdpaenrsWZRFBUVnSClvE0pNfBPf/qTGD58uGjbtm0M0/j/m1AT4dtvvyXdsTYQCAyYPn16k8xmKCkpMZYtW+beWxpxxXWT9cZN0gIaIDTJ26Yn3dgtUFBQkJ6VlTVWSvkY9Q/oPxDP+P7778XEiRMtkCCEWFxbW1vw5JNP0uwpqWGnXV7rdruvPuyww8Thhx9uNU5atmyZmD9/PiABzUSJz+f7MdqJbCbiUSHEOWgsSGuMlz3gHB8v+Vg89dRTYvOmzYQZBvl8PoAKmoQmM+zS0sRV2imlliSh52gy16wn2vwtoAFC87/H+gobwAIFBQW52dnZs5RSRyHWe+KJJ+KaRW1trfj000/F5MmTRU1NDXqE10zTLC4rK7NKLyY6CgsLL5BSTuzVq1cu5Y8JfzBqamoskeRnn32Gk/6v2+2+JVojqaKioouFENcahtG1qKjIEiampaXFPTUqSxJmWLvWwj8Xu1yu6dHOHe0kEyZMSJs0aVJttO2S/RzWYN26da1ra2uHSylvV0q5sa/X67072WPr/bUFGtoCGiA09B3Q52+WFvB4PK2VUr9IKd2UGybEEO/45ZdfxJNPPmk5bsMwViilrvP5fC/Gexxn+6KionaGYVztdrv/TnVD2IPgAc1Pj4jt27cTzrjZ6/W+Eulc48aN6xwIBB4QQpxFh0ZqHjjNmBKZ3w033GBVVZRSksVQ4PV6VyZyHPZBF2EYxrE7dux4K5XajdD52OfpGQgEEJcE3+DXvV7v8ETnr/fTFmgsFtAAobHcCT2PZmUBGyBshT0YOXKkOOWUUxK6vjVr1lhFlLZu3cr+UO9jSktLVyRysOLi4tE0RurZs2cH2IOsrKzdDkOo4fMvPheLFi4i1fIRwzBuiSAYRF/xb8MwLktLS2tFaGHQoEGJTOm3fSZNmmT1p4DJUEod4vP5Pk/kgBdffHHuzp07T5FSzjBN8/iysrI5iRwn2j7jxo1roZQabprm34UQh3Kf0Zj8/PPPgJw309PTT9sTDEa0eerPtQWSsYAGCMlYT++rLRDBAk6JZWLzN954o+jUqVNCtoJ+p04APRsqKytrhBAzKyoqRpeXl1fGc0AbsFzpdrv/CXsQWtHRORadFhEsfv3V15VSyhsrKyvvD12Fjxo1qnt6evpE0zRH9u7dW5x99tm/a8YUz9zYFqEkIAEHK4Q43Ov1fhKrUNI5F8WaqqqqCoQQpFxS33mz1+vdJ9651LX9sGHD3Pvuu29Ht9sNa2AVtqBLJdqLvn37WsWupJQfCiGKk2FBUjlnfSxtgUQtoAFCopbT+2kLRLAAcemVK1cOMAxjQSICxdDDbtq0Sbzwwgti3rx5hBq+Ukpd7fP5yDSIeRQXF49QSt3dvXv3P5K5QGXHSOPLL7+0VvMVFRVlNovwG2PBta1ateq/UsqLMzMzM6l5kCx7wDwAQjfffLNAnCmEGFVRUfFSPCBowoQJ+1RVVZ0npbynY8eOabTSRuDpdru7TZkyJWlxJ5MqKCjIys3NHWia5l+EEBeht6DuAyBp1KhRAruRkeF2u+nOeYvX66WypB7aAk3WAhogNNlbpydeTxbgO5GUgp4Mhuzs7GuJSyMCfPzxx5OeKv0a6AS5ebNVEfkDwzBGx9qvAYV9TU3N5VLK/xxyyCGC8AI9ICINnPWiRYvEJ598omARdu3adbeTuldYWNjLMIy7lFKn0ojp9NNPF/vuu2/S18cBrr/+erF+/XpW4C+6XK5LYy01PWrUqDZut/tSKeVNgANCOhs2bBCvvGJJKHxer7c42QkiOs3MzDzDMIx/K6W6cV9hDUjtdFpZAxDuuOMOAMIu0zRnlJWVXZjsefX+2gINaQENEBrS+vrcjc4CdrviQ03TrMjPz19aUlLij3eSdsrbW0qpoawyyURIdvj9fiurAQrbNM1NFBXyer03xnJcj8czSCl16x/+8IfjceqIJqMNwhqwCNu3b3/BNM1/U5sA9mD16tWo8y/JyspKJ3MBNiJVg06XaC5M09zqdrsHT506dXm0YwMO0tLSqAp5W+fOnTOow4DN0QTYvS+U1+s1oh0n0udc8/r169vW1NScYZomhZwk2g3AAc23aGntjBUrVlggzk5Nnen1ek9N9Lx6P22BxmABDRAaw13Qc2g0FvB4PEcppcgU2Eh/AqXUiqqqqq/jUcMjYAsEAhuklDnt27cXd911V0qujwJK9GrAEQkhFpimeUFZWdmXdR3cbsF8oWEYDxMjP+qoo6zKidEG5ZcXLFgAi8CK/vr09PR7KisrexiGcadS6jRSGqkMSQZDqsbzzz8v3nvvPbFrl5XJeZDX611W17HpdSGEuMAwjP907tw5k2qVwQ6bDJBt27YppVSXWOo6hJ6LVMnKysqeLpfrDKXUv2lb3blzZ0trgO4idPz000/i2WeftWyGVkQDhFQ9Gfo4DWUBDRAayvL6vI3SAsXFxdcqpW5q165d7pYtW4iNv4NzNQzj3Vhz820WYhsOhRU2Kv9UDXoXPPjgg2Lnzp3k+D+/du3awtmzZ0dkOTweTzchxN9zc3MvZNVLvDzWwblIsdy2bduzfr//1rS0NLIg/i8zMzMD9oBQRSoH7AEMCeWmpZR9S0tLv4h0fFIMhRDnKqUe6ty5c47DHARvD6B67bXXuIf/9fl8hHxiHnYJ6WOllBOEEKfDSBCeOfbYYyPakF4atLB++eWXNUCI2dJ6w8ZsAQ0QGvPd2Qvmxipt586dubm5udXx9ACoL9MUFxc/J4Q4bfjw4elff/21YFVYWVmJk7nMNM1PevTosaCkpCRyAF8I4QAE4tQXXHDB7+oNJDN3NAg4PRyRYRhLAoHAldOnT/8g0jGLiorGKKUe7d27d+4xxxxjVU2MdcAifPTRR4Q2oBwekVLmKaXOQJRInJ/VdCoHzAYFk3DspCjm5+fPDRfigRXJyckpUEpN6tixY4s///nPv0vZZF6wCWR/GIaxxev1tot1rogRs7KyzjIM41bTNLsSsgAMnXvuuSI7OzviYejISQYIzac0gxCrtfV2jdkCGiA05ruzF8wNOt7v958kpWyrlNrocrl2BAKB5d27d98QzRHXh3mKi4s/V0r1mTBhgkH6GjQ7WQSIBIUQX0opS/bff/+X69ImFBQUtMrOzv4VZ0KBpHbtYvZNMV0SK3tW2lu3bkVM+WplZeW54RT/dqjjUrfbffvBBx+cULYBwjso8127dtHl0Z2ent6Sds6EKupjBBVMuklK+VBpaalVazp4kJGB+HCfffZphUiQjAzATLiBJsAwDL/X66X3dFTxKfqRqqqqUVLKB/+XwZgp0G2MG4fMoe6B8HPp0qUWKFFKzfL5fGgQop4z2nH159oCDWUBDRAayvL6vJYFUPzn5OTczQrdNgk9AJ6mKJBSap1hGF+HcxL1Zb7i4uJ1fr8/j66EThliVP1vvvmm+PHHH61CPlLK0W63+93JkydvDDMPOWrUqP3S0tLWUAOBcEA8q/ZYrmvHjh1WrJ6YvWEY0PDXe73emaH7FhYWHmkYxh15eXlDCXXss0/8JQEo+fzhhx+Kr776ynLC0OxnnHGG6NaNyEXqx7XXXmuxNhQbEkKcH6od8Hg8f1ZKzWjZsmVbQAqCy7rs++qrr1Kh0V9dXd396aefXlfHjOXo0aNbuN3uc+2ukpa9qBlBCmOsA0BFoy0hxBsVFRUjdeOmWC2nt2uMFtAAoTHelb1sTh6P5x6l1FVQwqzC+LFXhEuUUs/YTnDpnmgDDECorq62AEIwnYwTog7Bz7/8LDas38AKkbr7L5aVlX0cfLugvzMzM08yDGMm+z/yiFVLJ+WDssgUFoLdEEK8UlFR8TsWobi4eKwQYiolkIcNGxaTODF0otyHOXPmiM8//5z0PQF7cNxxx6X8epwD3nTTTVaIQSm1wTTNo6dPn/6d85ndOfLptLS0dgCenj17WnOqa5A2+fLLL5umad5QVlZ2R4Rt5XnnndcuPT29UAgxkWN2797d6i1x9NFHx3WtQQDhnYyMjLMnTZq0La4D6I21BRqRBTRAaEQ3Y2+digMQWA2i+icWjZOwywtjFlbqU6WUi0zTXJyIIj1W2zoMAsLC0HgzTALCRWhk0gANw5hNY6OysrJZzvHRVNTU1PxNKfUfYtfxNmmKdZ4VFRWW40ap73K5KEv8j2AWobCwsINhGP+Xk5NzPatglPeJjGAGAaeJer9Pnz6JHCqmfWBcACM1NTVkH/QpKyv7mh1tNsRHDYKDDjpIooNAOBhtAOweeughaP7PfT7foaHb24WfOkkpAVO3cM+w1/HHHy8OPPDAaIf/3edBAOF90zTPLSsrs0pD6qEt0BQtoAFCU7xrzWzODkBACDZixAhB9UHEccT9aeAD5UwdACHEDqXUE1LKOTU1NQufeuqpcBR/UtYBILhcrjxWyqG9CpwDs8KcNWuWYBXvcrl+Ijzi8/kQN4rLLrssY9u2bV4hxF9wTtOm1V8xPUAKAGTz5s04wOczMjJGOfX/PR7PcKXUgz169OiOODEWZxrOcNwD6iHQOOq8884TJ510UspDJsHnnTlzpnj99dfJ0oBJ6g1AoLSz2+0uM01zYI8ePdxkEjjhn2g3G1aKeghut7vG6/X+r3WlPQAHa9asySddVEp5DeAA4HHmmWeKNm3aRDt02M81QEjIbHqnRmoBDRAa6Y3Zm6blAIRevXpZL+c//vGPv10+aXZffPGFVUAHuhgNAIyClHKKUurNioqKz8rLy1NC49qFgNa2atUqj3kgUIs0cDw4s9WrV7NJhRBivNfrfQoFfHZ29lz6CQAkUlEkKdIccKLvv/++KC8vx2l/rJS61ufzvW+vij3YiLRGHGpdlRPretYIq8CYUFL4L3/5S8QeDql6XrnXpaWlVsVIAEJWVtba6urqW5VSF3Tt2jUXUWK8YAfRYFpa2m4Awb7XvYQQlwshJnA/0TRwjZGAYSzXqAFCLFbS2zQVC2iA0FTuVDOeZ1FR0T1SyqsQhZFKFtqGmEvnxfvZZ58JJ/XQZhQ+llI+7/f7n6uurl4dTzGjcOaknG52dvbyvLy8zieeeGLUVSrxedINV65cCcMBxeHJyMh4sbq6eo0Qon3Lli0tRXt9jmXLlllahG3btnH+JykrbLdivqply5Z/o/YBwCuRgZOm5DIsAt0o+YHdqc9Bs6aJEydarBEAQUo5WEp5Z9euXfcBHLDKj3d4vV76StRkZGTkwrDYvTJ6G4ZBJ8bRMD2wLLSsDi60FO95nOfUFim+63a7z5kyZQrZH3poCzRJC2iA0CRvW/OadHFx8a1CiKvdbncGL2kEdZEGjAIggbLDdl8CNp1GQSOXy/X2tGnTfknUOhQVUkrN79OnT0dEcLE6I1T+pB5WV1fXSCmvME3zIcMwXPQouPVWLq3+xtZft1oZFq/Peh0WYY5pmqyI95VSPtKjR49u2DLW6wieJeBn8eLFVoojTpPwAkxEfQ8YIkoukzGCroIVftu2bTtSCKlFixYJnZ6Mj+XLl9eaptkzPz9/7cqVKwEe10spSWe0rouQUqRUyXhO6jAIsFuVlZVnxNNwKp7z6G21BfaEBTRA2BNW1ueo0wJFRUU02rne7/d3pkIfq/e6BmJB+6VvgQUq2Ekpf1ZKTTUMw5uenr7SicXHY/rRo0cPcLvdMwcPHtwe5X80hbxzbOaDMyUV0C6qpFwul6T2wJVXXhnPFBLa1unRUFNTQ13hSWR9KKV8MAc4P+YX78BRUwMChwcLQWGk+kptDJ1bUCZDwDAMY9iwYbJHjx4x34/Q4xEGeuONN/xSykLDMD71+/3/BBywHRkZPHOpGNgZgeW9997L8zirW7dupzVELY9UXIs+hrYAFtAAQT8HDW6BoqKiUylAVFtb25+XNUK4WAbAYO7cuVaePtQ02Q9KqelCCFohv+nz+azWh7GOMWPG/Mnlcj11/AnHt8vvnh8X3UyMH0fND8p/wAUpcqlyPnVdA9oM2kEjJlRKfWQYxtLc3NyLDzvssIQzDgibcDzSKAn7nHzyySlZYcdyL2688UZLnMr9REMBm5OMLoCMD6/XS/VLn124iIyFlIIDjsd9x2Z2907diyGWm623adQW0AChUd+evWNytBCmFbEQYiRU7wknnBDXhVPeNqj7IPv+YDuDR3w+3/pYq9l5PB7K9z5+yqmntMnbt+4CPOEmCEiASeAHgSPNg1h51/dg5YoNqLlgGEaVEKI6Pz+/1THDjhEZ6bsJ92OaClT7/PnzrT4MHTp0oJiVOOKII2LaNxUbUU2REEOnTp0sNqmu8saxnA/7PPbYY9AopBz+gX1IY+RZS+UAiABYn36aOl+6WVMqbauP1TAW0AChYeyuzxpkAVsceA9qcmLdAIR4xWJVVVVW2IEftAk4BdL80CdUVlYui6WinV1YaOLpp5/emi6FicSkWfU+9NBDlphvT8XtMSUaiLKyMmvlzbVTRAhRXyLZC2RHIE7kmNwLujZSznhPjeuvv97KWDnu+ONEj/zEQwvOfLmPTsEq/g04QOuS6kHdjlmvzxJvv/W2BgipNq4+XoNYQAOEBjG7PmmoBYqLi+8VQvwfVDY/ZAAkMljBEQdGm2C3DX7JNM0XXC7Xq9FKNns8nouFELefeeaZrSjYlAhAwDkDEFj10qhpwIABiVxG3PugfZg9e7a1egVcUeQHZX4sgwSM6ppqRJaitqbWYmPIGKGkM42QnL4LqP05NuGT9PR0lZOT48/OzjYzMjIMKaVbJmKwMBOk3DIdHalJgBYk3rTG4EMyX4SW1NVgemgORo8eXS+1HGA9KFxFZolmEGJ58vQ2jd0CGiA09ju0l8zPAQg4BGoQULUv0UGKHDQ/6n6cnJRyFaI9l8v1SF1ZDh6P5yql1M3nnHNOy7Zt2yYEEJizAxAuvfRSgVBxTw0n/u0wCFQExNGiz6AC5K5du0zDMGrcbndFZmbm9vT09AoaGUkpK/x+f0VFRYW/qqoq8O2336o1a9YYSqm0/Pz8TNopm6ZJfmG6aZotpSFz3C53RnZ2NiDBzMrKMtLS0gAIv7WKlFKanKNTp06/7r///hX5+fkqNze3rZSShhB15io6AAFxJDqKWIsihdrZAQfUcuDfaEIAB8kAjrruJYWzqAS5Y8cOU0oJID09kXt//vnndw0EAlmlpaXfJLK/3kdbIFUW0AAhVZbUx0nKAsXFxXS4ubJly5YGL/FkY95Q62+99ZZVlW/bNquOUqWU8tFAIHBnpPK3qQAIrFIBCIjqLr/88oRFgrEYEyAAS4JKf/Xq1dXLly/f8NFHH60VQnzfp0+fzYccckgtoIEVNM7rhx9+oCdBtRBipxBiq/271v7N3/g39RSI17tsR05/Y/ILETPwQ4lBiiHk0N0xZJ4ABLYFBHTi323atJHdunWrOuigg1ReXl6HVq1adXS73a7WrVuv79Gjx/J+/fr92qJFiy5CiB72sY1rrrnGAjYAHGpiJAoQEIwCDkjz5DgIRhNNlYzlfpDxceeddwJGdgkhZni93gtj2c/ZprCwcD/DMI5SSg2TUn7l9Xph1fTQFmgwC2iA0GCm1ycOtkBxcfG1QohrAoHAPsXFxXELFSNZk0JGH3zwgRWbt4srPWAYxt1Tp079QUq5W/5fqgECKY6J1POPdC1oA1atWrVr+/btX++zzz7LunfvvnHz5s0mIOjll1+uWrhw4bqNGzfS3Ije1AjyrLKTe3AAEBArIASk3SM0EP92mibwvulog4FMl8v1fe/evbf279+/e15eXq999923unfv3lTG/HHbtm3dDj744MOOOOKI9oQw4r0GKjJSZRJwsP/++wuabyF6rM/BOW+//XYAzTql1F0+n++hWM43ZsyYTi6XC2BwgpSSFJ79hBD3er3eq2LZX2+jLVBfFtAAob4sq48blwXsNr7/8vv9AwEICOxSNSgVTE4/cXW7TsETQoi7KysrVwZXX/R4PH9VSt1x1llnJaxBCGYQkgEIiB23bt1asWnTpmWZmZmfdOvWbROr6pdffnnnCy+88MWbb765VAixQQhB+l5TGbxvOgshiLv0FkK0FkLg/GEjYBA6AG4yMjJ+bN++fX7v3r17DRs27Psjjjji8+zs7FaGYQxUSrFfnS0cKcv99ttvW4AQLciFF15otamu74H24I477oBB+CQQCFw2ffr0j+o6p8fjaR0IBIYYhnEq4CArK+uPaG/IhtixY8cjlZWVV+tCS/V91/Tx67KABgj6+WgUFmAVxcpeCDEKKhgxWYo0b9b1ISADJLCqZCUOBcwqLSMj43OnqFJxcTEVc+4fOXKklcWAKC/eEQwQrrjiCiuPP5ZBSKSqqmpnZWXlwszMzCVpaWlVK1asqHjjjTc+v/rqqxcLIay+zs10ABB6CiEG2owDhod5wHjEhz7ff//9Ww8cOLDnMccc80vfvn1XpaWldVBK0YsZYPHbjcK50kiL5lIABFIZY62rkYxtuX8A0Pvvv58skvcMwzgrkijW7vjZXyn1FyHEUenp6f153ihEhQCUGhRr166doZS6rj47lyZzvXrfvcMCGiDsHfe50V+l3TznfiHEpdT8Rz2f6ngx8frZc2aLWTNnWbF7pdR6BvIsAAAgAElEQVTLSqm7q6qqFpEGWVRU9Bd0ConWQXCMHKtIUSnlp4eEaZpvZ2Zm/rxly5ad33zzzcKbbrrp49mzZ1PPIBWD7zgUP6t1ftAHtBNCoC1AS0C6CJ+zKq9zZS6ECNhhC/QLFKGim+Y6G7xUppjNACAMtkEC8yM+QM9q+lx817179/YjRozIHDly5LrMzMyAlHKQy+UaNnv27AxW8lSCPOOMM6z21HtiOI2znn/+eU73utfrHR7uvGPGjOkJeJBSHiOlPJE6EzQnAyDQEOvXX3+1NCNfffXVy4FA4B8zZsz4ak/MX59DWyCcBTRA0M9Fo7FAcXExAOFyXpi82MnlT/XAccyZM0e8+OKLFkiQUr5FWKGysvLDzMzMYw3DmJFIJUVnnggHH374YUukGC7NUSlVEwgEFrnd7ncRDG7ZsmXN4sWL3xk+fHiiPSSyhBB5Qoh8O+bf3hYY4sxZfXNcuk0iPiQcQQYBAkTAACt3AAJ/iwcg/CqEQIgHiOEcvEfQHrS1wwS0weSzn3Dm9g/zQASZ6AAgkLe5vz3XQTbAmc9xR44cmXnFFVfsmD59uvL7/X886aSTzhg1alT9dpYKuhI0LnSh/O47Lvf3AKGwsLCDYRjHCyFON03z1Hbt2mUfcMABgnTarl27/lavghDYp0s/FZ8t/ewNIcSNXq93SaIG0/tpCyRrAQ0QkrWg3j9lFrCbNl3pdruz0SE4+fcpO4F9IOhgCiqx2oOSllLirG9xuVzVsApHHHFEh759+yZU+59jAxCIfVOMh9Q62zEuwnEACmpqapZkZmbOlVLixGMdOLs+QohDhRCo/vnuIkJEjOh0DCSDACeNswcQbLdX9zh0Vv388LcdVFuM9cRhtuPcZDRwPuYFI4F+gN8wFA5AABTAMAAW+IxwAJ8z38+FEJ8KIZhb/M0ihKDABMaFXThICEGP8A+4ri5dumz++uuvzZycHOZBmOIsIQRAqt4GtSPIYFBKVUkpnyktLfVwsmHDhrm7du16iFKKjIajc3Nze+63336Cn3CpvBT8QjPzySefvKOUurGsrGxhvU169wM7viCRe7GHpqhPs6ctoAHCnra4Pl9EC3g8nnOVUjcFAoHeY8eOtXQI9TVY6aNHePbZZy3hohDiHSnlfVRe7NWrV/uhQ4cm1AXRqaRIAaERI0Z8M2LEiOdM09xumuZSt9v9XmjmRITrw5lBp1PfGFGfAzJwtKzCeYkTdwcg0PZwOamNSTjb+jIzx4WdADzAcAAQADAAlRV2eiWOnX7UMBKI+gANMB7xjAOEEH+2gQkAivPMhjG54IILlk2aNInUTEIqR9rbwaCkdNCoiwwGt9tNCORWr9c7hbRFIUQBzIFhGCcTTqDOR+fOnUVODuTN70dFZYVY+ulS9AxvGIZxw7Rp0z5J6USDDta/f/+03r17D3G5XEOVUq2klNNKS0t5ljRIqC+jN7HjaoDQxG5Yc57uqFGjurrdboSKZyNUpBNhIkLBeGwEk+CABCkltO4xnTt3zkIDkUj+vd/vr37wwQe9OTk53x5zzDGrioqK3pBSWgikjoHzGmr/8G+cPz/Q9zhLXtis+nl5f23H/uO5zMa4LddHaARWBIeOjShBCCNxuO3sCR/ACgAeYh2ADVIFYVEADYRVlhqGsXnevHkfDx48GADBORCkJl6NK2g2sEZU77zvvvusZllSyiLTNNsYhvF/pmme2Lp16/Z9+vSxwgldunSps/w1hb1sDcIrtLv2er1WWcZUDVvrM1gphQaivZTyMNM0+0spc5VSp1dWVr4WnNmTqvPq4zRNC2iA0DTvW7OcdUFBgSs7O5v+CRdRL3/48OGiXTuY6fodMAnPPPMMWQTWiRBHooGg4VKMQ1HYRgjhVUpV3HPPPa+Wl5ezoo80WFVDfePIqAuAs4Qqh3rnB5aAgkfEn2EI9paBXQgX9LNDGF/Yjh7whE3eFEJ8aYdPYrEJ+8HCoLM4VwgxB9CVl5f33rp16/hbVyFEfwCprcuI5Zi/24auohTleu211/gMhz5NSkln0JMQHsIakKEQC9il4iXFrVauXPlsbW3t9U8++SQ1LZIeHo/nYKUUz9u+QghyPgFhLQA3ZN7wA0D4/vvvZ86ePZvwlB7aArrds34GGpcFiouLAQiXtG/fXo4aNcoqtbsnBgWVnnvuOSvcwIucEEcsJXmllOWmac5zuVyr16xZM+ucc86JpCsgZk/MhFaVgAGQDzF6HADOb7UQ4mP7b8lcMqAf58fqGPqegkXQ+jGjnThPzuqekAFAhroMCBPRHcSz6o90Sq4FhgG9AU4LG/F/rus9wkIxFoOCzz/T1j9gf7QTH2dkZHy3YcOGD9q0aTPMDuWgEyAcEdeg7gK6E1IrlVKVSqltrVu37sizC8AlQ4GQViyDJlU0ylq/fv1UIcS18bYsDz7HqFGj2qSlpZ0mpUQDgeIXsLQPoIACUlSqRAtB+u+GDRsACSeXlpYCwmKbbCwXpLdp0hbQDEKTvn3Nb/J2NUMqKnY8//zzEXntkYskZ55wA9kNCBepgEiII0IthhrTNB9glZ+WljZ7wIABrGrDDVbEJwshqPpE3JvUvZU2O4ADXSCESLTePg6fuD6rbV7+TrtFvtM4REcsiBiRMAVghB9oEuj8eASSTtllfsN2OBkQAA/0EpwPAMRnnI+aDZzHcTT8DUbkM5sBQJiYSIEnnPcQu9IghaI4P5kBhCFYvkfLkmB+gA3qLQCcRggh3jIMY9Mdd9zhu+aaa9AokC1RLIQ4MNYHD4HibbfdZvV7AFwSSqCPBKxBvIMsCBz2jh07HsjIyLjaqdERz3GKiopA1ScbhnGAUopUUZ4TFyAFNoNnm26jPXr0sLJtJk+ebDXogtHyer1vxXMuvW3ztoAGCM37/ja5qxs3btwhpmneGQgETmIVD0BIZcGkugxCN0PKFvMTDBKCWk+jCaAt9cZAIPDS0KFDySAIHTihoxCn2aCAEAIAghU2tQNwZqyy4xk4YUISODCnMJDDQuCYHSYiuJiSk8XAHFnh8xnzx4kibowXIDjggHcG/wagsBLnB8cNIwJIcYAC18d2UNqICBEqAhSwA+AIgABQATRA/fP3eObEPABHhAiwL2DhRDJF7FBEXQDEKfl8mr3f+bZAcv2wYcOmvP/+++gYAAg0WwKQRBysxqm78N///le0bt1a9OrVy6pnkJeXFzNrEHxwjkX/CKXUxNLS0r/F+pBQfKm6uvpk6isopQjTEEJoC/DN65In+vfvL9q2aWulVMIaOOwYLb1nzJghvv/eiohpgBCrwfeS7TRA2EtudH1fJuKnlStXZlVVVck+ffpUlJSUJLJCFJdddlnG9u3bqWE//sQTT7RaP7dpEzfrm/DlEk+ePn26JRQDMLDiGjp06E9ut/s+KeV6v9//0pFHHolgMHSQbXCZ7XBwVogJf7AdM4p6JxUxlrkhoiPnnx+nkBH1DXCg39phCVbnOHtAB2EKVujMqzHRw4AlgANpmcT7nRRM3jssry0nZocOsA/Xh6cifEA2QzypmKyaAQvsB6PCv3mOCEvUNRCFwiRw/2AOsO/qfv36TVuyZAmghjkCJML2zqYRGF1DZ86caWUnnHrqqQmlxzoTJMURgOB2u2MCCAUFBW2zs7NHSikRHjJXQjDpgGpAASxBx04dRX5+vmiRC5bbfVB1Ev0EBZo0QIjlq7l3baMBwt51v+vzag2Px3OiUmq0/WJXDCnlBtM055im+fGMGTPIwY86PB7Pw0qpi/bZZx9JLQFipXtyrP1+rXhi0hOUZ2a+txcWFq7y+/2zTjrppHBxdQRuqOVZPbNaJy2Nlfr7tvOOZeqwAQjHcERQ3KzOcaqs+tEl8JtVP4ADMSQVDBsTEIjlGoO34b0D4IFZoPARrANsAw4Oxw7jgY4BAETaIIp+AFcs4jmODa2OBgNmodAWDhLTr2swB0JB6Bt4hq300YEDB05euHAh4RoKMwEkdgMKdNK89957BcAS1mDEiBEJMQdMDKdOuea5c+dGBQijR4/Oc7lcp0spEWJit/xAICD32WcfMXDgQLHvvvtaTaoALUEM2O+u/9FHH7VEkYFAYIdSaqTP5+O51UNbwLKABgj6QUiZBYqLiy9h1UasE+oVgOByuX6VUpKet0ZKWaGU+lpK+XJpaSl58GFHUVHRpUKI65RSeePHj3eKDaVsnjEcqGLGjBm3z549e9W2bdvISLCaNwQNVp032M4cRwetDXggLY8VaCyDsAEO6VQbELBa5fs4Vwix3o7hcyxsF3r+WI7f1LaBbQAssAKGMgIw4JRxgAAjwjIAhreFEK/GWCuB4xB2QDyJ/oNj/SdKmijgDBBASGeMDVSWjR8//oEnnngC0MExSJGk4ZTVRvuWW24RNFlClHjwwdafExroF+gIOWfOHIot3e31em8KPdDYsWO7kG1gmubxpCiixyCMQNElGAPSKPk34Y5YBqERzmkYxgIp5UWlpaVoO/TQFrAsoAGCfhBSZoHi4uKxQoj79ttvv5ZQm85AIc1Kq6KiQhmGwYv+Myklq2BSwl4KBQvFxcWIqiYqpUbAICAWpInNHhiERf4rhCC9biZMQEhhIxzE3+08elaz79osAcrvaAI5po/zARDwA2tAIR1CAxwHOp1VMxUGLb43yeEUKGKVDr0PhY4eIHyFnsRPxryZr1OwCeDHv+MJD4Q7O+8mAINTt4CwC5oAVvMo6rA3+oUpdnXIuhgVR6/AQ0nIAc2B19YdRLpyABxAAcDCc80z8fmKFSse7tGjByLHAZWVlX9duHDhfpRYJlOBtNxEamc4E3DqKcyfP3+VlPK20tLS31iPoqIi7t0Z9G9wqmkCDKivADBBW8APFTzjGRMnTrRYC85XU1Pz4FNPPcX3Ug9tAQ0Q9DOQWguMHTt2iFLqlu7dux83ePBga1UFmwD9unnzZqu7HmmErLp+/tnS920wDONzpdQPUsrXAoHA22VlZbvsYi6Po0OgTe+ZZ55pvfzqedBlByYAYPCzlDJYQ8GqEacC/Y8Dh7rmNw4q2sBRUxIYqhuAgNNjf6hcnCggCYeXiGYDWtzJ5afyIiDA6WzICpwfMhhw4E6JZf7NeZMJUXBcgAbsCRoDVuqOVgLgBJviACbOA2BgZUpdBzQGhEviHVwr1wh4BC2S04+AEM0BGRPY8JEoWg+AAkzNsTZQGGUzNlaHpQgDYML2AIXxtqDyQ6XU8xs3bjy6vLx8yKJFi67o1KlT1llnnZVweIFzb926VSxZskSsWLHitz4MdqoiwIg0Ta7fYgxgKmAMCCPAGsSSkht6fXwnn3jiCSuDQSlV0L1795dKSkpiCePEe+/09k3UAppBaKI3rjFOe/To0S3dbvffcnJy/hmObiXGSrOkTZs2WVkCCLx4OW3ZssXvcrmIMX+rlPrA5XK9EAgELpFSXup2u3NIdwRw1NPAWeNYyC74RkoZ/IIkBEA8GqcOeMC5obgnBBBtxYqG4CobVFAxEB3B07ZzxFmS7hjPwCETayaPHyaD7y6OEgDiCBWh0oO7QOKIiecjAAQYOE2WuMZkAIJT2Ik5oXwDHMBpo8NwKkE61waogikhm4NVOeCE8/PDqpxaBugq4mUcECLiMLEBQAHAwHHIjHhJCPFslGvE8ZMiyX1BQ4LWATYi0uD6nNU7GSo8D0+ed955q7Ozs0/s27fvsIEDB45LJuOGFMePPvqI78bjNTU117vdbnJ8x0gpuc4eAANEs2gMHGCQDLOGOPGNN97g+wdAGO7z+bgmPbQFfrOABgj6YUipBYqLiy9XSt3Pyv/II4+MuKLiRUrlQorLwCqsXLlSrF27Fu3COqoSKqVonNTPNM08uiLSuCmZl2+Yi8SR/NMWARJ/DXasOA7izAjWnrJj2CjrcbZ1OVZW1lTsG2k7TpzKJHv1Tpu/WBgHpsr3kpU5oQhSG3HCAAEYCMIQsA5OqiSOlX8DXnB2sYQ6UnrPoxyMuQMOAApcE9fBADSRjsdn3AsAAwAHBufDGDUGzqkBIIQiYBmcdFDuFaEbmKi6BvuQlsrA3tyjaRF2ABgxX1o5U/QK9ua9oUOH3nXDDTd0aNu2LfvDShCCiHtQrhmBosvlAkAudbISEB9SuwCQjL4AxiAZYOBM7MEHH7QYC54f0zTPLSsrA/zqoS2gAYJ+BurHAmPHji0OBAL3HHrooe1oeBRrBTlWMdShJx+blVRlZeVWKSVx+pyjjzlanHrKqYJmNyka04UQs/iRUpJx4Azy6klVxMmw2kcfgCgOkWBdwAAniPgNJ0icm5XYYrs+gdWOOIZ5s/LG6UAlsyLHGeE4WWXDNjh1A1jpAgaaunARtgFmBqYFJ829hhXA9lw718u1PmM77VhsiJkJeyDe456wf6ztkh3NAecFAFDEimcg3GC+aDtgcxAywn69OW/evJfcbvchUspTlVJX2tcUw60XVqbBl19+aRXrMgyDazVN08wADAwaNEj07t074VBCpAmQfUFapZRyimmat5WVlUVLCY3pWvRGzccCmkFoPveyUVwJhY78fv8/u3TpciZUKEVjYh0wBOgV+AEorFixQuzcudMSXo0bN04MGEARvKQGAqxb7UI6ZFU4TofY/b9t54Rzh6pm9Ql4qAsYUFDnFntlj4N/2A4hkJrIariugRMEUFDel5U030VW0cTUnZQ+hBqAg+ACSEkZoBHvDPvC6hzHC0CCaWAlDr0OS0K4hHuD046322M8l+00zuL+EPtHn0AYJNxgnpQvRqMCc/BCbm7uxFmzZrnS0tJOklKyP2xSnYMOoLBnixcvtuh+RqtWrcThhx8ujjjiCCtlMVL3x2jHjvT5Dz/8ILxer/UdA+RUVFSUl5eXJ6INSXQKer8mYAENEJrATWpKUywoKMjKzs6+yu1230r9gkScOkBh165dgpcYtOvGjRvFhRdeSMGiZExxv80GzJFSOqtvnNBdtoMmpRCKlR8qE9YlGmTVSP0DFPXQ/ZT5BXzAGkTTJrDCBRSAdvj+ETJwshjQCJDWyPlTMYizEyZhVc5qnflCw7BadsSMiZzHKdKENwO8wLQQQmEFij4jXj1BuDlgGyh8WAVW7MwfTQjn5t7A7KDyry+wAAOB8IVzEzqgy2i41FzmCQpmG8pq80zNfP/9971paWn5aWlpBUqpq8Nlj5DWSO8FsggABogUGXxvKBLWqVMn0bYtdaRSP55++mkrnIEWiLl7vV5CO3poC+xmAQ0Q9AORcgsUFRVdIYS4t1+/fhKnzgopkWEqU7z/3vuCcrDHHHOMVaUugTAD8XlYg5dZ1UspnckwR0RgCO1KbUoZR1fXZK+1NQE43cm2ch6AAJVd18Ahkyp3iu3gAAFoGpyujTieRLIYgs8JZU8sHXqcmDwD2h5H54gDceYIGnHisBMwJICSYP1FXdfB+4LjcS5HV4BzhAlBLEj2Aj+ODXHmgAaulfoO8VSTDJ0H5wTooOsALJxlAxHsRsjouRgLKcXzKHK9eGhYAs4LqPuHHfoJPQ7MA2AG+5PxgkjyHrsi57FSSkJHf3F2Qn+zes1q8cXnX1jAoLa21qp6eNxxx1k6A1iD+hwPPPCAVS0UvYdhGJdPmzbN+o8e2gLBFtAAQT8PKbeAx+NBFX7bAQcc0O+IQUeInOzEUu9hEojJkulAfjliRWjXOAaq9BdxTlJKpzwy8en/s1/6dwY1EKqLXiWM4DRFIhQBW7AwSr0CKHMcy3W28wREkL6GrgCnGW8WQ7TLBgzgtAEHMAfOwEkTugAEOA4cBoWlIwCF1X48CI7z8INDdHox4LwRUDrvE/5O+AWHSsiA8wBIHGaBf9MUCHsAGuLNqOD6qEgExU8FSrIKnEwNClhh23iPWZd9AT+EoRBCcl5sSU+O0MH1w9KcYWtJuN7nly1b9vSOHTtgQ8YYhnH1+vXrsxcuXGhpbgin0TiJ55p6HwADOi3W5yDFeOrUqU564yWVlZW+MMXA6nMK+thNxAIaIDSRG9WUpunxeForpa7Nysq6nq52ffsSRk5s/Pjjj4KXKcWWAAgwElCzUQZO+EYbHFBjAQfFThPteDECRcSDpDbW1ZYYMAAiQSPAypGVN/tx/EgD50kFPMAB5ySGTfiCfWEOkmUKol17Y/gcD8eKG2fpdJXkXQNdj0MnS4S/49RxotwDAANgDvAQj41Y4fOAYXdW6KziAT9kn0TKRkjURoAgAA9ppqQ8wlx8FOZgABjYDkozn2dvd9uHH37Yeu3atad89tlnnp9++ulomLWePXuKkSNHWuEEyiTvifHss8+K2bNnO+GFkV6vl1LWemgLhEW82izaAim3QFFRETUA7qGYC+lZVIlLZJAF8e6771rFlcgBLygoiNZGF9U6rZhfkVI6FQmho3lRQ4c/Zsf8ifNHWjlfY2cUwDZQOZHQA8CgLioe2hudA3Q+IQOAAc6PtLlwzZ0SMUdT3wfAhEOHP3fKKcM2kA1AWWXsi80ADogRYRjqAnCh9sBx0wSKzAhYIsIp2B8NQCoZBeZMzwgyVgACPCOhDBTXyvOGeJHwElkRTxQWFn4ppTwgLy+vuHfv3lccffTRFmsQA+hN2b1/+OGHLUEkzJphGFfq8ELKTNvsDqQZhGZ3SxvHBY0dO3akaZq39+rdq/egIwaJzEwWX/EPwgwffPCB+Prrry0tw0UXXWQViokwbreL5Cyj74PtrKGCEbfR2Y/8egojRXL0rGxxLLAGD9ovdV7sdQnhODbsAhdIHJwMBnoHpDqEEL/xdt/D0Q/gtBAqQnlTi4DaBIAap+gS/3bCBU4oAqeNDbAbzpvrgxEhUyM4dJDIHGEbCI0AGmAYCFfQtAoHDDggPEI3zEdt8WYsjp7wB+EAWAWcN8dlzhfEobeIdi3YC1siZKRWxTz7/ofuB5NCISfYBACnr6Sk5NF27dp1POWUU8btv//+aGH2DHWAaGb5N+KZp5+xSp8jls3IyJg+adKk+hJ6RrOh/ryRW0ADhEZ+g5rq9CgR63a7r8/Ozr4GFiGZJjbEaQEJpIKde+65YtiwYSIrCz/222CFDq0PrbzJLpOMKIz2vdC9T9ipjTAK4RwMq1m2oZzuIiHEDDt/vq74OKWTcTjEwW+znSWCxf9J0aMPNAqsdAlFkOuf7HDKLrMS55iUJA4tzI8zZjucGytcnC82AQjAprAKJhzjpH8yR/bhh3/jvLEV/2d7Z8UfTA/hbKjTgC1YplKSOp6aDcwNsIDwkfMA1ggdOFoKtB932OxALGCBewoIoiIm/wbYjItzTnXdGwQ2sAiEOQAlAJJQ1gOggoaB7Je/2gLX25VSMBGUcaaEM5Ug631MnjJZzP9oPmC7Rkp5dmlpKY2v9NAWCGsBDRD0g1FvFvB4PNcope5CgEWxl0SzGZggJWGptkiclpoIhBvswYr9XlLL7KJHPNP8n7QzWAN6HhD7j8QasC2UBKs4Qgs4NFIPI4UfJtgvehzD9XaVRGoXxJLah3Mmk4Gul4APzo14EacV63BaJcN2wF4QE2fg8AEEOCPCJ9RycEo6h2omnFRBAALzBhA4f8PZO9fOMQEG/OYnFGAEz5nzwkrghPmB6ueYgDenfDWreMIG/MSqNWAFzrG4Nq6VFFGnZsQLdpnsWLIwmBsCTgS0FKTC5lD/MbUgj3JzsA3Pj3NPaN4VDvSxDecEoJDa+qBSCjBFqOIi+yfW5yDu7ciceOyxx8Snn35KcaRH3W73nVOmTCF8poe2gAYIzfkZoMHR8uXL27tcLnKv25umSay3Hb0FTNNkVb1VKfVLIBBYX1NT8/OeKIpCNoNS6t/5+fkDCAvE2oI23H0ik4G0LPo3XHzxxU6YgTx4MhWW2iEFVs9QtqzoCC2wOorEGpASSNoiv9FL4ORZ9UbKZmCVByPBKpqYNvFtHHC0DACcBw6OjAmofcIc9ArgPKticFA4XpTzxLJhBpxQAGEAnAvpg7AezqqV+fBvUhj5ARxEm2MqvhpcJ7SOkwYJc+PI8fmNOJFVMswGDp3rZ17YHcaGNLtoIAtQhs4AsACog8Hh+jgeK3fYhbrELk6zJhwyzhwQiQ25r/FoHSLZi2vnXlGwA8YAwBna/AjAg+YCRoPtJymlCE0RZqHNOc8iQDLl44UXXrCygig+JqUcvWbNmmdnz56tmzOl3NLN54CaQWji93LChAmtqqurybluK6VMU0rx8nRoYX4rpVStreR30tp4OTsvUl7SP0kpUfS/PW3aNERUsVC3US138cUX5+7cuZOmM/8gzMBPogP2AbEiLAJZEYMGDSoZMmQI9QvW29dGXwWKF1HvgKIvMAHhYqs4WPoj8BKHAndqIOAgwl03vRVY8WNXUhapJYCOIdqLlZf8xbZjx8aAAor7sHKGoahrOCtNwiTcQ87N3Fh5szoljMExWZ0zH1bBewIEJHr7HP0DRaIAWLASAB/aKRObx1Hi6HkmAVAISSm8VNc1EdpBGMpxoO0BTxwDUEjIp659nV4XZDzwzAASYZkACtHuazQb8HxxnWQ5AAToBYE+IXgApKilwfm4fpqF3auUYj+PEOJyWx8S7Vxxff7444+L+fPn80KYZxjGVaWlpZZSUQ9tgUgW0AChiT8bJSUl7pUrVx5vGAbOw+p9QNEVsgaczAEU0tR6p8FLmIZHSkpZo5TaBsvASsrun0DLY5ztS6WlpU5joLitVVxcfLVS6o4BAwa4KBubaDYD854zZw5Fk/zZ2dn/6Nmz59RLLrlki5SSl+1/7cI5N1Pu1qbvwzkISt/itFnNQunygkRoF84psNpHSc9vXtg4dloKR3MgOECYDZwX3y/mBI0LKIhUKAinQt0AVo/Esh0qn/AIVDUsCKCO0AHHiDaHuO9TA+yAbVhNI/RzKjtC/6M3AEDAJmBzmCBYkrrYBVbrHAd2AnAA2MPerNLr0j/AenB/YRRYvROG4Hv0rxTYAwDjdJ9pkioAACAASURBVJkExDGv4ME1AgQJWRE2AST8RynF8wPTwjPH/ikZgOtZs2ZZbdeVUn+1ax/Ula6bkvPqgzRtC2iA0LTvnzV7j8fT0TRN6GrKHIu///3vv2uShIN1wAEtlylfzGqcBjHUGKCVLD3lgwAEbAM0Og4JAIGTm5aZmTlr0qRJsTbOYW6HmqZZ0qFDh5GUXe7alXdwYmPnzp1b16xZ88958+ZNLy0txWlCSRAmQI1P1gHMQaSUQpw2sWcABJQulHak2DXpijAMNGAiZZF4fjSnjJMps50d8W0yG3DqZDOEc26AAoQU6BhYyRIywK7OipPz4Vj4iXbuxAza+PZCAAnV7hR9ghk40LYjdiixM0siPX/YEJDA/tS8QJwIiwToqCvWDlDgGWJfQkHsQ2llSmgnM2CR0D1QXRHASG2OUMBCKBBdAtUXSY29SykFuEXwSMMnGI6kx+TJk8WHH37Ie2GVUupCn88Xqb9E0ufSB2g+FtAAoRncywkTJqRVVlb+2TCMVwAIRcVFgtTCSMNhGRAt0WoZwMDfWN0DHBYsWGAJmfg7oMEeODlWsDhmXtbP2SlSwd0Qf3fKgoKC9JycHJzlzQAEBIuxdngMOdjnUso7amtrXzvyyCMBAXRdhI6FtifEQoOjcCsiYtWEHwAThAoIpQB6IlHQvJB/tF/kgINoAjjKNVN3AUNRUpiVIPML55D4vqHOp/QzVQZxaIAInBFsBv+G0dB1E/7HogAWWInDMMCukCYIWAKwkY4KsxUpHIbug9AFmhRCCDhmWnijM4k0AG2ABNgcAAaMEdkqAOVEB+ADpoTqioQdALKhIQdYAz4j5MBzc49SCgYEcIGOAYYh4QEwePXVV8VPP/3EAuDyQCAwtaysLC7NxXnnnfeH9PT046SUZwQCget058eEb0eT2lEDhCZ1uyJPtqioaF8p5bdSyuzOnTuL224LZTSjXyiOGyZh566dorKi0gIMNJGB2v/444+t/xOq4CWtlPrVMIzNpmn+KKX0fvnll08tWbIk7MquqKholJTyll69e3UHJCRQevl1pdTEtLS0jw4//HBWdzRY4mXKRRIG4AUezuHzOXF8HDdV7xDERXP4rGJxJtFYEhwHwjjEeKRXem3gFK7REkCA+UIb4/gQ21nFnIJAgc5Fj/yI8p4CLDhploRtcJ6AA1bl6A4isSyEEIjts0rnWSCMBqOAxiHS4H7B7uDUqcmA7gNHncwA6NDMiYJd1HW4L+RggCAAEGJYtgUkILokDAHABugkNKZNm2alCQcCAYD9WJ/PF40ZkR6P5wilFM8sQJa58dwCuFq63e4jpkyZgg5Hj2ZuAQ0QmskNhkWoqqo6QUo5Cxbh7LPPthq/JDsADHRWpOtbdXW11XmOlENqE1AzXinll1I6dfCXmKZ5f1lZGS+238a4ceNa+P3+m9xu9zUAhMMO4z0Y25BSPmua5sSWLVt+2qdPH1Zj6A140RMnxjGHW21D7RJSIKZNbJmUskggIraJ/P+tUM5D/UJfE1KgfgKx8nD1D6CPCRmgeQBIwHKQAcGc2ScVKXbxzr+pb++0hQZkEQZCOMp7DFEq8fxIdSi4F4AMtkEYSD8NNCn8DjeclT9UP2wCzpV7R+ZKXQNnCpAJp9tBbMqzAEjgGaBvRPDACRODQx8D48WzPlMpxbPGdQISfqP0YrmRgPvXXntN/PKLhVuvqqioeCJc3wWPxzOI0AM9R6SUGbbYua1pmllKKYNS0L/++ius4ndKqVN8Ph/lw/Vo5hbQAKEZ3eDx48fn1dbWUkWwZaIsQl3mgGEgLEGTGX4vXbpUvP7669b/EUDaFD9g4Uel1NTMzMypjl6hqKjoOliEAQMGpAESYgwzPOJyuR6QUq46/PDDWdnDCNA0iRcnq8ZwNCmf01yJ1Q7bI3BLhRiLFzYZDziZ1+1jhwMGOBZS3Ujdw1lAL6NpeNKObeM4Eqs73Yye1RRdCg6X+wEgJExDnQRCYYgTAQyh4QfedzxHiBpxzoSf0O6gEYjEGDlOm2qJhKpY/VPHINJg9Q+AZeVNGCz0XnM8zg9IgN2gwFfwc+zUVIBtAsjAlk1XSjFvByTEXJa0tLTUautsmia6mAlOW+eioiJSoGFVKEMOAMGWbWpra7MyMjLkgQceKHr37m1VQCWDiO84x9mxY8fjbrf75smTJ0cCVim6tfowjcECGiA0hruQojmQ0bBq1aqjpJTv8cX+05/+JM46i+9/6ocDFmAXaFdLfjWxTrumPHT/NqXUFsMwEF7dZxhGtt/vL8nNzS0EIPTqRZi3zgEwuG/t2rXfn3POOVTTQ8zHi5QUOOL14UIFUP7EmWnFDH1PPDdaqCDaPFixkU3Ayo5lGC92fofGpXmxw1gQY8Zh8UPtAnQMgCbNFkSzdOKf8x5zsiFwemhTuO+EIggthQ6n6yJ6EEAfbARaFtimcIPtAXukUpJVgQ6H53E3pszekecA0AJI4XkglEQ2UPDgeLAMbANIAcgGr8idz2EsSLOlhPhUpRRgEy0GTAJApM4xc+ZM8eabb1psH9oDl8v1fiAQGK+UOp4qjlLKVqZp8ttF0yiqnToVStEeBYuWP5j3gfh2+bcsDE6pqqp6Z0/UUYl2ffrz+reABgj1b+M9egZbi0B74+55eXnilltYTNfvQJuA2JGfr776SrzyyiuW2NHWKxDP54VK+hg0+18GDx4sqYkQqbKilPLO6urq+4866qiNUkpWY7wU59hFkSI5fah80BAveWKskeoaxGOMh+2XPCssCuuwCgsnjOO8OA5WYZyXAjyIN1llJQtQ4pmv3vZ/jhNHSo0FKlXy/PEloKBW6HCcORkG1Kng3rJiJ3QUbkCTUR6bNEQAAlkzpM2GOy5zAEzCEJCqGk5DwPcBMIPOAQYEkBI8uBZYA0o0AyIoqsTfyNxBpBmxjzqhQa/XK+bNmwd7AJOymXRmgEltbW1269atJcXLeEcwCBeGZDHtNpGnn37a0iO5XK7+urnT3vM10wChmd3rgoICV05OTj+l1CJof2jCq67Cv+6ZQQ0G9Ao//PCDFftEs2BnQlTCOlC3oG3btlYlxP335728+0CMGAgE7hk6dOgGKSUvVWhaXu6wAsSBQylbXrIUPmJ19zeb/o9WkS+aMahFQIgARTvxYBgEygSHnvtoezuAAWAAYIDYMNYywtHmoT9P3ALQ8Aj8CDkhIAWwkcJI06fQ4Th+Qg2ACbQiZBWEC2E5bAIhB55JukXCWoVqH5ztzrEFiTBaPJ+hIlacPPsjeuU5htEIHoTKECnyOe3HAQn8jRAJ34+w4YYZM2ZYrJ4DwvleUqackucdOnSwmL6MjAwHxNdpZb6/Tz31lPj5559Nl8vVb+rUqVyzHnuBBTRAaIY3ubCwsIOUcoqU8tSOHTuKm266SeTkRFxs1IsFeDHBKLDqoEALKxlbp2DVWiDE0K9/P9Eil3fdb+NuwzDuGTBgAMwB9CovQARiCAFZCYbGlHHk1CrgRc5qkVbPkUolx3qdhEQoUAPli6ANxiI0nEG4gXRJgAGAALEc2wBgUlKFMtbJ6u2iWoAQEVkMaEhgBnDk1FMIdcS8C3G2VDjEUcMaASxISQ030BIQJ+MZIaeY5xSdSejgmDAOhDs4N89raA0CwheEoxAJcozQDAdAMIAAIIE4F5DA38jgQKuwW+cy0hlx6IDzFi1aCAqUoUkCFODsbWYvquGcDTZt3iTeefsdQolPKaWu8fl8pAHrsRdYQAOEZniT6cuwZs2avkop0vpEly5d9kioIZwpHa0CCmhysVFVQ2e63C4hhRSHHnqoOOSQQ/jbXbW1tXcfddRR9I1ASwCFysuU0EE4kWGBTbUS3/XZtQuSKTeMcGyW/dKnCRJpXLzQgx0+TgH9A90GWXUiRHPqQjTDJ6lZXRL3DkaBZlk4c1byZDF8EXKVhB3IeED3QkEtPo+U7cC2IFwAAOGoF23AEGo4zk3aJGwY3Rt5pulIGTwAEoSqAMUU8wr9HISPSBLdAr/RJPA3gAMg4bcVQFlZmcUeUMfkmGOOsbQFtjYooRsKE/jjjz+SAj2sqqpqXnl5eTLfs4TmoHdqGAtogNAwdq/3s5JaGAgEoMfvpElSYWFhUr0Qkp0wQIE0SQRTL730kqWIhlHgJz09/eEWLVrcceedd1JTgVUR4ICVG3RwJDEi18Y2xHdJGUtm5c6xiOtyPlIn0RqEvgQJcxBCwMnAGDjiw2TOm6xZ9f7xWwDxKPcQDQGr9tV2IaXQOhRO0SScMeEEVvbsE27AUuD4YR5gsXDioaCW9ExYCSomoiuAFQutrcBxeMZ4/t8Kw17AWMFEIFxE2+Cz0xEJi6C9SX/nnXcE4kSEw4MHD7a6njrMXfymEta+zzzzDOEFQIbWHyRixCa8jwYITfjmRZm6HDt2bK9AIPCZlNJNieN//SsVJeaTM5hTxRER43PPPUfVRl9mZuZtPp8Ph8tLj5cjLzwqEobTEhBKQKnOC5EKismGFHjps0LkmJRF5njBTp8qfDgHUtIAL9OCmiUlZwy9d0NaAFqeewprBGBApBhasZD3IytzmCJSW2GPYJfCgVandDbsF1kMOP/QZkiOLoFnDVErGobQzAnYBgSxCIcIY4WqjGEs0CKQIcH35TmlFNdyZ01NzUUzZsxwA75h6Y466ihxwAFON/DETP3Lpl/Eu++8S6jwZaXU5WVlZXS/1GMvsYAGCM34Rg8bNszdrVu3wUqpuawEoBqvuCLhgmwptRRAobKy8sVffvnlltLS0s9KSkoccMDLD7o2nOOHmiUOy4uclX4qMgSgdnm5s4IMFSHSr4GYNKIsQhqkNiYLSFJqR32wpCzgdJmE/qe+AWwCTAAMUvBg9c82MARkJ5B2iD4hdBBygCVghc8XjZRXamCEDpgCainwGSABUBz8LPM8Mg9ABmWZ+U4EDzQV/I16G+gp3oFJGD9+/MSamho0EXLYsGGiT58+SRmH7+iLL75oZSSZpnlUfn7+RyUlJbqGR1JWbVo7a4DQtO5X3LMtLCzczzAMVsBD9913X3HNNdcIQg6NYJD2yEtuoZSSOCqiRFZLvDTDOX5epJTIBRzAHNRnAyNe3qSVscKkkh7Mgi6F3AgemnqaAo6dOgowRKQmQu/j5IOHozeAQUDgSPluChmFDt6psAB8xjNLHYZw9RUAAZQyhhEjTEZ1zuBGToAS2kUT+iKLJlgsyTkoNc33B0aB782np512Wnbbtm3v73tI3/FoexIoab7btbCogOVbv359QCk1qKys7ON6sr8+bCO1gAYIjfTGpHBa1FU/BMEiKwJAwu23swBq0LHcjqWW29kK0LJMCvV2OMdPvBYBFznn5XU0WkrFRSFKg5dltcjqjCJHWmeQCss2/mOwsie1dZHNItA7gUqLwQPHjYCRWhuExWjuFco4sD3bARLInEBIiy4hdLANNQ4IN5AGCUgObgkOKCH1Es0CoRBEu87g3U3ZZp5RMm1I4Vw/evToluPHj38gMzOzOExr97juAJlHy5cvRzv0d7/fP+nJJ5+MVMY6ruPqjZuOBTRAaDr3KuGZejyeTCnlSNM0n6bC4pAhQ0RREUx9gwzy0RFaPSilhFpFA0BxGpTlocJAnk8cNU1zAAeoyuuL4uRlTpVGKGLoZOjm+mQpGsT4+qRRLeBUWeS5ZIXP8xcqTmSb7jbLhD6BFXxo2iQnwsFTTwEmAT0BICH0+WUbmDFAAswFYYXgWgl8DpuBJoHaHDAOwSCB7wYMHJkPfFYxf/78blJK/o22JqEBe1BeXm61gjcMY3BpaemChA6kd2rSFtAAoUnfvtgn7/F4DlRK0ZVuv/32209ce+21IjeXVOo9OgAArHhuk1JCu0Lp8mKkt0K4VTovZ5gDsgxgDuprJU9eOmJEdA0Us0mmve8eNag+Wb1ZgNU9QXxShUl5hTUIDX3xBYJBcFIcYQNCB+9Y6moQOoONAJmHihzZJhQkUFMjGAjQJIzvDJk2wcWe2BeGAfaB79ZD7LRgwQKACcCFUs5xj++++85q+75jx47n3G731VOmTAnXvjzu4+odmpYFNEBoWvcrqdkWFRUdJqX8hNLIlFjdw6EGnPu/pZS8xCifDIuANgJqNNxAkMhL8692S+ekrj3CzrAF1NOHVqYSIylqOse7PizddI9JaWXqbFD2EycdWg6ZK6OsMyJHgCYahXADLQu6FjJzSHUMR9eHgoRQoIrwEUACOwBjEDwo1QwjR00EMoDE/PnzL5dSwkj8r55yjIPQBOwB4kS32z102rRpH8W4a8ybURLeNM2uhmF0s8tXo6kg+4MmUqSiLvV6vSwM9GhAC2iA0IDG39OnnjBhQnZ1dTWU5HQqqvXr10/89a/433ofgIOJGzZs+Gfnzp172isdMgPQHYRbTfGCo7QskwvXbCfZCfPcUwOfmC7iw2FCCJ2+laxVm+/+pBFC18NoUWkTEWtoqIBqinz2ja09CFemGW0LrBnCQp7tcB0Rqc1gtXm2ww2E5IIH2T6DbXZgfshnaHh4rgEKZFmoBQsWwFyQ2RBzB8jvv//eary2devWeYZhXFBaWso1RRqypKRkNz+yZs2aA/x+/9GGYfxJSgmDAUAhVBLrqAgEAqdMnz4d0KVHA1pAA4QGNH5DnHrcuHE9A4EAL7I+sAgXXXSRJVysxwE4IMf8ZiklzXBgDlilo8oOrUsPrcsLjRfwJXbNgVRPDfU4Fe+Os1/EvFSphqiHtkA0CyAKhHGCaYI1CNWoUHoZ507ogVDCujBhMbQLhATIkKGyIj0+QgfgGF0O31O2DQUbFDShdgMAO7jsMSCA789htm7iXQ68YMECyq57lFJRnTTsAZkLP/30kzIM4yiv1/uhPTlZUFBgtGnT5rdj7Nq161C3203Wx0i72ynf37CD4zo/zgaIpmEzKaDGb3pD2BUft3u9Xrpd6tHAFtAAoYFvQEOcvri4mLr0Hyml0rt37y5uuOGGpKqtRbkGsgIILbxql4iFaiXMEFpEBsdNuIGVFSsgMheCB88qqWhQtLROjjcUwP6o1HnBH2gDBP4d73Ea4pbpczYeC8CAoYfhOaRsc2gDMVpIEwqAlUIXAD0fyjbQy4PP2JZnHScfqq8BJAMSCG+Q5RNcfwNHTIojcwCQBFdt7G1/j8iwQN/z4/vvv5+ZnZ09WSmFM68TJKxYsUIsWrRIbNu2jfoLlxiGYbWhNgyjp9/vHyul5BjUYdjNd+D8ce4OCKDMMz+0j+7UqZM48MADRY8ePQQF29q1a2eBgeBB98lRo0aJ7GyKRYqNXq+XcIMeDWwBDRAa+AY0xOknTJiQVllZeZxhGK+Zpummq+I///nPuJu4xDB38rr/I6XkJYbSmhgr4IC87+ABOOBzRFj8hsoNBQfEghGBkX8er6KalyI0J7QtL2W6MH4Vw/z1JtoC4SwAUCW2T50CmC6AZjCbQEiCLo4wBDzvVGEMBaLE3jkGTAAZCqRKhoIEMnfoyUB2Dd+LYJEkThoRItk2AIHg81MrBFDB3/ku1SxevPiwQCBAphDMR9j3Ps6dMuj0XVBKXU9pZaXUn6WUu6mZAQI0fGJ7GrKR8cBCY+jQoaJv376Cbq3x9n7YuXOnuPRSq1wEoGe01+uFPdGjgS2gAUID34CGOv3o0aPz3G43qxBPy5Yt5QknnCBOO+0060ufosHL7O5zzjmnpLy8nMwACsE4tQ6CT8FqCEqVbXgRotAOXXFBxz5gU66s3uIZTp18J5QAyKDwUUrHiBEjWtBON5nxww8/mG+99Va42HUyh22y+5544ok5eXl5UWnxui5w06ZN4pVXXqFXR6oHdD41CmC9yBxAVBusp6FYEnofWjUDkCnuFZoFQbgBkNDSBgm0CQ8FCTAMgARCB+gPgpkEekTwN4SToQXGAAcADPanj4h/4cKF1yil+D+NyQABVjtonDk0/+zZs8W6det+axHN53wGAAAQVFVVCdKkBwwYII477jirCVwyfR6cG0J4gQUKLeJhB3V4IdWPauLHS5k3SHwKes+GsoAdaqDgS8du3bpZgkXaQ6dgsFrybtq06cb27duzYuElCWuAijt48PzxkmN1NNcGAcHV5NiWzno4dwrFcIx4Uh1ZyaHqJmyB6puXOS/hlA5KWqenp9fywkwEYDkdL9etW7d07ty5xI/1gKMfNuyrLl269Aqlo2M1DnYllj5z5sykQEYd5+P5pXEXzh92CucbDPAAv4gbafhE2WXCBaGluqm5wfMPuCDsEC7FFoaBbcheIOwQfAzYAno7IOylTkIwU8E5qe/B/uhuzAULFjzu9/uLDMPI/PmXn8WH8z7ERr+FBnh+rW6rLpfFDvA+GD58uAUKCBfUx+A8EyZM4JzM/SWv10umhh6NwAIaIDSCm9CQU/B4PIOUUm8ppVr88Y9/FH/7299S8SL43NYdoD+gVCwxVtiKUJqVsAF/5+WI814TYgtqQsMckPGAJgHtQawDWpTUL7rj8XKFsgwFH7EeK9p2billLQxCIgCBg7OC27Zt21JbYBbtfHvL51+1adOmFw4rkQFA2Lx5szJNs74AgjMtJ4OBUANZBMHPKedGxIc4F4aMZl+hTcgotoTwkCU0zjz0OQVoAB7IRoAZ4LsQzEbwHaJnCEwFdRscEE0oBGaB+QAsvps1a1bGk08+yRwKXC6XGxvZHVVp5yxatWolTj75ZDFo0CCRk/NbB+lEzB/zPo899phVcwFw5fV6yfCIZxEQ83n0hvFbQAOE+G3WrPYoKChIz8rKOllK+VQgEMjKz88X1113XTIggZfR3XYlN15qxFp5OYYWWsGBE3JAGc7noSlNvCigbnlG2S401YrQAYAjnMgQypaXIKs7XtiouVPR2CnSvUdDkYrja4Cwu4XRiZAZkMzA2dQ3QGB+OHnqegByWQEHpyfyDIeChFAm4SQ77RbxLuG2UJCAqp+KjqQ4kp5L0bNgR+qkDMMaBNdYIKQGQOa7RKihqrCw8PCMjIz70tLShtTW1kp0AyNHjrRqo8SrHUjmxrAv7MEFF1wASOFaFnu9XuqR6NFILKABQiO5EfU5jZKSEmPZsmUyOEWpc+fOatmyZaq8vNw899xzO6Wnp/9NSnk5q4pDDjnECjdQKyHOwUvvgWOPPfZfs2fPRnOAKJHVDRRs8GBpQriBgkmEH0JrHQAOqE5HxgMvy9DiNHyOgpx0M9TawaONXf+eyne8qMOpyOO8rKiba4AQ1UQJbdCUAAIX2M/WIpDZQD2DYEcNSCHcAGjGicNohYIEqobCAlByme1CQQLZN4QrAB98f4JTJNHpABK+tsMNwZkNiBMJRZBdQX2E2ldeeeXWIUOG/LUdKQUNOO69917x2WcQhKKyZcuWbR588MFwLd4bcIZ796k1QGgG998GANm5ublZgUBgN6/ucrkM0zRbGobRyu/341itIaWkQ9uvSqkdmZmZu/x+/0FKKej8P7Zt19aiGY8/7vh4VhQIC9/YtGnTze3bt8c5o6JGuBXcYIZTI+7iM15YqLCtqm9BA2aBcMNpNjgIFSU67Xa5FrajDK4zeNmxioOV4GUcb7ZDok+DBgiJWq7u/ZoaQOBqYDwQFfJMUAshWFPA32gbTiVFQgUA39BaCvR/4HvxtJ0BEdpFlP3JjKC5EyAhGEQQTgNQo9WBLQhmtQhv8L3gu4feRymlYNlIW9w957B+7uXvjrpt2zZx2WWX8Y6BPfjQ6/VS7lyPRmQBDRAa0c2IYyqysLAw2+12t62urjYMw2htGMbpUkoESYc6BVGc3GRoQydH2TkHsUfnBxUxP/zfBg+C1MfCwkLrd4xxddK07pJSzrFXP2QKEDoIHsRSWSXBLtD3AEASPFBBoeqmqQ0xWZx98IAdQKgFACGFjDa4ziCFAJHWwfY5QqvMxWHeuDfVACFuk8W0Q1MECFyYUy0UpgwwEFwQDIAMu0DIASCBbiE0a4d9WO2jNQBkhzINiCEJG8CyoS0IBhFUaoR5gzXgO+CEIRC/AkooBw1Y2KKUgnUAJBDeiFjkKKY7FedGvG+uuOIKej2w5w6v10tYUI9GZgENEBrZDYllOrZu4CIpJZRiNopjlN78xsnX1v5v4UDREYRGLVu2FC1atLC2cZw9X9CKigrrhy8pecikMTmpTcQGe/bsacUHY0jfg86kOyMrGl5e9DYgdBBc5Y0pUWqWOColZnmxBbe2xckSEiAZmpcW3fGC9QUwB4gOyT0nfYusBmeQE45CvK+df+5Uf4vFnKnYRgOEVFjx98doqgDBedYByDBi9HAIzp7hbzAFaGRIUwxNuyUcwT4wAmTwAIRDQQTiX47Bd4IQXTBbAGtHGAKAEcxgALqp28B3kDbUVUopgDagHMHwHhurVq0S//430UdrTPJ6vTCKejQyC2iA0MhuSCzTKSwszDEMA1Hf4TADdGfs17+f6PiHjpYiGTWywwbEcrzgbQAQpD3NmjXLAg9UQLv44otF69b457CDF9drixcvvnngwIEn22WSAQqh7W9Z/RM/ZYUPRUqltuCBc+dzMiAQVAWDB8IJvEgJOxCbJaXMGYAD6FToU5iH0OPGa4JEttcAIRGrRd+nKQMEro5wAyABZowMhODeC6zeAbqIeKH9KUMePBAlwiLguClLHk7ky3eCzwm1WYF8e5C9AHD4xC6UFJx6SZ0RgAksHkXHnFADeqH6yWMMuTAWI+PGjXOqJq73er31Wus9+mOmt4hkAQ0QmuizMXr06JZut/vLjIyMLmeffbbFEqRqUDxlzZo1Ys6cORZIgEm45JJLRJs2+PjfjZ/8fv+9aWlpiAVhDSip/NvSwN4aBw8lCrXKKgaHHjx4WfKS48UGeFgU9CEvrfF2MSUYk5eDaFP2A0wQciBbgdhqQwwNEOrH6k0dIGAVgC+AGSDNKjkYCNBOmu8Mn6EdCK3RQaiAkIHTwyS0RgKKf75PiHURH083cwAAIABJREFUNwb3FOH7wA8aHwSRDhtHcSZAAqFAwheblVIUTkK8SH+Ses34YOEyZcoUqxmUUoo5HRPU76F+niJ91IQtoAFCwqZr2B0RJq5atepwKeX7hmFkjxkzJqV5ywCDZcuWWQpjQg+9evWyGjuFgARCC49lZ2dPrKyspCCRI0AMjokS2yTVis8JA5CXHTwQFhJuONaumfBc0IfsS7U6VjsIr6BSndWQo0dgNURbWFZDoTTsnrpJjQEgAKQAWOFWgdwn4uD1VaURBxOpuQ4NixKtP9EcAALPII4cB46jh9IPZhJ47p00Xqh+MiCCB2E3ADeZDYDn0MZiHI+GTjh99DnB3z2YB4pIoDmgJLMzYDUINbAfWiBCDQB4jsUzVG+DTpElJSWO5mmhz+ejhoQejdQCGiA00hsTy7QINbAKcLlco1u3aS3OPOPMRFITI55q69atYsmSJWLlypVW+dWDDz5YnH/++cEgYe4nn3xye//+/Wn+RNYAL7BgbQDHpoALFCqrH1ZSwfnhxGJZQUFvshICQAQPGs8QT6UVMwIrp5AS+wEaSJPk5UnIIVTIFYsJU7VNYwAIQ2zwBZsSOqCfsS/V9FI9AAbU+6f3QLiBGA/FfSKjuQAErp3+H4AEsm7QDwSzAU6NBLIayGAIBVToEdDmTI4gWoRlON4+Pn0fHGEiYBENA6mPsHbBJafRJ/SwQYLF2CmlAAuUh66XrIYtW7ZY/Rbs9OkfvV4v4RFdFCmRb8Ye2kcDhD1k6Po6zahRo9qkpaXNS09P7z1k6BDRu1fvhPUH4ea4ceNG8dFHHwl+Qw9SI6G4uJiGLFv9fv8jaWlpaAbQDrDC5+UWPGAHAACUU3aa1jifO3nhrFpgDXAywUIr4pK83JxjOCmLpHGS6sUKaKp93vqotR/PLWsMAOFE2wnQlCrcYIVJzDvVg9g6K1Goaw0Q6rYu9wig9oYNeIOBAACL7AW0O6T2Bqc/8p4GILDahiX4OOQ0+wW1TwdIk1HkDMAHwmG+X8HHHWgDStIpEQVvV0qRZkiNBvQ8KR0Ip++//36LlVRK8T0/2+v1JgocUzo3fbDIFtAAoRk8Heedd94+6enpi7KysvY//fTTrRV+oiLFcObYsGGDmDt3rmAFgCiyf//+gYKCgqcuv/zy25955hna0sJkUCI2uFkNqxBeajhyXmq8eILH/vbLkn1gCYIpUISHgAOYCY7rsBKACkIKsAasejhmcLGYhrqbjQEgsPJjBRhp9YdqnTBPKEWdjM24H4A01PSRhmYQdrcMQl5AMWwZwNgBAtiSUBw6AFIUAd7Bg9U2YQCYMpi44DAF23EP+JzUYL5vwUwdoQaANaGGVUEHhdFgP0J0aHv8Sik0PTRPS52oCbXkJ5+IRx991MmweruiouLk8vJy3Wo9mW/fHthXA4Q9YOT6PkVQ++Zn0tLSWiFarCPrIKHp0AIW0SLFTdLT01enpaU9/Mgjj/D8IISCOQht4QzVTUx1mf1CC34ZAAB4aTmNml4KmhQ6BgRbODxehMG0OKpwaicQZ4VWpddDYxiNASDAqoRWrAy2DSJSYt2h2SXJ2A8FPveD7BINEGKzJECAeiXUA8GRk2ngDES3ZC7QMQ2dQCj4dcJ41DLg+xMK9khfPNcG3DwLjiYn2xYrci7YAodx47lF10PGEDqgNUopwD6iRtKJU1IbYfXq1eLWW291ukR+kZGR0X/SpEmpKE0em8X1VglbQAOEhE3XuHa0sxpwAH/Nzs52nXnmmVbtg1QO2rHOnTu3ctu2bVO9Xi+OGyf9gR1iCD4VAADaGaqS8ENw0SJWMqxkqTLHSinUYUFzAhDIhmDV62gLYBygyXmJsn9DpDNGMmdjBAhObDf4O46iHVYnVXFfnBj3go6bDBwS5ws+p2YQfv/UoKHh+SdkgA2D2TOef8Jx/A2HH1xkiSORCfH/2HsTMKmKs/27qnuGmWEXRRQ3xCUoCuKuqCAIrq87KgqzYPRNjMb4JV9eX5N88k9ikjfJ38SoVxRRZwGXjK97RERFVGDYQQEXZBUQZBnWGWbpU9/1O5zSoumePr33MPVc11xo9zl1TledU3XX89zP/eBpIAMBj5EJvDXhFzIqoQYzNRKvAH+AEkIc+hnAA4jnAcBBuKFeKYXXjnfQLQudjLGxeOABooyueuv65ubmcyZOnJgLXr9kflabOdcChANoqO+8885D9uzZ82peXt5AyjcPHjw4paRFuqq2tnb2o48++n/feustUrTQNGDHA1NdG6xpXJYsHGQshIcW0KvHswBxju9NzXh2pKjLUfCJtEctIMOOCtcnpXEJWVB8KZcsFwECoRt2aSZKZAFg8v8mBZ2Hp4dFioVOG25vdqAsgNrY9RJrTgSUHEgkxfAuh7wLWRFXPtoe5jtE5gLvDyActUSTgEsIifPg6ACwvwxrGI8eKzLgGu+OGWrgnaI+BKDcTLeEn8D98GxQDZIQJeEPPENxF2TR9wPJ+a9//atYv3497e2RUt63e/fup2xoIQVvX4aasAAhQx2dqcuUlpYeppT6d2Fh4ennn3++OPHEE/1KJfu5xe0NDQ3PDho0CNc+Ii0s/kxSprGIs/tARRFClulKZEfCjonJje+oXKcNrwMxUfLG2TlRrQ6Dic0EiqpcONHRzz1n4phcBAjs0nAd05/aGBMAGGArWYOVj8cKToi7pnheHxYaswIj2hcsNom4lA9kgECfDfY8bLxPugiTHhd2+/AR8PqY7wnfk7HC+0P4jjEI10/gHaOYGV6BN41QA2RGeAgAD1dJ0bsYMsyAPbQQ+BzCIsAOsSVUUeM2ypf/61//csOSnnDbS126dBllizHF3ZVZPcEChKx2f1ouLm+//fajm5ub3+zQocMpw4cPFz179nTzjpM1pdS7TzzxxN8rKiqYPNjVhLurqYfAYs6iwYRn1krQ3AJ2R8Q7cY9qI9ZJKhfpjuyYTC2EYd6OCRIVE1i2MxYidWMuAgRc1KSF4rExNQroX7w+yRLEAIc/8ooS0Sd4JYiNwz0xAQLpqBAZ8QrFawc6QKA/AL64+eHwkGWgX1TCNuzo8Z7B8QlXUuR9wVPH7p/0RzPrgVoQgG2eARZ50zsB+AbE4b0z1RcJPcCN4F50MSeIlHAl4DD4NlKia2pqRFVVlZZv/7iwsPDScePGhRee8t2mPTA7PWABQnb6Pa1XHTt2bN7KlSsRZ5nQoUOHXldeeaVbTyHJzIYt27Ztq7rsssvQJCjzPAEmgRDyFQs8kxpFk8hCMI20KhYU+AjkYJvGLhe3KJkJ7HD0REJ5WzwUgAIyF9gx5aLlIkD4wmOmk34IKNPGmKFLEe6ajqdfEanCC4F3QBuAgZAQqpd4kbSRoYKrO1xK2M/12gJA0O8NKZAs0mb2Ah4EeD6QC3n+TZAFqOadOcZ7R+gr0wBmePLgIuAd0O8U1wNQoL4IQVGHIAAkEBsJ3wE6UFjEswBIMMezxXFjjkFc7cknnxTUc1FKzaivr7+0uro6UbEsP8+JPSZNPWABQpo6NtvNIqIkpYTM9Pv27dsfcsUVV4gePXokChJwH7913333PT1z5kxy6Rd6PALzZ8IfgFvAYsm/5mRGaEFLyrIbMolX5O3j9oZgRQiB6nYYOydABrshvBK5xjswf3u2AQLvMXn0cAy04bbG/YxXx+SBEHZgd0mfJ2qUCGbhQshKGy5xFhvG18yjR6CHbBSTiOf3um0BINAXuP5ZzAmzscM3vQX0NRk9eM/MGiScRxYQwAEAAb/AfK/gAuEloO3wcB6ZDtQtwbuA5LI2vH7oWrAB4H1zvJLQZMjALYlpS5cuFY8++qgLDgiNOI5zVVVVFfeVCAcl5vXsAentAQsQ0tu/WW399ttv79bc3PyAUurHRUVF7TVISOCmvl23bt1zN9xwAzKw7HTYnZjpWUwehBuYWFiUTEVEFk88B+xiWahIodLGJEZbhCzY6ejv2B1BRmRi5HPiqLls2QYIhG9YoNn5aUNMB54I4IzPzZQ14tp4ehoS7FSySRhTbTwXuLzZJQI80K/QRjYKHovwHa6fS7cVgEBf4C0g8we+AYBKk3chCRISggsAsAuv/Mg4QBQldETYzowlAi54BgCO4QXQeBe/8rwIWtUR7wIpx4QeOH6jUopwEedDSG5xvQAcIIaENHsgEFgkpbz1mGOO+Xzs2LHJxzf9PC32mJT3gAUIKe/S3GrQIy0+rJS6oWPHju0uvfRS15Pg16SU7CLevO22255fvnw5XgAmEHYapp3n8QQ02cr8Dvck4OHzCGEH4tUwsklZZNHRRDY+h2hFCiXuUZOJ7ffWM3lctgEC3hc8O2aRLPqUhRnXMa5rk2wGVwAPgPbWxNNXCPYQ9jHDFrDiAYbsgAF0pr4+12D8w9X//FyzLQEE+gNADA8AgG3yd3i/eOfoD8bYfB8A5wAKeAJwe1j0TeOzSz3wQXqjNkKQkBjx0iFEpnf4ukYDgI/nJKSUIkSEoFJU8SQUEv/xj3+44EBK+ZmU8q5evXp9PHbsWJMb4WfM7TE51AMWIOTQYKTrVoqLi48IBAKPK6Wu6tq1a/Diiy8Whx2GB9+XfbNq1arnb7nlFnY0LNy4IOEhaKMh3KNnefnU043viFUDKlicmODQodfGzpZFBV0Ds4Ijege4PpmMEl3EfP2wFB6UbYBAHBqgZUop4yLGS4B7lxAN/62NsaSPw4Geny5BtpcQkpkjj+cIFzhcEhYTMhy0QZRkhwvYi9faGkAgPZQxZLcOEEDcShshATQlIoUaIBLiKcADBxg04/2MBTwQQgmEHEwFRsADISfaNFNfIUviqeD4b5RSh3sgguqS+9nixYvdsIIHDr6UUv737t2736yurs5mfZR4nzV7fIQesAAhxx+LwYMH5x133HGdQ6FQZ8dxDkLpTClVFAwGcT0GlVIRx1BKqRzHaZZSNkopWRDYZf5RSnlyt27dxKBBg8Thhx8eK7uBWvFvjxo16oXly5ezmDCRmPUWuDbERIRW2PXgAjWNVCt2IriZzRLPnAfQIBaK50ArALLQsutlx8OkFl74KVdHK9sAAU0KFhSKV2kjXo2kL7F/+hpPjGn8Pwt9PFkhhIRwTSPWo43wAm5uFifY8YwnhYO0sVixgFGNMF5rawCB/iEDSIdkAM461ICngBAEgJwwjimZzHlwF/AK4MEJB2OABzwAtMs4aW8BxZogBQPqzHRI3mm8EoAVgCZeBI4DpJgaFwJw8Pjjj7tl4YUQXyilHgoGg9Xl5eWm7Hq8426Pz5EesAAhRwbirrvu6lhfX3+0UuoIx3E66oVfSlkYCAR6KaWOUUodL6VE5+AQKWVnpVSBlDLaGBL34yVlAWAXyc6Bt/g/OIWshrPPPtvVRod5XFBQ4JaLRn3Rq7YGeNi0cuXKl2+99VYkXQkVIMJilqOFmMikAxGOnaWpkAY5iu9wMTJBmW5RFjQ+I+zATlbveHBN43Ggqh1Ma1NEKUdGKuJtZBsgkCHCzpH8eG0sBCzcjBcTPosA3hptFL8ijBPPwg23AOBG6qk2QCOeILIi2GkCBKk3YBqpfOEEOz/j2RYBAv0C0KPMOVkGHxgdhfwxIIHwA0DA5JBADGVsqNyoS0vrU3lP4Z0QfuB9Mz2AAAHmCSSYzfcX3gr6CnAb8CKQDYPgFe+uu7EgrPDEE0+IXbt2uWEFpdQfAoHASxYc+Hm0W8cxFiBkaZxuueWWngUFBScppQ4KBALScRxcthdJKVkkmWj3GRtyi3WaYjAYFHl5eYJ/9R9FlDC94HO8/uNl5lyAAcdpTMHnHMNnHTt2dMMOPY/oKTp13Cu+19zc/P7DDz9cvWDBAiYlUhNZCLSxKLIrIQzA4sMCpY2bwXNAFgVuSlPXgMbZGfE7+RcwgAEocHkSWmDhCheHydJI+bpstgHCxR6gMisqkmpKdUAWEXb2AC8AnjaAGwvJXh1cf4b3CFKpyWgnb57FBeNzhHaIpZtmAYK//tVHsUuHmMi4kYFgZoAwpngKANBumWbD4Hqwy4cjQpjANAA5gBGvEZoLWgeDeYcx4z01vQiEEwB/eKHwSOBNZJxHNDY2dsBz8Oyzz4qdO10HFB6Jl6SUeAojeg6UUnCZmgOBQEMoFKoPBoNsVnYGAgGynXY+88wzbBJspkN8z0naj7YAIe1dvPcCI0aMCBYVFRGjPS4QCOQ5jnO6lBLXK+jeXd1ZrDEW6+7du4suXbqI9u33apSw8Guxo/z8fHfHzx//zY6ffwEBxAFph+NRM2tsbNQV1FxgwHG6vd27d7vFl5BE5TzOB3BgjuNs3bx585uTJk3C84D3gMWeeKU20g8JLRDqYBIxU6xgPhPzRqCFRcV88cmCgAjFjlKz7nU5W7IZmKhaWxnYbAMEFmAY7Kb7l8ldAwL6l8WBXaRpLDJ4eTSLvaW3oau3awUQaEPbgLF82fuA68B4J+XSNAsQ4p9nBnlyyzM8IqG5oBNOot4CJEPzvYMkqnVDSHs00yXhqRD+QU0TT4MZosCLAJBE0Mr0IuClwDNECLBWKXVGbW3tC0uWLDkelcQdO77LZGbx37tDiW4A0gYpJZ7EbUqpzVJK7mWdUgr+w4ZAIPBdtgOAQkpZ6zjOxsrKyvDKlvH3pj0joR6wACGhbvN/UmlpaR/HcU4JBoMdQqHQzVJK0pnckrxIkAICjjzySLf6Iv+PHXrooaJPnz7u5wcfDHUgtQYQIGa4efNmsebrNWL1qtVi27ZtLgABQAAqtm/fPv3ZZ5+tXrVqFZrwLDYmQx6UwULB4sIkYkr38tsIN+BmZvdjsrHRPMBrgBeB73TqG4Is/D868HgiUlmSOLWdF7m1bAMEXNJm+ih3aQIE/p+dJeDLfKDIOqHfw8+N9CshyOHZYay0ATDCFxsAAiENCxCSf/Igd0IyJP5vZoHQv2gTUNpZgzN9Nd5LvA+MNdklZoohPAW8DJBWWfQ16OC95HnBo4TEuQb08B0IMfCMuIv0q6+++tq777576Y4dOwqo91JYWPidZzOSWqv2VvKv/m/mH45lvmMTw+YE3QT+W2+SAoEAvIevAoFAeXl5eTKaHcmPQhtuwQKENAz+2LFjAytWrBgUCAQIFVyplGJy7cBLQWigd+/eroeAXT5EwTPPPFMcddRRrqs/28bLu3Pnzt2zZ8+eMmzYMBYQUqwIJaw37o04JKRFJhh2pqYoEtkMgAoyFtjFmMaOlnx94tRMbhguEhYZXJqABxNQZLs7/F6/NQAEvEC4mc3dPQsBYR2AXiwDCAL8zIcU1USTfEobFiDE6kn/35PRg5dOlzfX7xkAnbGEU8L4md4AADrggH9ZWFHU1EY4AVDHu0y40DyPdnQhJzOjAVDBmLphjtGjR1PA6fFjjz32KIjObHAw5g0dAo1Ei9IAIRwc7Ny1U2zftt3doMBlACQwDy5f7so97JRSXlleXp5IBoz/XrZHRu0BCxBS/HCUlJTAI+itlLpXKXWKlJLFw/UI4CUAcQ8cONAFCdqdn+JbSEVzn/z2t79948EHHyQEQg0EcwEhBsEizwTFpGKy4/EMEFqAX8DEZoopnegBAEhz7Ei0WxvCGyEKdkLhpZ9T8Vsy0UZrAAgs7IQD4IuYRp8zViYADO8zdpiAPVNamcUFwEDc2TQLEFL7xMHnYFGGUzDJaJpQHf1POI530AzjMU4s7Oz+w+s0aC8C5+I50h4G3k88FYQETZDOGrEPN+DXv/71tKFDhw6krHyS8u379RSbKMDBlClTyMB6t6KiIpzwmtreta212AMWIKT4ASkuLn5aSokLkJCCOOecc1wewZAhQ1wvQQ6DAt0TTRs3bpzWs2fPKY7jINpCSptZA0ET3tihQEQkFqoNdyguTLQQ2MVo4znDq4BblJ2oruHAjgbvAW0xMeVqrYVYT0lrAAj8BoAdIRwzzMBWjfCRqX4Z/nvxFEBmZEerjXHkL7x0tAUIsZ6W+L6H+AlAx92Ph424vTY+h1vAu0ZGkDaeR9JR4Y3ALwjXH4FrgEcA0IdOhTYAAlkQZE9E5aXMmzfvJ83NzQ8qpeA8pNQIN1RUVBBq2BUIBIaVl5eTbWMtSz1gAUKKO760tPQWpRQxvn7Nzc351113nbj88su/Ixum+HLpaG5VVVXVlOLiYtKm4ASYkrpcDxc15CgmJXYo2vA1wnBH5IWsB1PRjc/IduAzgIBmOhNjJTbOLiecdZ2O35auNlsLQGAcCA2ZKoj0Ce5mvAjRDOIbY6uN0BLAMTy8wPeRAAI7YEip8bLU22qaY/g4oAtCeA5dEDIOtBH+410jVRUCotm/Wp+EdxRAYJbbhksC6MOjhAdIn4cGAx4G3tGoKptTp04tLCwsnBMIBPpG02FJ9EWbN2+emD17dpOU8pny8vLwuSfRZu15CfaABQgJdlxLp3kggQn1tIaGhnY33nijoA5CUVFRGq6W2iZ37tw5s0+fPs+tX78e7wDhArNIEjt+PiOdjgnGzGqAfMmigXuSnYg2XNsoLeKNMMWP8ESwuyFLggUqfCea2h+W3tZaC0AgPIQnhwXfNNLXAHCRwgyMNeNmcheoBMjCFKmAViSAQE0A3NnmIuVnRCxA2NtLjBvpiWQO8a6YCot8jmcHIGB64DiHz7QXAT6RNgSSyCBiHPEomeNOSjJgDsAetQJjTU2N6ylFuM3PQMY6hlDFl19+Kd555x0nGAx+qpQaWFVVZXonYzVhv09DD1iAkIZOpcnS0tLrlVIspmc1Nja2u/766wVll3McJGybPn367AsuuMBNSQpT5uNnEQ9kgmLyMDUR8B7AnCa9ETBgTjiQD9mV4LpkZ6KZ0/AOIG8SE29taY3hT022AQJcEVNrgvsLz2LQ94zXBrEc0z2MZ4cwg7k71cf/2PMuHGH8aFzdaPhHqpERCSAQ74brEG9NDQsQvu900h55Z94PS1clqwSvEMAcQKDfL84E1AH8dEaD+R0ZC6QVo5aotUg4B/4CCqiAQjM0sc8zX1NTg2gWoI8QR9JGymR1dTUZVA1KqR9WVlYS5rCW5R6wACGNA1BcXHyVlJKX+qKmpqZCwg14ErS2QRovnVDTSqkFP/rRj14aN24cngDik2bePDsRJHuR0YVnYO5iBhuCKiwc2ni+8KQw4QAo9I5TSwPDsIZpbWZBJHTvWT4pmwABHQokqwEEpkUDCJRohmDKOaYRNuJz0xg/iKiEzLShjIMXIhqhNBJAYOyJiaObEI9ZgLDvu4TXhmwUFm/TWwAXAZIhfUxYUBvZDhAYqfbJ+JoVNamrwvGa5Ki9gTzLAAZAJCmPUYst1dTUUBAMQrJZKTSe8XWPJcPhg2kfiKVLlnKtRysqKsy6IXG3Z09IXQ9YgJC6vozYElkNWhegubm58NprrxWXXHKJmx4UXSU5zTcVufnQmjVr5h977LFTHcdh8mBXauoRIONL9gGZCUxU2khTJJZJ/JKFxOQeIAwFuQ0wQdxTM6aZAAANkNxaS72FlgYlmwAB4EY4iIVcG6584s6RYriEfNjR0/em4XIGICCvq40iWyzuZngBtT08CLinIxmCTcS/zbkFrgLhJFMR0M9DbgHCvr2EF4F3By+CSQJmN8+7SbVGvAgmFwFiKoW8AOKkFpvfEVriHQXwzzQuxbPEc8I1EDuLaDU1Nbz3XDdhsRZSGhcsWCBmzJjB3PC/dXV1I6urq01Ph5/nxB6Tph6wACFNHWs2W1JScoaU8g6l1ChidsOHD3eLJfXs2TMntA+8e1333HPPfXTbbbed7u0c2CVqY4fAjhN3JBOUSWCCKMWxAIfwYk1MIBDi+FwDAS2KhPAKi49b5aWVWzYBAimIjIlJIgTY4f2JRjxEFZMxMUt6shgD4sxQRaTwAiEkdp7R+AQQTlmU8GxoA1QAKs0drJ8htwBh315iviZcB9mUBX+R8TVjh+4KizrhPG0AeMaE9wzPgysw4Bm8IN5BvAXIL+vaJ3AdAJgAfhM47HM3S5Ys6bhjx44FUko4DQnZwoULxUcffaTy8vI+l1JeX15ebmZjJNSmPSl1PWABQur6ssWWKLkspWQhZdHsQKGkc889V/Tv3z8nUh/r6uoWnH/++RMWLVrE4sHO09R5ZwLAE0A6IlkH2gAOhB2Q0mUyMScmSIjsSNE9wAWqS7+ym8F7QAjjQPAe0BfZBAhM5iwOEAG1kQqHh8Csj2E+n7ijiU2zkGtjBwcPgR2hNhYh01sEkRQwQhghmjGuPBN4NrTxLAEuo3kdorVlAcL+PYNHkjF51+OBaI8AHj4Ii+iWhId/mHN4p3lOTOVFvASkHBOK4L00OQeAOsIPjHXUEGBNTc2rUsrLKBwX71RKsaf3338f8TjCVj+uqKigfoi1HOoBCxAyOBi33XZb57y8PEACL3jHo48+2gUJeBRQWMyiNSxcuPCzAQMGQC5k0ggXJ9EcAlKpzAwFdjIAA2LL5kLCTyEtq8w7HrczhjuTBQggQUz0QPAe8LuyCRDw+LADpGCTNrgd9G80ohfvPQs955kGoGARYcKmeBZhAQCjNlzSfGbuQsMfWxYpQhhkvGijJgDtELOOxyxA2L+3eD8J8UAIhvRr1ikAFMI3YFzNcA6eIrgIhP/IYDG1FPR4kZVkCjFRFIr0VLxQUfVJZsyYcVkgEOC5ML1RMcf4q6++EtOmTYOUCDD9dUVFBd4NaznWAxYgZHhAvKJNv5BSsiPvTKGloUOHCrIcdCGlDN8Sl1vx+OOPT7777rtxOeKaNjMUqK6IvjuKhyz6ZnEYvAmAABYjsyxtD89rQPEgsxgQCwfcBiayV7PwO9N1yWwChAu9lLU+xo8j3MPETkw6mjF27PbN7IRpHkDgX8YVdjzFxLSRqRKuxBjePs8KbnDT7QwQhDFvsuX9jIUFCJF7CQBPqIfdv6lFwvsLH4VsFGotmAao4HvGBvKhNsafnTvgjdARaccYqqjoK/D+fhgytkRUAAAgAElEQVRNw2Lq1Kl5RUVFAH7fYYY1a9aI6dOnu/LKUsrflZeX85xZy8EesAAhS4NSUlLCCw456OjGxsbANddc46ZBUskx01ZbW7v4tNNOe27NmjXsGOAamPXiz/Z2KkzWZpyb2De/gYkEl7JZFEanT5EGpaWYYc8zSeGl4N/WVpCppWHJJkC4zKvkaLr0mdAZG7PAT/j9Q0AkzGCWgMZzgAcBTwKeArMUNF4JFotYwI5FCMCId8m0K8J2qH4ecwsQIvcSXgLGh3eQsJDe4fM5izzEQrgIZlop48FngDS8gNRd0IYHAC4R4I7qkdoAGegncLy5MdjnrmbNmvUvVFellDHDDOvWrROzZs0SGzdupHbD7yorKy048PMmZOkYCxCy1PFctqSkRCsJDmlubs679NJLxRlnniFO6nNSJjMcGmbNmrXy3HPPZTIhxoz2u2loFbDrYMFBQlkbvAM8Auw+mGC0QU4DSOD6ZkHRrk4IbxR9YgI70GKN2QQIjA9xZbOIEq5iYv6mjG74k867T3jIzH7gGK1xwCIPgNVG+ioeh1ipimSz4CE6J+yCFiCkdq5BtpxwJd4CXTadKzBmpB3jWQgvfAZYRyGVcTfDPYBMSKt4DnmW0EDBAHu891zHJETu80tqamoIbxFGxHMY1fAcQEpcv3494OC3FRUVgFFrOdwDFiBkeXDKysrOD4VC10opcd+2O/HEE8XJJ58s8ChkIg1SKbXqn//859s/+clPdHlmc7FHTIeFHbEjQgOaEIUkJF6DC7zvISJqw+MAMGBXo/PqYVezU2AhDdeTz/IIpOTy2QQIeGt0bQv9YxCyYjcYVQnPOxBRHBYFU+wGxjvV83BVM74YaWeAPsBdLIM0CVfF5ERwjgUIsXouvu+7eWNHlgJcBK1LgqqiLtv8VFiTgHqAHzwEUh61xgHPL6REJNDhEukKkHgECB3iaeLfiOmHc+fOzW9ubv4yLBy1z6W/+OILASnx22+/dcFBXV3db206Y3wDno2jLUDIRq+HXbO0tLSrUgpSEC9vIQWdKO6ERHNBQUyvXVK/YMuWLV+cfvrpL6xZs+YSj5Rkuh5ZINg14rLGi6CNks6Qm5hIwsV1EFm63kup0rwE8uJZYJiUYsWwk/o9WTo51wACHhoyFGLVPgAYMPlDUNNGPBlgAaeB8BGG25lxJv8+lh3iseghtppmAUKsnov/e0TYmDdY8M1iW/w/4QY8OSahlMmEZwNgAFA3Uwo5B8BINozpecBriPgSIY2ocuizZ89+Q0pJhUkzvdX9RdRXWLp0qUAtkY1Cu3bt/jRu3Lh4Zbfj7x17RtI9YAFC0l2YugZGjx79s0AgwM7tpKamJkmRp759+4oBA5AOSIs1z5s379szzzwTXgDuaNyWpuFiZEeBu9p0McJTIHZNjNos6Ux9etKlmJxgyZPayOIJYQ7XJl6EqPKtafmFmWk01wAC2QtmCmNLvcD4ks6oTU/cpL5pA7iyK/WjeMl5pMYBEk2zACH1zyIgjrFZ642hDv8AzvD8ke4YLsENICTUR3iQmgvaCAkSqkDUiucHPgoGyGAeQM8kaphh8uTJ1y5btuwppRQA0TXqK/CH56ChQUct3JDWJinlRsdx1gYCgbWhUGi9rbuQ+ocjFS1agJCKXkxhG6Wlpdc6jjNESknucuCYY44RhB1uu82UH0jZBb+ZOHHiR6NGjUKJjcXeZD6z2BPPJDURXoLejaKaxr1BcgMkmLtUSI7saiCyaZlmvBDsVhBcCfc2pOyHZLmh1gwQAHvsDinKFMkABXiLzDh3rO7mOQoHmxYgxOq1xL4H3LGAA8J1qImwA+8fYT7+NYse6RAQxEPAg0kuJruBuiqED3X6JORixhPPIO+wefx3dzxixIiO7du3h1R6lPkzAAhhodKQUmqHlHKLUmqDlBJQQ+aEFmnidEDqcsdxFjmO8+XEiRP9ANPEes+e1WIPWICQgw/IqFGjDg8EAjdJKXHvF4RCIbdk9IUXXiiOOmqf9y+pu9+xY8eXQ4YMmTBv3jzKycJB0LsG2oVsBpudMAFeAW0QoOAYINQSnkcPcEAOll2pJifCrSDEwG9BxOVAtNYMEGDCA9xYFCIZiw7aFVF3jxFOsgAhc085vAIAOH3O+6o9QPAS8DDg+TFFz7gzQn1kKhHuMwursbuHu4K3wExbhpMC8RVuiRmC3OdXvvTSSwullKdKKQNNTU1oHIi6ujpRX18vtmzZInbu3On+7dmzRzQ3N7sCcei/ROBa8RvwiixTSq2WUmouDUBnoVKqprKy0tRyyFxvt7ErWYCQwwNeWlr6I6UULHVYxq7q4mGHHSZGjjRF8xL/AUuWLNl6yimnkMYEOcm9hmG4KVk48CKY6XJcHPc1ngIzvgk5CuBAW4ACjMUHlybkJv6NOrkk/ity4szWDBDoQLxHeBEiGePGwhFPzDgSQOB5ilc506Y5xn684YkAAvD4kfK40DuFIkq8v3AOAASm8f7iOWJc0bzQRiEoSMr8EWbQO3ddrh0vQlQp5F27dt0fDAZ5ljoBAAAJhBb42759uwsUdu/e7QIHNj3UYQAkABB27drlEhhXr14tNmzY4IIIwAPHGIaXATImnhHSLh2l1CbHcT5o3779HMtriP2wxHuEBQjx9liGjx89evQ5UsqLpJRuOhovDMJKKDAedxxe/oRt93vvvbf6kksuYYJhJ2F6Aw7yWOyI8MCS1+xlmNN4CZDqDY9x41IGNJB2pdnTTEKQG5mg8CAcqJYtgMB16ffwBSAeDgJjgoeHxYVxNY1dHOMXb+ndSAABYEkKnZbc9vMsWIDgp5f2hoDgLpGRomWW4YIQFgIwkN4IcNfG+w2pkYwV06vHeoA4EnMCxFXNFyILCb4ChEizWuQ+d6eUYkMwJ15VRRoBPCCchD7C1q1bXRABeMC++eYbQRbE2rVrXdCBuBymiF8IsU1KyW/8QikFiN0UCATeLi8vR9Y7YjjEX5fao+gBCxBawXMwYsSIdu3bt79DSjlCKTUIxN2nTx9x+OGHu9wE/SLF81OamppW/+EPf3hl7NixgAA4BmbVNlIVSWljgkZRTxs68HgJYDmHF2aCFEX4gd0GCwvGxDXE28m0JNoTz63n4rHZAghM5IyPWdmP/okXIOg01PDqjywgkOCQSo7HIgEESHEsXqZ4T6w2LUCI1UN7v0cECXCACJKZJYRXCNDH5oKF2zSIiiyi4aRhuAkARngNhBa0IXoGyThcdpn5g3bqlFKsJ4QuAAopMTAAgAGBpc2bN7uhCTZJgIZPP/3U1VTQXgiPD8XzNU8phaw0oGix4zj/njBhQtQMjJTc6AHaiAUIrWRgeflKS0spyMLizW7f9b0NHjxYUNOBtMh4bN26desGDBgwedOmTUwgvOSmEW4g7UnHNvV37FZZkMLDCxDcdEEmLa5DsSbc07pYUzwu6nh+Si4cmy2AwMKOiA19b1q8AIFzGSvi1qbRLotLrHTJ8DGIBBDQ2gfIaClfP+NmAYKfXhKCrTb8A1IF3CwB7zTea8IMVGYML7CF8iYu++/SC7xz2ARAbCRUAO9Av7d8DpggTGg+D7CnAR+EGyEgkhKNKmPaiss4juN6GwhHAB7YMBHCoGz0ihUrTMDAvX+tlJofCAS2OI6zpLKy0o+Wh79ebwNHWYDQygb5nnvuKdi2bVtxMBikgtr1vBzdunUTp556qhg2bJg44ghTWj/qj1Pz58/ffcYZZ8AghsBkpkjgv0MUCXfiTUKIrV4rMKPJWiArgePNSQJSE6ABtyVpUhghCDwIxDOjVRVsZb0f9XazBRBQrqPvqZOhDbcqHp54J0LEsMhmMY2J3ywG5He8ILUCZk2DIQ9rPqpkb4TGLUDw2+NCoMo6VAhRYehVIGhGuA/VRECCn/AOWgmEGdA4IeykvYGsFfyFu+1Jj+TaeJo2K6UgObK5IBsiI4aXATIkgMGTcHY9DnPmzNHaC9zHl47j/KKqquqNjNzUAXIRCxBa4UCOGTOmUygUIlMA8SEWbhdFo8B4aI9DxU033SSKCpkbotqOKVOmfDl8+HBSFmkH5T1tEBvwHLDDIG1RG25MdpTfhtVk4Hvin0xOaB9oVjT/za6DnemBqH1gdm62AAKTOVX0iClrA7htMSb2bDzhFHgya0NwD+w8AaThO9aW7s8CBP+jx3PAewvgBwxoI2SALgnpkFEJhmGXAcyR3kyYITw0EX5HHbxrQkJd5ekgQHyOq7qj/58Z+0g8DKtWrRITJkxwPQpeWKtq9erV933wwQdaPTJ2Q/YIy0FoLc/A6NGjjw0EAmOUUsdIKSEgnaqUOqG5ubldhw4dXHYw1SCJx51xxhmie/furhJjJLnmPXv2fP2b3/zmlb/+9a+4AklxNLMLtIsRbXWT2Q5YII4M2ZAdhjZ2sYAB4uEIKmGUCobchguT3eSB/lJmCyC0lsc30fu0ACG+nkPhlMwDLZXM2Xj9IBzCGfKbZsymgXedkKKfEt1kFnAs3iYyC0hBNMt9x/crkjyarIn58+eLF154gdCDI6WcEwqFflhVVXWgb1SS7Ln9T7cehJR3aeoaLC0tPUwpdR/sYCllN6XUOY7jHAQg6Ne/n+h2UDc3hQhWL2lBmzZvEp9+8qkLEoqKilwFxp49e4qrriJV+ntbs2bNxgEDBkzbunUrZCL0DkxDLpUiKkwsWt+d75kAkGLFnWjqJaCfgJeA0sI6hk1oghgmcU9TpS91nZNbLVmAkJ7xsAAh+X5lJ49+ASRDv9koSHDjVSRMxXmU627J8BiQoQI3aqdSCkIy8q/75Cgm/1NitwCJ8auvvhLPPfecoDgUXhOl1F2VlZXhhatiN2aPsB6EXHwGiouLR0kpUZ7rDIGwqampc48ePcTpp5/uegTIDyaDoX379m4+MUYcjlxiUoE+++wzN5cYtm+nTp3EKaecInr16iWGD2ftF1RUaxwwYABkMZTRYCxro9Y0/AJSG3EZ6ngj7mKEdIg3krpoGqRFgAMgYZb3BcQ5UAlAg2sc6GYBQnpG2AKE1PQrvASk1B/zyQFh48iCCsEYHpEWPYt2N6RRwk2CC7NeKYWwFhUj3fBnpozQAjwEQgvLl7sSLctQpC0vLye7w1oCPWA9CAl0WjpOgXy4ffv2/xMIBHo5jnOaUurEDh06yIED927w8RoAClj096b/RjZekk2bNrks37lz57rsXs456KCDXMnmo446qrFr165bL7jgAtz+pC2Z1RtP8nYBXMB0O7AbYKLAo2CWaCW2SXoj8UrCC4QUID+Q6gjDnnNi7T7S0Z2ZbtMChPT0uAUIqelXiIoQUAkFmgqJLbUOD4ENARuVWDwEdh6AEMSZViulUHAkNAHHKSPGRglw8Pzzz4tly1zH5wrHce6pqqoiEyPeLJyM3HNruIgFCFkeJU/jgIIouPsHNzY2dkUx8dhjj3W9BUgrJ1L2GaCAF4EKajNnznSFSAAKnTt33iyl/OiRRx6BSEY6I6RDbcgkQ3DCFWkCAbwJeAV0TQV9PMprgAw4DKisYUwSuiiTKdGc5Z5O6+WTBgiMTWFh4cK6urq0VeZKaw+kofHCwsKlDQ0NJ7UEiH1clsUh465uH/eVyUMgEQPaeadf9Hlh3mEyk1BypZpnS4anE/4BJb5XKqV4H8h+gJ+UdgMcQEZ88cUX3fAC3pJQKHTf2rVr37SkxOS63wKE5PovqbNLSkp+p5RCu3xoU1NTRzQNCBsceuihomvXroJFPlnj5UFUhPADaT+bN2/e8O677769ZcsWvAUs5qZR8pl8dVIczfQ2KvORtkj4wfQIwEtg0mH3oIWTOJdUJ3LezeJPyf6UXD4/aYBA2OjII4/cfvbZZ09l7NuyaXGcWbNmDf3mm2/I2EmmOyxA2FtACR4CipvhqpvR+pYiTRwLh4jia6YSY6RzSBcgrPAm6ZQUYsoEQNCExHfeeUesXLkS7yqiXvfW19dPqq6u9pPWmcyzdcCfawFCFoZ41KhRlwWDQWL3QxsbG7tdfPHFkhAC3gItI5rq22KSJUd47dq1u+69996vlFK88GQxaCM0QE49JEQ8BvrlQhcB3gEhB8iHpkFk5I+MBc01wNOAa5LwQjw576n+yZlsL2mAgAeBZ4Dsk8LCwoS8Rpn8wem8ls5rRzmP7BzrQUi6t/GgIIHO9hriIdyCWEamFOEImH5kNbiMvxaMzAkUFZFir1VKTRdCnCP2ijilxdj0vPXWW27GAt5SPAeO4/xoz549Uy04SE2XW4CQmn703UppaekTSqnzHMc5uW/fvnmAAv5IUUwklOD7wt6BX331lTNq1CjEj0h5Iv1JGyEHyEWwnkl9ND+n+BIERlyV2njx8RZAToKHQKU1FkoAAmmOaDS0ldhf0gCBTmX8AQphBWriHeID4ni8Z/wlCQ7oC+tB2PtEABBQTeW9jBUy0M8QUst4EiAfzo/xYNE+UusovX6jlCKLiRLUaSEqwrEaP368q3cAUAAcSCmLd+/ePaO6ujopl9MB8QKl6EdYgJCijvTTTElJCWlALLKdzz77bHH88cfDCcgIMHBnSqVCn3/++e6ysjIAAnnOZl403gTSEkH+ZCVoQxcBDwHpTmjza6N6IzsLgIIGDsgrcyycBGKebcVSAhDaSmdl+HdagLC3w1FFJPQHgCcl0Y+R6oj+CdwknaEU7TzCjUg0w6FZq5SCuIwHwhTx8nPNmMcgr/zII4+4aYxKKeKwX7LZqaioYO6ylsIesAAhhZ0Zq6nRo0efKaW8Tkp57yHdD+nQvqi9uPzyyzO2Y1RK7Zo7d+7n99xzD4s6hCKzcA7oHy4BWu6PG7+FCYIMBbwEpEppIwyBpCpsZyYdDIlmjiN2aaq5xeqa1v69BQi5O4IWIOwdGzx9vNtwg/wSFQkX4AmAgxQLIJCxQFVFNhoABFQ+ISoekqpHg0qOn3zyiZg0aZJb3TEYDO5RSr2P57OyshIFSWsp7gELEFLcobGaGzlyZI+CgoKTHMepDgQCh0BIpHxzJjwJ9fX1tePGjZv1/PPP8zLjCjQNwAAhCTIiiFwbmghUfmOHYCoichyTB5OOTpWkGiC7DT6PlTsdq6ta0/cWIOTuaFmAsHdscPWzAUBNkA2AHx4CWUqAfbwPkA9bIiqylvDOw2OiJDSFm8iQ6p6KR4MwwhNPPOGmcMOl8mrE/F5KOam8vNyvhHQqbqVNtWEBQnaGm8qM5yilfqKUuunQQw9t17FjR9ebkIKYa9RftGHDhu133HHH/E2bNsEnMAECegbsEuAUkPpoVl4EIAAG8A6YBmiAtEioQisusuMgO4LPDnR5ZbMvLEDIznvk56oWIHzfSxO9zAJCgxAKYxleAMIEKCWS4qzrrEQ7Dw8jHgqEkyj/nDRAgIdC4aWnnnrKFYHzMrs2hEKhmxzHWfzcc8+ZMvGxfo/9Ps4esAAhzg5L5eGlpaW9EEQiJhgIBDoccsgh4qJBF4lDDj4kLbyEFStWNN12220blVLsIpBI1oZuOpoFfcMqA/J8EEpgV0C2gjZCFGRhwE8AVAAoqMUAAQrvBKTGtmQWIOTuaFuAsC9A4H0G8PutakhcnxKxhBoBCi0Z35NmSCbUVqUUbn8EmhLSoUA+/slxT4rNmza7IkiBQID0yXcDgcDY8vJy5JzbCgk6a2+XBQhZ6/q9Fx4xYkSwqKiIl+huIcTIgw8+OI+c+JtvvlmgK55KW7ZsmRo9ejSV/sZ5DGPdfH8hRLkQAt8dHgRtpD4i5Qj5kDxqbUwYkBBJ2If4hEFKYmdC3JF/25JZgJC7o20Bwvdjg/gRXj7+KL3txwAIeBvhFrAot2Twjpg/SHPeoJSCtMgGglRp34aXYOnSpeJf//qXWLd+nQg1u0kJpE7e7jjOpxMmTHDVkKylvwcsQEh/H/u6QllZ2VGhUIiiTP9WSh102GGHuemP55xzTkoEk7gJDyCA8OEKQC7UBoEJZjPkJdTTtOENABxQne1r43MmC7gHcBWYADC8DEw8lWHyzb5+fys/yAKE3B1ACxC+HxuqPf7NCwOYJd5bGj3mBMo+4y2MJbkMT4ny0pSGpyYD+ilkPlES2pft3LlT/PGPf3Q3Rx7XoFlKOS0QCPxyw4YNSyZNmhRPuXBf17QHRe8BCxBy6+mQY8aM6RcKhYZQE6GwsDBAVcZhw4e5lRuT0UmQUjZ99tln20tLS4kjkrFgxu4gFkJgQgfBrM2AVCqV3dg5mLKOgAEAAl4HCEwYxZxwX5L73NbKqlqAkFvvkXk3FiB83xtwCuAhsOj7BQj3e6FDhNJiAQRClcwVZ3oAobenn9Al1uOBkNvf/vY3t3aMF06Aj7UjGAxe5zjO6oqKCrf6krXM9oAFCJntb19Xu/POO7vs2bOHlwu0P4hCSxhhB0CCH6DAMZR9BomjSLd69eq6mTNnLp8wYQJxC0IaZvwOgAC5iHCBKYiCmhp/4QWXkFxGVhXiktZSIL3xNM8D0dYkTi1A8PVkZ+UgCxD27Xa0TtA08QsQEEkiVMAG4EOyE1oYRbhJEBVRUMSDwNyBxGG3lkae6oukLa5fv15Xp4VrgGbMi2vWrFlq6ylk5b1xL2oBQvb6PuaVITES51dKvaOU6g6JkUX/pptuchd+EyjAWwB9f/75564mOQQfLdvMsbt27do9b968LxYtWsR1AQjaIBDhsSA+SeU2V5Ysho2CL+HpH2hkD0CA5AiXoq2ZBQi5O+IWIOw7NoD6aV45Zz+jRhE5Uhyf9ryMO2KcRCiSjCeyJEh1hPMUESBUV1eLBQsWCISPmK/wUiqlJgcCgf9yHGd9ZWUl51rLYg9YgJDFzvd76dLS0j5NTU1HB4PBtwKBQLBbt26ioKBAnH7G6WL+vPluxUb+HzcdVRspYEK6pAYQkH62b99eN3369BVbtmxhd28CBOKDN3vMZoCCH2YwAAE5ZjwOZDBAZoS7gMSyBQh+B9Yel4kesABh315mwWeRj7XQ67MAvxAVIQZqEnJL4wZAoOAbhEWEjPYDCHgMICEil0ytDSmlUkp9LqUckZ+fv338+PEQna3lQA9YgJADg+DnFigLXVRU9EMpJWJGndDrh58AIAAYAAYABY2Nja7n4MQTTxTnnnuu6N27twseVq5c2XD11Vev27p1KwIpuAC1UXuBjARAAwAhljFhoIFwoZH6iKeDWCXhCwsQYvWg/T6TPWABwr69red8PxsBfWaNl74MWfGzGIMHkCC9ESL0Dg0QmJf+/ve/i9raWvfP8xjQ1ArHcSgpvbuqqqotiatl8h1I+FoWICTcdZk5saSkBNf9PVLKgFIKgaPDdV4xngG8BYCBYcOGiRNOOOE7zwGggOqAgAXAw9KlS0P9+vXbFgqFPhZCIH6kDR0GKrwRL/QDEJBOBQQACrQ2AlkQ1GCAv/CbzPRMTl3Fhhhyajj2uRkLEJIfGwACGwjSHVFJbMngJOGVJKOhdtmyZWvHjx/fUykl4UIZpbtRP7zRcZy6qqoqeAvxAJbkf5FtwVcPWIDgq5sye1BxcfHdUkpc9vADiN99F8PDY9C3b19xzTXXCFIh8RoAAlBibKlUNBrm/fv3J3MBDQR2+9p48V/xXIh+AAKAgkwFXmgNEAAciCTBjobQ1NYsVQCB3Rm7NGt7e+BtIcRxSXaGBQhJdqAQAoCA15G5IlZVx98JIQhBAiY2/exnP5tbW1tLASctlrRQSjlSSrn72WefJZRggUHy45O2FixASFvXxtfwqFGjzg8Gg2ikkxKEAJGbuqBL3o4YMUKcd955+wACiIl+zQMIvJBkH5jFWs4XQrzlKauhsBbLzvXSIVnMkFTGCDmgrPg/QohJsRo4AL9PFUCg2A2TqbW9PbDUk+5Opj8sQEim9/aeGw9AQPvgMY+wvLGkpOSVhoaGq4LBoCsAJ4RAx4By0BR0+kVVVVWsIlDJ371tIeEesAAh4a5LzYnFxcV/l1IiY0r4APc9oQQXCJSVlYl+/RAoFG64oLCQkgmJmQcQVni7fuq8ayM8AEuZeu6mSFK0C6F18HsvTeoP3kGUe+Y3INfcFgunWICQ2GMZ6ywLEGL1UGa+R0SNDCc2E7E8CKQ6v+OJJW185513HlFK/Sg/P78dPISpU6e6ZZrbtWsHX4my86QvrM7Pz//P8ePHx+I3ZObX2qt81wMWIGThYSgtLe3qOM7/SimP90ABWQCyrq5OXH/99S6fAN5ArLBBPLfuAQQmXMIIbjk0zwAIyK7+QwihF/yWmqZAEzyDv3iqiRxLjjSTB2Wf/bKj47n9XD/WAoT0jJAFCOnp13hbpbYKYUk2B7EAAp5Pxg2gsHHWrFn3KKXwLDLHfUeqhmQNWFi2bJkLFgKBwBalVAMp3fX19T+prq5ua1oq8Y5JRo63ACEj3bz3IqNGjTo8GAxC4jlKKXWIlDKPEEKXLl3Ez3/+c/dfMhOS8RRE+zkeQPjEiyWaZVsBCBMiqChGawr9AzwNpDxpTwQAAdf4XW00pmgBQnreIwsQ0tOv8bYK+Ec1lfBBLIDAmkIok3oMG2fMmHFdMBisUkrtJ7cMwRqNFrylb7zxhivolpeXx9y0jawG5pOKigq8Eday1AMWIGSg40eOHHlIfn7+v4UQvaWUIOwgL8egQYPEjTfe6KYhEkIAVafLPvnkE9W/f39UknhxTWIQAAHiIov+ez6uf6unf4C3gAlcexDYMQAQ2qJZgJCeUbcAIT39Gm+rhD8RVyKUGAsg0Da1W1yAMHPmzIFSSsimtBHVmA+xb7/9Vrz++uvMhcxReCN3CiFeraio8BP+jPd32eNj9IAFCGl8RKjU2L59+zeVUmdqYEAY4YYbbnDDCIACwEEGzPnkk08a+/fvDz8gnAQHQIBUREYCJLlYBkCgFsMPvRiiBQhCWIAQ66lJ7HsLEBLrt1SfxToBmRBtg7gAwscff9w3Ly9vplcOPuZ96dRtNktvv/22y5lACrEAACAASURBVFfIy8sDPQAWPmtqarr2ueeeM+vIxGzTHpB4D1iAkHjftXhmcXHxn6SULKboFuSBkMlEGDx4sOjUqZPIz0d2IGMWmjt3bt1ZZ52FLHIkgPB3Tzp5mY874jdBSCRzQccJCTFYD4KPzotxiM1i2LeDLEBI/plKVQta/CgugDB9+vRjgsEgoc3O8d5IU1OTm8W1ctVK8fakt9lMUQcCj8JaVBfLy8vbIiE63m5M6ngLEJLqvv1PRhZZKfW8EOJkxIccx5GUbKZ+AkWX4klNTNWtOY4Tqqmp2TVw4ECUyiIBBEhEl/skGAIQYDST64xRoOU/hRCn2BBD0iNmAYIFCEk/RGlqIFGAcGgwGGTjETdA0L8DkEAGBJLy1G8IBAJUlqWA3NeO4xRXVVVRQdJaGnrAAoQUdmpJSclz3kLLyxBo3769eOCBB1xBI4os+anCmMLb+a4px3GaP/r4o52DBw1eHQEgIJlM2iLZDS1VatPtARAAE1ozoZ0QArXHH1iAkPToWYBgAULSD1GaGogHIKCMiFDSt1OnTu1aVFTE/8cs+RzrviEzQmpELO6FF15AlRGeAqRG0rdvrqioWBKrDft9fD1gAUJ8/RXx6JEjR/Zo167dGx4xJ8gD/F//9V/i5JNPdjkG2QIG+mZDoVDzhx9+uH3IkCEUUjE9CLAiL/YqOQ72mYEQDhAgUUBOPMEChKQfJgsQLEBI+iFKUwNsAsjAWu+j/cleyHLrokWLOtTX10NaTBogmNelcu2LL74ISMCbMLe8vPxcij75uDd7SBw9YAFCHJ0V6VBPFhmBIKqkySOPPFLcdddd4vDDD886MDABwvvvv79z+PDh4R4EwgN4DpBOBiD4sXCAQFYGGQ09LEDw030tHmMBggUIST9EaWqAzQQLsJ9F+GEhBGWld8ydO7d9c3MzoCIlAIHNFhuwcePGweOinPTcwsLCC8eNG0dVWWsp7gELEJLo0NLS0n8ppSDsFUKoue+++1zlw5ZqIiRxuYRPbW5uDk2dOhWAgKvP9CAAEIYKIR6IABDwDCBuQk6yaeEAAfVHJJepF2HTHBMeJfdECxAsQEjuCcqNsykD/wI8gcmTJ3fo0qVLSjwIhBi2bt3qeg6klI1KqXd79+79H2PHjsWLYC0NPWABQoKdWlJS8r63qEoyFH7/+9+L445Ltq5MgjcT47QYAOESrxJjuAfhJCHEeV5dd30FnhcAwmUGB+FQIcT/45GQLEBIbggtQLAAIbknKPmzXxVC/F9DBC1Wi3gfnxRCUEbenCdcT0OqAAIkxSlTprhpj1SJlFL+ury8vC0Whos1Hin93gKEOLtz7NixgZUrVyIo5C6oEBDvvvtuQWghVy0UCoWmTZtWN3To0PA0x5Y8CJAXbzAKMumfF+5BACBQyREXogUIyT0EFiBYgJDcE5T82VM8yfWpPpua55V2hii4n02ZMqVLp06dCG0mFGLAa8AG7IknnoDPBej4Oj8//+zx48ebcvE+b9UeFm8PWIAQZ48VFxejCjZcSimpbQ7f4LTTTnPJiOlUQozzNvc5nDTHjz/+qH7QoMFfxRFiIJWR9MVrwq4dDhAILRBiINRgAUIyA2VDDOG9Z3UQknue4j2b9QCA8JAQwg9A6CmE+Jj50CsXv9/1Pvzww+4FBQXLlFJxAwTCtu+88472GtRLKT8sLy/He2ktQz1gAUKcHT1mzJgLHMehQhl5/6gdSUgzP/zhD91yzNRSIKUxl8xxHGf27Nl7zjvvvC+jZDFQfCk8xEBhFgSQYgEEUjqRQT3CAoSkR916EKwHIemHKEIDKH0Sp48Vq+8lhEDDBU6SH4CAnDIhCYjObD72s0WLFh1ZX19P+qFvHQTCCRs2bhCvvPwKfC5Srzfm5eVd+vTTTy9OR+fYNqP3gAUICT4do0ePviIQCPzJS+9DCyCwZ88etxrjJZdc4qolIoqU7RRHfp5SSi1YsKDpjDPOYEdmkhQZ/4u8Qk2JAgTIjKRAnWgBQoIP0/enWYBgAULSD1GEBn4thJgDJSBG44i7VXhl2/0AhGuFEP8UQhCOjAgQpk6d2qeoqAgNhU6xfhjAgL/x48fjkQXM7FBKVVdWVrJRsZaFHrAAIclOHzVq1PnBYPBRb4FsD1DgIT/11FNFaWmp6Nq1a06EH4xiTZGUFBFKShQg4EVBox1Sow0xJPc8JQMQSEPDdRWp4heTbbPPFLVEfgE71GhuM9LPYu1co13ThhgSGY39z6ES47te1daWWhwkhGAuo7yzH4BAuPFvQoiBLQCEcwsKCqYEAoGIxZrgGDBfEq59+umn2VTBM9iplFpeX19/VnV1tR/xttT0km1lvx6wACFFD8WoUaN+EAgEnpVS9vEql7nFFgg3/PSnPxXHHnusCxRIgcyGV8Er9xxpAaJYEzFHBJPMiZwQg+YgmLnP4RwEfqatxSBEKvKwkwEIRwshrqKUeIRHGuo3ZXMhqabaAAcU7+ofpeFKiuwkeFELEBLsuLDT/AIEuAQs+Hf7BAjIrZPxEBUglJSUXHnVVVe9eNhhh3UADOgUcAABHAPCs1VVVWga6OqNWx3HObeqqurb1Px020oyPWABQjK9F+Hcu+66q+Pu3buf9txuEHPQEpBUcRwyZIhbyRGeQmFhYUbrMsQACH8QQpDuqIsv8csACGQnMAlsMH4qAIHvig1pZgsQsg8QiAM/4YW8wp9MwMvj3nim+Il3nxsAJtK6kQwOy+sJXtQChAQ7zjiNOR6AAPlwQozmRgohfueVdfbjQXjQe6bOjOZBKC4u/qGU8h/Nzc1F3bt3F9dee60LEhYvXizee+895kE8BNtJXQwGgxc988wzfpQak+8V24KvHrAAwVc3JXZQcXHxvVLKnwghDvZIOuy2XHfamDFj3OwHeArUbEg3sTEGQGDXwC6QdCRtgABCD/+v557UnwMQmPTLvIIpfG4BQvYBwtXeAhAt1vuUEIJnMRWeDvOFAAzzLESbSyxASGz6SNVZbFAYo7d8AAQ0DSAcAxT8AAT0D27zKrlG5CDceeedf2zXrt19dXV1Bcx7GMWXjIyvJY7jnFNVVbU7VT/YtpO6HrAAIXV9GbUlKjw6jvOklBIlJSZw/iQvCuDgjjvucEMQgAT+Px2loA2AAPPYDBkQYiDuSPlmyrJqI82RHSnggT8TIOA9YCLR5aEBCHAbICu2RQP4pWLhTSbEMEII8a8WOn+GEIJsFQS+UmUsPgAPFoloZgFCqno7sXaokfKIEIJCcrE8CIQLUEG83idAoP4MYYm+0TwIVLZtaGi44fHHH89fvnw5hGmxe/fu78KsSqmXHMf5aX5+fvOzzz6L2JIfKefEesKeFXcPWIAQd5cld0JxcfEYKSW7ckBCVyEExEZJlTLCDhAbTzrpJPcFIhTBXyrMAwikCQEIcOlp4//ZCbC7/MD4fJgQYry36HC/2thdAAh+IYRAJAXj/3EzpmOHmoqfn+42WgNAYOIlzACwS5WxmPy3EOJ4CxBS1aUpb4cNwV89RdRYAAEQgecQ+fgPfdwJZZbZGFDJNaIHQSk1XQhxjiaxMg89+eST7iaIgksABi/Ranl+fv7lDQ0Nu48//viNVj7ZR+9n4BALEDLQyZEuMWLEiHYdOnR4UCl1kxCiQCl1kJTSZfry0uCOu+LKK8SwS4a5YAHvQocOHRKu88CLedppp32mlKJUsxlKACBM9FIdnzHuFeIRu8NFnstRf4W6IoCB3Ua19+Ed3k7i50IIVwu1jVkuAgT8uZBOXbKsZwA+AAIlcpM15g6ej9uNhuqFEPSFeU3rQUi2p5M7H6BPqPAf3nveUmuEIY7x+EUa/Ld0PPoGkLJbAggoLKKvsM9aAyfrT3/6k9i1a5f7h1qiR97+Vkp5qeM4m+rr6zfYLIbkBj/Zsy1ASLYHU3D+5ZdfXtCjR49fKaVu8SZYyI1USXTHB6bvwQcfLK677jqXtwCA0OEIvA5+siKWLFkiBg4cuHr79u2kJKIGqQ0g8L/e7hKCkjY8AmidU2jlOuNzQg+4qinGgusSI+TAQsBEtCAFXdLamshFgADZq9Zz/+r+BOz9HyHEKynoYFT0WHQAjNogI+LSJuVVG98jppNIqqMlKSY/UD/0qq3ybrYUguJK6CQAHtkAIKoWyxif7h5BdWWkg5VSW7xCblHbqqysFPPnzxcNjQ2ibnedns+2hEKhq/Pz87/etWvXegsUYg1Fer63ACE9/ZpUqyUlJXcqpe6RUhYKIRBhguTYQTeqAcPQoUPFWWed5aZPAho04ZH/Dyc9Ev+79dZbN8yePfu3nriJbu5cr847kzueAG29PSBAGMQECLgLEV753JtIOB6XJBwGQMNLSf341nlyLgIEvETfCCFwMfMMaYNvQnnuZA2QqKt40hbeA3agiO2YAAFeSpUQIhESmgUIyY6SEH/0vHuoI8YSSuL7WR4naZOPSzM+8AbY2ETMPvADELgOfKxJb08Sk9+e7P73zp07AQrEHzZKKa8OhUIbKysrv/Y+83Fr9pBU9IAFCKnoxTS2UVJScpxS6ueBQIA0NoAApAR2b25GBEY4AhcdBaMGDhwoTj75ZFegCdCAdwHgUFtbqx566KGtlZWVpDzBH9DGAsKiDuHwUuNzPBhwCwAQJkDApcjiACmv1Dueqo+Iq+A9+J80dkeuNp2LAIHxRCefBRtQpw1GO9U3dyTRmQAOFPTgIGjDS/CpR3CDtKaNVDg8UWa1P7+XtgDBb09FP46wYQ/vnZ0fozkAwrOeh6nBx6UZH/Q18ErhrdrP/AIEfSJz2UcffSReffVVAS/LAwqOUopQxQ2hUGjrxIkT1/q4N3tICnrAAoQUdGKmmhg8eHDe0UcffYOUkl1gd62ngBIZXgWdRgQo0FXQSCei4uRRRx0lPv/886Zx48ZBRIR5rA2JZEIFSCa7IMQzFoGbvQnfBAhUb2QHSvlKDRCIWwI6UOtDO6GtWS4CBOLDPCcsDkzg2iCToVsAUEzUAI3sTE31TVIdAR1jhRCnGg1DjPxzgtwUCxASHaHvzwMg4OZ/2PMoRWsRJUxCjwB8VBdjGYqdPGMcT+iiLvwEpRRtInhEQbe4DHAwdepU8dZbb7mbHy/zoUkpNdPzdG6prKzkd1lLYw9YgJDGzk1l02VlZcT6ejuOM1VKWQQn4ZRTThF9+vQRq9esdoVHarfWut4Cwgu8YLxYWsYU8LB+/Xo1depUdvlnGPfGAgK5EM6BCRA4hNx6Jn4TIEBAAxjAXdAAgVAI5DeAAipsbc2yDRC4PtklqBZqY5z/PyqSe2RCc0wAhAC5RFPK/u5lrGgvFnFrngWyYxDdMuW8IbLicfoigYfCAoQEOi3sFAACdRjwHJlCaOEtU2ztRQ/g+QEIzEdkKDDuhCX2k0RWSh0uhGAMCVMmZMxfb775pqipqRHbtm1z5zOkmKWUTzU3N4/Ly8tbXV5engrSbUL3d6CfZAFCKxjh4uLifkIIFMnu6dKli5sOefPNN7tSpeGmuQdbt24Vq1atckul4qbDo0CYYcKECeEAgcwJ8tjxFkQCCJCcEFEyJxfUFfFCAB70xECsGdeyBQiJP1OJ6iBAaoU/8hfj0uy0SEFk4iccYFbTgxPwyzCFTL93TXou5EQNDjkPr9T9nheKezBVFad5XAV+W7xmAUK8Pbbv8YB5MlfQvqAIU0uGIiZeBoDjez4uS5E30iY5LyKhUSkFoRnQEbEOg49rfHcIWQ8VFRXufPbNN1BrXEPh9e5QKLRowoQJEdMs47mGPXb/HrAAIYefihEjRhS1b9/+ZKXUB6RAHnrooWLQ4EHi4G4H+8pcMH8aYQePqEgc0vQg4CrkJUdFjUXfjD3iQSBeDUgwX0AAAmIqgIKN3nX4b4AMAKGtFVjJtgcBEMA48aeNRRvPEORBSKUoYGqDUEaI4LEEHn/AIp4JM4yA/gULEZ/hXSB1VhtkVlIhEWqK1yxAiLfH9j0eYTa8RXhxYgEEMhcAfWQ5feTjsowp3iIqOUYDCDxjEFnxMKbE2Pg88sgjbkh1w4YNKDIy13yqlCoJBoPfPPvss37IlSm5l7bQiAUIOTrKZWVlR4VCofOllC+gf4DC4siRIyN6Dfz+hGXLlonRo0ezkyOGbAIBqrihlki6ollzHdEUJgHKWlMnXhseByo3svBoSVZ2sCwM7Ew1aPB7a639uGwDBHgkkAFNEEA8GeIoZEXIpqhimsbCAYCIF8zBKTCrduLeZbFAZIfsBb6n8Je2rUIItD787ErDnwMLEJJ7MwDxhHfwDOA1askgJx7ieYLgFsQy+C3MF2e1ABCYGwAQ0Sp9xrpGxO8Jl65cuVKMGzfO5Sbwp5SCJDk+GAyW79q16wubFplQ1+53kgUIqenHlLZSWlp6muM4uGxvhmDYt29fceKJJ8btNQi/KTwId95555e7d+8mXm0ymgEI7DAgszFRaANI4DIGVJgKfHAS0Exg0tFZC3zGH+f70XFPaZ9lubFsAwQyURgnM0REVgELOf5YUlDJJEC1UxvaF6S++cl31+fAV2GxMYEIu02eVTwEVJJEPMnMhoHnQJVJUiDjNQsQ4u2xfY+HMMpYEWpivFsyxocxBEj6yTghdIRA0vlCCDIM9jOlFJ4qeAhpMYDBpEmTxMKFC8XXX3+t58dlUsrbHcdZUVlZiYaLtSR6wAKEJDovHaeWlZWd4zjOK47jHN6jRw8xYsQILUea9OWI3f35z3/+dubMmXgEzPoKAAHiiVR8M+sp4LomJnlsmCAOuwaY8OTaa+0E+AfsJPlMCyglfc+tpIFsAwR2afAMzPRCPD6EhmCXM74I5Qw1+nObB+54Fvwa4SPAAM+FNoAjoACPFFwIgCaiWaYBEP7t9yLGcRYgJNBpximMCyqGhA9nx2gKgMAzxL9+vEp4GinjzTMR0WOolCKDATJjWm3Tpk3isccecxUZN2/eDFDYrpSqDgQC/+jVq9cSK9ucePdbgJB436X6TFlWVnae4zjvBYPBQnQMCCno1MVUXAyy4muvvVb/2GOPMQkQS9YGyicGSQwZaVZtLHwcRyEgUzGPVEfc15ync+EhIrFY8F1bS3XMNkBAPhtvDoJa2lioNZGQlFUmcuSxTYNsSEjIT847hDf4BWZ4AfABQCS8gOFKBpjwvJhmAUIqXuD42wAgsHgD2FuKzTO2FF7CO4SugR8DIPA8QUKMluKI9yrtAIGb3bNnj6vGSFrk2rXfySQAMH+cn5//xfjx49ta2NPPGMY8xgKEmF2U/gPGjh0bWL169YWO47xdVFRUePjhh4tLLzW9tKm5B1If58ydI+772X2kPZlMcxYQCIn/GQYQuPC1nmcAV+VO7054blh8iDXjNdDpFJDViIcDHtqSZRsgENpB7ArCqTYTIPAZ3gRIiehdaGMxIEYda3fJ8YBHSGfwUrThcYKHYp6PmiYZMaZZgJD5twFiIEXYCAUQ9msppZVQASRTVFYZ01jG+48oFmRl5Lv3a1spdbQnnBa3BkKsi7f0PcTFp59+mowtgWdBSvmtUuoZpdTEqqoqk1+VzGXazLkWIGR5qAEHK1asGCKlfK1z587tf/CDH4jTTz/drJee0jv84osvRElJSThA4Bos9rDTWQDMHQHAgUWAOKZJNCOuDfkMMKAzHCDD4eb+rxQVBErpb09jY9kGCJDRwmPM4QCB8AKEUxMY4jkgxECsOpbBT4HU+J3kt+dNYJeKQJY2CxBi9WRmvidTCYEqQocmryjS1fEusQHAi4i2QSyDzIhKJ8CUMMN+ppRiLsDDkHSKY6ybCf8eb8KCBQtcfsLq1asBCYRMmPPu7ty58+JHH33Uj8cs3ssekMdbgJDlYS0rK6Ny2f927dq1A8DghBNOSBs44Kd6AAGCIsTEXcbPByDgQmayMNOc+BwCHDKsxDK1ob9OPJpztCof4AKiHNUhY8m6ZrnnU3r51gAQWNhJOYOLYBpeBcCf+SyEdw7aB0z2Zq0OWON4jMzsFs6zACGlj1bCjaFsikcQ0B8+RuGN8r6yKcBDFJFwGHYCXkU4TIS2SGONBBDIogGUficJn/AvSeBECIxINj/33HN6PqUWyKt1dXX3VVdX21RIn31qAYLPjkrHYWVlZUMcx3m1U6dOnc4//3zRq1evtIIDfgOZDD/96U+/2rJlCwjfzDaAjcxC/7K38OufDMkJjwDxbTwG2khpZLHB1agzHLT8MosNwKGtWGsACIwFYw7vwAwzwFzHg9CSa5mFgGNM7wNAgPEPT4mzACE3nnrCC4QOyFSJpUHxpldxEy7JfnyCCD+HFEc8FHgdVkUBCGnNYIjWxajHkgK5YsUKMXHiRJGf71YeB8y+KqX8Z3l5OZ4Eaz57wAIEnx2V6sM8cPByUVFRl7PPPlsQWgivwJjqa9Iecbmnnnpq++uvv47b0SQTUr2RCR9ZVBTQtMFPwFtAxUYAgo43aqIi/5o7S+o0kPXQloiKrQUgQEAlzICstjbcr3zGTjOa4UFChMnkOLA7HRfhBAsQ0vHixtcm4wRAYJGGoIgWRTSj+Bvlvzluks/LEF4AVJD1gLz2PqaU4vpcm7TYjJgGBuvXr3cLPe3Y4dYiQyQMie936urqflNdXd2S1HRG7rO1XcQChCyM2KhRo/oHg8HJgUCgx4ABA1zOATUUMmG8SB9//LHzq1/9il0F6XHamCgAAIggwZA0iUfEuCG5kbGAvKk2pJZxI8Js19UB+e8TPHb8/lrQmfiRmb9GawEIhApY6MM5B+wICR9pEqrZg1T1BCBARtXG5A/3JFJp70gAgQyY13ymz5nXtmmOiT3L6FHgwWPBh3zYkpGyDDiAYxKrHLRuB2Iim4K5VGoOb1wpRRos2ilwFdJmyMejqIhXdMuWLWRoCZQW4cRIKddKKd93HGdCZWVlW9NlSVmfW4CQsq7015Ann0z1s0vz8vLyL7jgAoGEMsWXMmVLly5VY8aMgXlOfrxpSC6zeMBCN0VG4BYwgRCvNqsAoqSG2xr2s06PIj5J+WeOi0hgytTvzOB1WgtAoEuQ0iV+bMrfUrcBJcZIYQYWd7wLyGhrY+cIuXFNhD6OBBC4JmQ54sDxmAUI8fTW98cC5uGbQFI0C3hFao33Gj4SYUSKLsUyPIwQGdlMRFRcVErBTeH5SAtBkdTvjRs3uuJIAIJXXnlFF3FqVkqtk1LOkFJOLS8vh0BrLYkesAAhic5L5NSRI0ceUlBQ8D+O4xDP7dPc3Jx33HHHiZNOOskVRMKTgEAS0sqOsx84T+SS+5xDqiPknQceeGCBUoraC6ZqGgVYkMrFdcyuUlt/DyBA7jHDCZd5ioqAA01gZPdACiQ8hLYimJRNgID2ALoD4US08CwGPZaQSAklAeK0kYWA8FWkbAYWGQhveq4gJMECgAs7kkUCCIAPQEW85DALEBJ74wHyqGvCP6AmR0uGZ4fdPu89wkaxjGcNUithx2g1GNixw1FKmVuUuZFqjnAL8IKieTB9+nRRUODSafBULldKQYyeXllZiWqotRT0gAUIKejERJooLi5Gbe4GKSVPOIJD/Zuamjp37NhR9OvfT3Q/pLv7IvACdO/eXVCPAeNFScRA3fAPcMWR/vPOO+98vWPHDhZ1U6MdUhMLBTFEwgracE0TXoDIyMSgbwIwwOKBhC8xaW3sXnBzkhbXFiybAIGxAZBBPtTGIo4Hh51kuPEgEWbA62MaXgU0EcxdPm4tdoJmO+wa2W1GU0aMBBBYfAAakTwOLT0fFiDE//bAGaK/ESkizNAS/4C5B1Iy8spwCvxMLhR+wrsIbyUioGAXL4ToGf+t73sGcx2eAio4Mn9RnXbKlCnuf1N8zntW8YSullJOLi8v59mzlsIesAAhhZ2ZaFPUXlBKITrSUykF7bYPf01NTXmdO3cWJ518kji0+6GuR4GXplOnTuKggw4SRUXQBkSLngaOJ+WHl+vzzz8X3377rcCLsGrVqvoZM2agnmaK2rB4AADYJRBWMCVX+QzOAYsFMWht/D88BNIjt3gfEq9GD4FJxI+ue6JdlyvnZRMgHOZlkbBb1Ib3hh0+4C2S4fInbdGszYDGBTt9Mw+e8AKfmZUb8T6guAczPJLh0obdbhbogauAlgaEsXjMAoR4emvvsad5oI6FPxKJ1GwR/gHAkE2BSVAEOLArj+TCpFw86pt4JvbjGCmlmEMoEBZ3DQbtJQAQIJsMCFiyZAmcKXfeCwQC/Au/gOfoUynlplAo9M+qqqq2EsqM/2lI8gwLEJLswFSfPmLEiHaFhYVXBYPBK5VSvKhBpdTxUsofhEKhTrwkhCCOPfZYgRwzL05jY6No166dwPsAoCgsLHQzIvicCo54DRAOIXzBMaeddhqfqfvvv5/Y88Cw30DYgUJMLPykMGoDMOCChvRkupdHGzK+cCswUqBYXHD5RSKypbrbst1eNgECJX0BB1rymr5AVpaJXxfSCu8fQkl4EIg9a8NzQDwaQqI28uLxFuh5ghQ4slSebqHD2bUCEM3484ceqRFXdjxmAUI8vbX3WLRJAGiMb6x3j/EFJPD8mGqYeDdJBzQ3ArQNoGTO4J3/JNKtKaVIiYVvElNBEel3PAR4Ntm0MGchbFRTU+NuZLzwAZchBMazgPeKZ3BSRUVFrOJT8fecPWO/HrAAIccfijvvvDO/rq5ucCAQGCal7KGUYsw6SClJJTzWcZyuuNzgLBCKOOzww0SXzl3c/F8tFgISB0AADI444ghx7bXXitmzZ4uBAwfObW5uJqXRjA0TOwQA4F1gstGGV4OQBLsKVBS1ATAADsiY6tRG3JyEGWDAE6880C2bAAHyIGEAJmZty73PojHYcT0R/gEImqZ5CEzIkNFYQPA2aHvfC0O0lFePp0DX5NDnsePD+8TiEo9ZgBBPb+09lvAC71+46JGe680wAumNNV6xLR2K4FmGU8Q7DbAzDU8hz40uI77foWUZsgAAIABJREFU3SmlqCLKs9iuqalJ1NXViR07d4jarbWuV4DPAALMSYCApUuXupsYHU71GuQekUheKKUE7DYqpd7s3bv3G7bwUvwPRDJnWICQTO9l51w5cuTIg/Pz88+VUp6jK+t5ucedpJRooLt57ngXAAqAAnQWAAYACYwXs6SkZM3cuXNxIZuZCXAHAAbHeGV69a9k0mHnQAok2Qt7vC86ewsCgIUwg/6cheV4bxHaL1c6O12XtqtmEyBANmRRGGD8OnZ3ZB5AQItmcEb+GrbTh+jIwgD5DODIf7PD1IY3AQ9BS/nkVAPFBY3AljYqR+JRAmDEYxYgxNNbe3k/hI4gCUIKNY05gcX2a+9D9EvgH/HsvG4cCODnXEAedRxMg/iKyiqeQp3WzPdwkwg91E+bNu1rKSWCaaJ+T70LDL7d9K1Ys3qNW2mRtETmpDDNFwDpSi/raYvaS7TiGXylsrIynnLk8fWWPTpmD1iAELOLWscB99xzT0FtbS2hCTgEbqVGQg2kUfbr18/9Mw1GcEVFRcPPfvYzKjuahERix4gisUtAE8F0M9IuIABPghmrJhzBddk9siPB0FggLEGsEtnVA9myCRAQPyLuDxdBGzt8FnMEbaIZkzohBVJbtUEu02EkgCPj7ErReV4mOA2x0ubgqtDGyUa7eJ14FuJ9DixAiO+tAfTh3SN7iCqLpuHdm2d4BfDo8MdYmcDtGa8uC+9zeNoj5xM+Cg8VATB+fOutt9bl5eUtllLuQ1DU3CnCox65kPuap5RaJKUEDMBlmE0l26qqqniJrPH1kD06rh6wACGu7srNgz1tBWLQ5CZfBNcAjwE8hRtvNKs6f3//gHTIPxdddBELPYu56Xpk0YAVT7oQKVPaWFRYONgtmOEHdpuAA4hO2m2NG5tJiXz7llT6crNT47urbAIEwByxZjw82tAzYAfYEikQfgs7/fBsBhYMyKWEGyjeow3vAgRFFu2WjDRKuA+mWiPH84z4VerT7VuAEN9zCDCAJEh4gTCTNjwLiJfxPGh9E+ovkIUAV0UvyryzbBjYFPA+s6vXhlcAzwLPhFl/AWAKH+CWv/zlL5fs2rXr4by8vK54CTQggF9AGJR5CQ8ChGml1GtSypcrKipiAc74esAendIesAAhpd2Z2caoBPnVV1+dEAwGr1FKPSSlzINrMGTIEEFth6OPJtoQ3ebMmSMuu+yyRVu3boXUZE78ZCAQ16bqmYkwungxaVjthBk0yxl3JbtLHW7Q7GbCDEg4s2DoDIfMdlJmrpZNgIAwFbFk0/h/9Cpi9TnjwzgzrtpYMHAhM56EBbQB9liAYqXC4apCQwMipGkWIKT3WeRlJ5UU3kC4DgBeP9QPdRE2UmMBfLr2in6PISgz/jwTgE6kirXBPUBpkzRHM4OFlFnae+T1119/o127ducWFha68xCAAI+B9iCwKYGPsPjTxWLRokV8t1tK+QvHcaorKytjPavp7T3besQesAChlT4YkBcbGxuZwK9QSo0mptf7uN6izw/6iBtuMOf16D+Qoia/+c1vaidOnIjiGC5pbRAVAA2kQBJmMPOdcT3iZmTCMJnMuDcJVeCWRoIVYxdJSVhck6RdHaiWawCByR8AZ5ZhjtT38AvwGJi1N4g7k0NPhoNOVWMnicdIZ6m0NI64l3FTw1WxACFzTzyKpoR34BRAFDQNrx6hP61dQZYC2SgAAVM9k3Hjnb8qrJAbbRGGAAyEhxfIdvjp5ZdfPv/BBx/EQwF3qUXDu/Dee++52QsQFaWUf1BKvV9RUWGWk4/VjP0+Az1gAUIGOjnVlyAVsn379rzguJGPBqUPGzZMDDh9gDipz0m+L0fd9DfeeEPddNNNLAqUdTaNMAM7EkRUzHxqdoa4H3UVQH0OzGUyFtBzxz2NsXDiksTtyTkHquUaQCDNDEJpLINfADA0sxkglDIv4A3ShmsZt7UmuLXULm5qqgLi2TDNehBijUbi3yNsxs4f7w7eOgCeNkILJ3opyzqUwIYAMjHn6PLOhKgAEIBCwGV4uXbIqXiGzNAF7zXhxitmzpx5sJQSUqyvAk14E5BK5m/BggUqLy9vdigUerqqqsrKIyf+HKT8TAsQUt6laW1QFhcXdwsEAnc4jvMHKaVEYfHCCy90uQaJFHxCrnTQoEFzQqEQu4/Vxt0TGiA/Gvcz32kj/Y2CTCARSE56l0phFrwK5D+T4qjdkwhAneKlUpmTS1o7KsONt1aAQDfh+YFzEC1vHbEsxjUe2Ww8DeYzw3UsQEjfQ0lYB57Pux6gN68EQMfTR+oiAIL3mewFQBzhAi2GxgaBMeY70mPDhbAAGmvDwg66iNuds2bN+pNSCtelWeMj5i9mc/Phhx+KxYsXw0tAi+P+wsLCZ8aNG+en7HTM9u0ByfWABQjJ9V8mz5alpaVnKqUgIv4CAhBExFNPPVVccYXpIY7vlj777DNxzz33bHzvvfcgJbJQaOPZYBcIGGBHYe5KcEMSZoCwaOa2E/ce6e02teuSdDeOZXKJpt8f303n3tGtGSCgvEeYAbdzJGOHSNgoHoKhBQiZfUbxAiFOxi7f1KjAQ4RXj5Af5EOM+YP3EUEsAIU2vISAunjSUWlzYo8ePV597bXXEFUj1TluAySwUVm3bh2pkE1Kqd8FAoFXy8vLTaG2uNu1JyTfAxYgJN+HmWgBcHCjUooUpit1SOHMM88UJ56I9zBxQ0ypurpalZWVEf8jZc40dBbYPbL7MEV3yLmHAY/HwcxmICefxYQdiyn9C+EN1yOubDN/OvEbz60zWzNAIK2VsQrPZtA9TJiJ8AJaBn7NAgS/PZX8cdTLYIyQNyZkALFYGxkleIYADTpd+VkvZZUNAaAdY9dPqiLkYt5VP9LF8JQIQ1w9Z86cds3NzZPD0xvj+WmEHMhuIOTw6aefNgcCgZellM+Xl5eH8yniadYem2QPWICQZAdm4vTRo0f/REp5jye37AoeXXnlla7OQSoMF9+QIUMIM0BA1DFJmsYdifcAMhv/aiNFjl0IRDaY8NodyQ0RXiCkAIDQkxITFel4eBX0TiYVt54rbWQLIBB7ZscXTh70y0HQ/UeYgRRGwkSmUdMBAAjxLR6LBBC4T2LUZn2PWG3aNMdYPfQ9kZh0wXBpZTyCEIS1LDGpisT4AQmEF3RGCu8mhEWO51gtdtbS1ZkP8BiOqqmp+aWUssSrwxD7jls4Ann4efPm8ecEAoGlUspHKyoqYtWUSOqa9uToPWABQo4/HcXFxcQQ/1tKeRCeA8IJI0aEh3eT+xGoKt57773fvvvuuywE4TtJvAiDI+j6Q0pENQ/GvFlqGBcmCw6LFBMRBnGNXSqLA+I8sVLlkvtBmT87WwCBXRwcj/DQTbwAAUBHuChcNANhI8IP4YI5sXo4EkAASJJ7D+jwaxYgtNxTAES8BwBzFnjtEeAsOAMQjamxAEjAIDbjJeQcnfLI5ygkIrGOh7IlcS3zbhBAe6VXr14VL774Yo1SikqwKTNCDgsXLlRSyi2BQOCh8vJywifWMtwDFiBkuMPjuVxJSQnMf1z2hXgLLr/8cnHNNdFCxfG0vO+xhBlefPFFdfvttxOTJBfaNNjsEBPDFc5gO6O2iJcBoKCNNCfinuxCCE/oHSPeiXO9RYLUqAPJsgUQunt9D+gyLV6AwELDsxbeDqCBhaclaeVI4xgJINAW+fnxVPe0AKHltwThMt4xgFw4+5/PeWfx2jB+zPU8FxQ8IjNJ115Aw4QyyYAIqnSaXKNoV+cdxxt4w8yZM/O97AVXXjlVhnbCrFmz3Aq0e/bs2SWlfLBdu3aPjhs3br8Kkqm6pm1n/x6wACFHn4ri4uIHpZQwkwOHHXaYuPjii8Wll4anlqfu5qdNmyaGDx++oLGxEdnk8BSnaBdCKwGPAQsLZDZtEBtxW+Ky1DsV8uOJb6Lkhl78gWTZAggQQCGomQWVAGTsCAkBxWOEAFDj3FtDfG8WCotOIjHgSAABcADY8JMqqe/bAoSWRxBQR70TampQLE0bvATeQciJmlxKjQWOBxyYNToQUcJLyTPkl4hKGjNhw1tramrYDKCVYpYOj+e5i3os6ou63LPnefpjYWHh322GQ0q611cjFiD46qbMHlRaWjpWKfUbwAGFlq6++mpxzjl4+tNnX375pfjVr3617aWXXkJdTVdljHVBFBeZYOAamLn0cBaYdJi0zJAFkxbnEMqIJdkb69q59H22AAIENGSyUbbURtopJNF4uR7sJNkZmgBhVVilT799DtgIF+TQSn7xkB0tQIje49S6IPyDAJLWQNBHl1ImXgjxplegic/JWmBsISeaBZDgHOAhRASJMfJjbCCeOfXUUyc+9dRTZDGlNLzADVD1kRL1gAT+BSBIKf9UV1f3cHV1tanw6Od+7TEJ9oAFCAl2XLpOKy4uHiulBOkHjzvuOJdzcMYZZDCl1yi3+vLLL4tbb72VbAbyJv24lZmEICqxmyDcoN2TLJi4OAEK/Bat3c6i8RNPtOVASnnMFkBI70OR/dYtQIg+BgBzsobwzJiF0+Aj4NFD8VBzg6jFgNgVxETCDDrsx/tJrZWnvdAfOgSxjJ0KGgrXzJw581gpJQRCs1BYrPOjfk/qNuquZDJgn37qZjkCBri/ZY7jIKTk5x4Tvgd74r49YAFCDj0RxcXFeA1+LaVsd+SRR4pbbrlFnHIK/LHM2IwZM8Rtt922bNWqVfAemEz8GHFQQAI7GXPRhwwFGIDXYBZ8wiVOvjQ7mgNFOMkCBD9PSvzHWIAQuc8QMcNjB/BGOdEE8xBNAQRvCCG+8k4nswj+D0JIpm4JoQniloCN8NLO0UYLDyPhwjumTp36WEFBwfBAIGAWCvM9ypCuAQWkN/JH/QbAwTfffIOyIvLuzCdb8vPzXxw/fjylqq1luAcsQMhwh0e7XElJCfF5XIYdevToIW6++WZx+umnZ/TuNmzYIB577LGGhx56iGI/CB75MWKPTDB4B5B+1ix1yI2AAchLAA7NsOZHkeXARMVkcyAYnhStc5/M7yHFlDCMtb09AAeCxS5ZuyzZBnLsfAD5UE8C3SzVjDASwJvQntYtIazAf+OnZ8Gl4BIGwRVvAuREwg4bfPxGpJV5b/9n2LBhsy+++OK3OnfpfHy/U/u5i3ss04Bg85bNYvlXy0VdXZ173vr1692/YDAI0HlZKQWJeUttbW31G2+8YRUVY3VsGr+3ACGNneu36ZKSktuUUg9LKbsXFRXJsrIycdZZZ5m10/02ldRxiJVMnjxZXXHFFbOVUpAVTeJTS22jh0BeNJMVqWzaICrSDkQ3nfLIMwdwIN4NWVHvcpK69yyfzG9KBUkE96lVj/t+MPsbnIhEh5iU2njTNBO9VibOw/sGr4cMBciC5gJKihOyy4geaT6BLroG7wfBM22EBPHw4V3wy1cBvMIt+o+bbrrp5sLCwrsLCgq6HnPMMZSN/w4kmGWea7fVivXr1ova2r1SKcjBb9++3fUUENYMBoO1Uko2JJ8qpZqam5unTpw48UDiJ2XimUjbNSxASFvX+mu4rKzsdMdxWDxPaW5uDtx+++1i8ODBGQcH+m5hDd9///1b3nzzTXYdpkpiSz8IbwE51kd4E45Wc0N4B/0DvAxwEXSKGxM/rGnCEjDurdkesD3grwfINCF8x/tpVj9EvIxwA4qKeAogq5K+yn/jnqfQknbT8zmZJhBGyTQyxdFauoupXprk7yZPnvzv9957b8CmTZsCEAr79u3rLv6QCqksyx//vXPXTrFl8xaxc+dOai0wrzEHUJJ6upSSe8Sj8WFFRcWBEm70N4qt5CgLELI4UKNHj+4QCAQmKKWuamxszBs9erS47LLL3Lhctgy3H5oIY8aMgTtAPNOvNDKiLOxWSJUy+QvUc8C7AFva9C4QUmE3hHuTMrHWbA/YHmi5BxA/IgyJ9wDlS5OwR7oxpEPePcSRMDx47PohErJL10YJdjgMeCJ4L/2oWxIaRC/hjrq6Ojydj8yfP7/nF198IUiRrq/fm1iAfoEXSiDUuEIptUhKiSfSvVel1HbHcT5du3btkg8++CBWOXL7PGS5ByxAyOIAFBcX/0NKeafjOAVwDgAHIO9sGwIlP/7xj79esGAB8Ux2Hn7sIC+TQVd11F4EYp14DwhSouuwyWuMNC24C8QbdfjBz3XsMbYH2moPwD2g3DpeAVPxEA8e6ojswgHc+t2DlMh/8w6b+hNkBSBwRraD35AWfBDCgj9SStEeG4J227Ztc7MNqqqq3JAB4ACcIKX8WSgU+lJKuTIQCKwpLy/3I9/cVsc1Z3+3BQhZGpqSkhJeTuJ5RSgkXn/99SI/H45R9o144fjx451f/vKXCKqQ0+5XGhlJZkRTcH2y29B2ledFIDYKMUob/ARyOAEIeteT/Q6wd2B7IPd6gJRGspwA1HAPzMwFPHTs8PHQaZXSKz3AzsJuevTgCwH8ARkcby7ctIH2hVZZ1L0AOZGwwN8XL168om/fvoQFj9NfEjogA+rVV1+lGiNeAuaLiQ0NDb95/vnnV0sp/c4fudfrbfyOLEDIwgNQWlp6oVKKGGCPo48+Wt57772iW7duWeMdROqCd999V4wcOfLzzZs3s+v3m/LITgaRJbwGgB8taIKgD5NbJ0/zHzVFDIY6GQ7Iv5LP7cfVmYURs5e0PZDVHmCehkxICIHURFPplHcL7gFkX+oVaO8BsskszHgRTJl0jkF9kVAFSoum4X2oMkCG/g4uEnUablJKQW5ENh3QsI8tXLhQzJkzR8yePdsVOoIsqZR6onfv3lPGjh1rwwlZfYQSu7gFCIn1W8JnKaUo3UyO8vCGhob8X/7yl6Jfv345EVowfxRpR4888kjDn//85xe9ycHvb0bSFS8CJWZNbwFiShCs4DaY6Y0UfWK3g3fBZFn7vZ49zvbAgd4DaBWgdDjZAwGO8YN5pwjXsbDrzAU4BmQo4D3g/dV2tqe6yGfPhBXOGu3xFQD24QWb8B5MGjdu3Ot33HEH56KGGtFIlYbo/MILL2iQMM9xnJf27NmDAqIf8bUDfSxb1e+zACHDwzV69OiHA4HAfyql2t96661i6NChLvs31wwv4euvv65uvPHGT5ubm9lB+NVpJ2OByYx4JemM2l3JjgNvBMREwit4DbCOHpMahjW7G6uUlmsPg72fbPYAXjnev6O994YsBW14Anin8CjAC8ADB4kJ7wE7dt4nk3uAp6GPR3A0C6bBiv7/2TsP8CrK7I3PN5Oe0DvSmwoCFqqNIsWCLpbYCLmhqrjqyqq7igiyLrpY2NVdlSiQQlFwsa8oFuxgBSywijQRFZGeQm7ufP/nN3s//sM4N7k3ublJYL7nyRPInTvlm5nvvOc97zkHw680DKpNO8cBOCBovCIQCFyi6/rEYGnmkHNCy2bKIz/++ONKtEiF1ecKCwv/4IGE6nyUIj+2BxAin7MKf2PUqFG94+LiYA+aUQRpwoQJWnKyKn1f4d1W2Re3bNki77///sJHH32UWCXFjcIdpDFCSZLPrAq28F1inAgT0RvQNEYN/k4GBNXcmJ9YDPLFWXSJuZJFUVaXOEImVKJjAWYxBsx4cdVY3CXvGGQSYaTR9NjbqjMzFCbjGYYpUP0VaP+NJoH3a5lt+nh+CU8QLkSkaG+7zX5gDvhN/wZ7qM+qyJiVlTVn/vz5MIK8q2HZjVWrVmnz5s3TAAzBcCMgIcsDCbXnoQ7rRteey6nZZ+rz+Ug1Ov/QoUMJ06dP1zp37lytKY1lzRYv9XfffccLLh944AGqsLGA2Ku2lfV1KBFaQFM86F4bW4B3Q48GxIwsVmp/PIfENqmjAKAIJ+0RlgIviQXP2aIWbQMUK+JH577IqKDqI8eiSQ0VXMis4FygaZ0MBudDIyMWYkAB+gkWSjwuatKXNdBgkGdOfJhjoTRHh4GHxjzYB3nsLOJU/aNDXrijV3BfqNFJZ3Nrp0zVPQShhHBUxghZJ1DRiNRCXQdsEMCN7+eFYJGolIlBomEUJbXtfQHUNdymadopwc+4X86yuTQXQp3vRMuk2KJdoeyuc+D1YgSZT+61XVjHfeQZ5NydQI555nvQ9KqTIaWDVUdMsnDwtDlP2ii7DQR6PH9ss7KcG8WzDbWPhgBgzByF27IYAS9tsqlyyDzY5435xKATDuCecp3MBewB9Q2crZu5JtIkeR7t2gPuMXoozonnTvVN4bJIk6QR1DWHDh0ampCQAHvAcxP2+PTTT60eL4QspZTM+b+3bt16tZfiGPYUVuuGHkCI0fT7fD7a76IebnD55ZdrQ4YMCas8aSxOD0ERscP169dr3377rYX4Sbckhembb76Rq1evPrhx40aUyyxI4Q5CCSy6LG4sMmpAi1I8CaMJSFBxSUISgBCKJ8FYlOehk7/NdxFbOUEADSwwEmoBVcdmkcQY0bhmfdBI8BnniaHjuCysyrtiO2K8gB1Vopbt+S4hEjI81DuEQeKYLLYq55xFl/gtxqtFcPEFbHEs5sE+CMGkB885ku5c1JnAs2QO8AydaancByhqFncMCUCMa8EoIhDl36EKYrENAA8AQCU+2jWrktnq3DGUzBH9AQAhTrCB0eJenRwEY8y/vR8A++GcOQbq/M3BHXMPVetxfjtBxZhgSh8hKvL5MXxKoEf5YAwogNT5HDHP3A+aGZGqh8dMN0LVcIjnkHuEYQ6V4otYEO+cbYjllzWYfwwvKYp02cTQo7cpb3DuPJf0OuE9sbdT57vMO8wW4l4VRmB7ACZ/s+t50P9wH7k3AF47CObcKHJGOJBn157VAAguGDhw4Ky33nqL95/rjthmbNiwQVu+fLm2bt06K+TA85CYmJjptW0u7xGo/s8jvtnVf8q18wx8Ph+ivT6pqanGX/7yFytrIdYDw//jjz9qmzZt0jZu3GiVPAUIUJjpYMFBq+LZ7t27D1dDQ4cQCATk9u3btXfeeWetlBLDHq4WgcvDQ8ULYaFBYKUGhhUlNH9/xvZ3WhdfEiz9uqKc+YkUIBAiAUyg1GZRxytVxgPaFA8Z74h0MhZcPoOZYGGmCI2dknU7Neo8sA3HwFjZB+CB9DIACIYNQ36Rw5OrDEDgeBg8GBUMrX1AUZNZQpc/YswwF1xfOAABI01BHs4d5gRDjBGxDwwO1w4rAxB0AgSAMUAEZoG5xYghVLUPBRAG2RT6GD+0KlDm3B9nSW68YI5LPj/zS2xdgTjmFgPO/t61HQjWATaE0t88g5xTVQOEYUFwBVgELAEOYDzKG1wDzyzbE0KwCxMBAYh76f+hgADzDwiASQLk/q+28f8GJc1ZcAAaSvvD35vZWDPebYCvGgiHuZ+3HDhwoE9aWhr3rVF5Jx3qc9aQ9957T3vttdcUSHhRCJGZk5MTSfvvih7e+14FZ8ADCBWcuEi+lpmZOVYIAXvQMDU1Vevbt6/WunVrrXHjxlrdunWtH/4eTsMT53FLS0stj59Spvv377cMPGzAL7/8Yv2fzwEA1FgAvR88eNACBrADqrAJnwfBgJaYmKjRSbJ9+/bWOVEule2XL19e+Nxzz5F9EM7ipk4TuhZPB08fQ6NSnVho+D/eHwIoFT+F/mWhYjHFiDpDB/bLjxQgADgwNHhTeHJOzxIjiPGDNuYcoLcBETAaNK4qTzxZFkAgvMD5dtE07cygt8/CD/BQozIAAXYAowe44t8qrQ2DqNpxs/gT8oEtQO0eDkCA9gcUsIira7B71cwnRoe5xfgTJ3cCBMIxAA1AAgwRQJnUOzsj4AYQmBeMK6wH98YOELguwjR444ADDGA7WyiCUAX3j3sH6FSD5wudC8YUAML/qxIgsL4CkvHOCS0QWuM+oykoK8xACINnEBaB33bRIM8Zf2MOuO59wYsjjMPzBdNjZxuuCM49x4cFUCwLX+MdxPDzjjrZA1ip0pEjRz747LPPwkjw7FSqxCv1VSjCtmTJEgUSlpeUlIxevHixW1gskiXW27aKZsADCFU0sfbd+nw+4oTElw08doAAxheBIv/mh0wGVUXxf3VG/n+o/werlB1RLwGjzw8ggZ/i4mKrSxqlT/m/rfTpb640KSlJ69Spk9aiRQuNfxNqACzUqVPHAi2ACgUcqItwzz33fO33+/HqnF5kWbNI/BUvkPirPe0RkSDUJgbDTtOyOEKDE9u1i6ycx4gEIEDvE0/GYKiYrnN/vAvQ26jGSRsjNML/ATGEGDDAZeVylwUQ0DAAgjCeHJ/faBqgtisDEDBwgBdYGowzRgCGBKqegVgURgOgA8PAfUD1TiGrcAACxo3tuQ9oNjge+1bGGvBAiAPPlW2ZIztAYC5hidB3wDTwGWABVsPeQCkUQCAkhAEj5GIHCIQc8JK5PsAL9wlACV2uQlao/QEN9upjAAcMKgzG+UGPvioBAmEXjDlgBFDAdcPglPcOsS2giHsJmLUP7iFsCe+S0gvANnDtgFsAggIBgCfmFi0MGQ32egiEPnjvYIZ4Ruzzyz3FofnTgQMHzk5LS4OVikh7EGpBYG365JNPtPnz51trC+AyMTHRl52dXZYzEINV2juE2wx4AKGKn4v09HQjJSWFl5dYInFnDAMLbVjDDhYUQAjri/9TIvPSUQ8dWvFrKeXPhmH0Nk3zVgAAOoi0tDQtJSXFAijB+KDr7nfu3Elu86FFixbhhbhlNHBNeDzO9qxQ2xh8FktVDpZjsC114lmoMWz2dsl4oyymdJmzN6SxnxsAge0wvE7vHioX4wFNCjiDkmXh5DygZEPlY5PRQAwaY4jXxiLNcTCwW4OxfsIEbgWdQgEEFV7AOKrwBZ4kbAwMghL1VYRBwKuHwufZYm7xKDGWGBgGYRwYA7QUeH+wPypMEA5AQC+AqBMPku0R/cECMAfsD1Ek8XwYAY6vBHMqjg17wbPPvGOIYTcwmOyXxj9qOAECgAoBIeEYKv7xufKU+Q7hBehzqRlwAAAgAElEQVRxdA2/BhsUMRfcO/X8MbeAJgAJ2TScL88a4Jb5AjDxnFQlQKCpEkaYsBzXTrdFwgU8U4BOt8EzyzxTxZTwmz20ADBA7wEbxHvIZ4AeWDieM0CTHQQwhzwfADjAg93zAHzxGSCd49jfCebNvPHGGx/9xz/+wT4RwkbNVuC4UFApOzvbcnaEEG+WlpZmLFiwwAMJYS7usdosajc9VidcC49DYaRmQoiGUsq6pmmmSSlDNVyAYcBQpAYCARo5cbksAJYXZJrmfsMweMlZBFmECwKBgKuxMwzDDAQCRUKI/VLKvaZp7hVCtDAMY0m9evV6DB06VGvatKlC8eVOK+DhrbfegkXYWlRUhHeBwbUPrgnxHefqjBcDivAE8Vbs38PoQHMSu8fAKAEc+4D2RGHNQujWbY5FFoobD8tuPDgnvB0KNuFZYbQwSBwHzwgBWygBpBMgsC9AAgp9PGeoUOL4GBonmxAKIGC4AD94swAPBt4bizy6DIwGoyIAgflDXwD4Iq2UBR82AXEmQAGjREiD/xN+gOrGWGB0wwEIeLsYeJWJoUR53EOMH4YJZgAjyH3CowWMqIwCvFzmDmMIU0TICTYCA09oQlHnCiAAZAkN8MzD4nA8jBfzrgwlzwZgjXPi2LwHGE3OiXmA+eH+8uzwXHE8wCbf47gwVAADpfqvKoDAy8vzBiBiHgltKIEu9xrw4wTThAh47rkmWAa7joBnBICHmBJArUI0vFc858y7PUWYdw4NAc8ZTIQ9E4RnAsMPk8JnzJkanBfzfsvBgwfPS01NRTjLfEV1wFZSK+Ff//oXAIF7sTIxMfHy7OxsL9wQ1Zmu3M48gFC5+Yv2t8XEiRPj9uzZE1enTh2relJxcXFccnKydZ/ol87vAwcOYJwC3bp1K50+fbrdwwh5PqNHj26v6/qilJSUfr379Na6de0WNjhQO92zZ49csmRJYP78+XhhGB+n5473gxHEs3QOBGMsNjACGHc1CDVgwFhA7SEIwAbeKyIzlYZl3yf7wChDnSrlu/qchRZvGqYDgEAsmwUU7xdWIlTjGDeAwD6hylHFY4BIkSP8AUiwMwmhAAL0MoaQbZVgDgMIgCHzAK+QURGAQIgCQ4LxQ3RHvBlDyQ9eK0YUQIMnj5EGJGGYAQnhAAS2B1TwgzHGqAAE2S/7BDxxj9AgkMGBN8+8I4JEZwLTQGiN61RdQQF1PL8YNRVmUACB4yhwyXliQGEC7JkTeLycF8wR4QWMC0JF9su9ATCp+D5AgvMgTMT94XlFjAqQYlQlgwAYwNDyTsBgQPNzDjzXgHrAlT0cwzsO86PYICco5t2BFUMboISGMFIwQgAfALYdUHBfeMZgCpypmMw3Yk3mkvfRDph5r3ZnZ2e/OGHCBM6R97NKBvom0iABCcFzeCsQCFy8cOHCcDvIVsl5eTv9/xnwAMIx8DRcddVVjRMSEhCJ/QHW4IIRF2hJiTD/kQ3CHatXrzYfeOCBndu3b2eRcar1oX1ZyDDA9gJJygBiAFiUSZdTHhAGB+NFQydWCrsXhJiMzzDqzpz0SDQIGBAobYAE+ej26nL2SQAgMNBNuOXe45XCBiB8YwLtLIIbQADkUSYXetep22AeMJ4YBWL0FQEIGEW8RLwuAAJCMtgdrpP54lr5P14484i3SDiAVtvhAATuE98DWAH6AAjQ33jECBiZR0X/AxC4lxgsmASOzXYYcvt8w54AtmBOMFwYJzcNAtuQLgrVDghSrASFqgCAeP52oAeQ4P9cl/o7QABKHwU/95R98Uyp+1yVAIEUSqh6jLa9NgRMEueC+NIu+OX5h5UBwMBy2QfXiw4A0ABToyomwk7wzgGS7awdoSUEnABu2AZ7ii6aFXQlaDZ4R+1ZBISjCAddV1hYeFlycjIMyG96LkS2apS9NSJqNAmPPfYYTALOzhuFhYUjvGJK0Zzliu/LAwgVn7ta8U00EAkJCacahvFKWlpaowsvvFBr0KDieiOyJZYtWyYfe+wxPA+8NXq92wceEAsgRs8psIL2xOCw0LFwq8Eih6fD8wiVr7Ia+Bz9AN4mnpM9ZS0SgMB+EEnireNVubW4RQ/BsVm02bdd7W2/PjxkFtFwAALMA0aQwk3Ece0DQ4HnzTySslYRgICRZqFnngEI7AMBH549c8V9gIImBMO8oyUAJHD+4QIEWAkMB2JDzhNjzT0n3s89UUAQgMA+AYF4tLAHZIwAEuwGknNEf4HSHg8VdiCUSBHPm2eDuQP0wJTwG8PLcVUzMOaVMAPhEDx3labK/GMAAS0wPtx//qZGVQEEwguEenim+bEXGKNYEZ477AgsHN4yTBAhIkApBt0OPHknuHcwcwAB1S4dBgfQQLgIJkIxiVwfoBCWAkDnZNd4XlgAECba30/uC8/9hx999NEvvXv3JtRxuGNjVS52hBto8PTEE9aSEJBSvp6Xl8d7741qngEPIFTzDajqw2dlZbWTUr5Qp06d7vR9aNmyZcShBec5rl+/3szOzt734Ycfsjg5q/7hZbNYQ+vigToHniMsA7Fhe5YCXhLGhSI6GBC1SLI/UrgwyBgF5SlFChAIcfB9mAuaSdkXTuLkGDToaHsdBDxipyARdTwLJ4xBeQwCniu6C7QGeGP2AdWMR6vi7RUBCBhs2AHYAgACAw8fgwurAABBqMbAAPF3VSwpXIAAAwL7BIvDPYWB4B5i9Lm/qugRAAFBIMYPw473CpCA4bCn6XEuGEwEhhgBgFsogIA3jX4Ampv7DiDFsBFDh2a3h9cI5cAMwNYAktS9gXkg5ACLxPny/aoGCIAAjsPzBLNhp8x5jnk/YFgI9XA/yACB/WGunAWheFZpjsSzq8IOAEOAGkwD+yC0owbvCsCBvwOk7M8vYA3Dz7lxv+wMDGDiktTU1In79u27zjAMABXPeEwGKdfvvPOOtnAhr6F1zityc3N5vr1RjTPgAYRqnPyqPvS4ceMalpaW3qnr+s3UNjjvvPOiUtq5pKREPvvss9rs2bNZtAkz2LszclkYHxY2FkZAhH3g4UBxYhBZsIkTM3gWEdJhyKBR7ToF9seCSJoiix6x5EgBAt4nxoZjQvviPaH4hubHS0VMiGHBeGFQWBwx4BgWvF2+j3AOAIF3SIzfHrt1hhgIL2AAMXIs6E6mhawPFkA8RqhwtBIAJ/7vZF6giAm98Jl9cB6cI1S8AghcD14rx8fzV6wLn8N+sH0kDAIsBPdLdfjDiwV0AAwJCSmhHQYHEIZnC42PIcIgAWCcIAsjhrGHneD8YDUwavZCSVwnQID7TWofx6fBECwAWhA3xTuGkvuEGFKJdxVzwj3FC1ceOPsPxSDwXMNsOI8BOOT5pKIg5wNT4QxFAXi4V1w37BDPnHNA8+PJ896gHQAcE5axZyDwHeaDd4L9cN943nhvuK88r+g01PvD9oBQdA+EwTD49vLTMD48P2Rv2EWOfA8Ahvue98MPP7Ru2bIlQkUySWI6CgoKtJdffln7z3/AolqplPK1vLw8NBzeqKYZ8ABCNU18LA6blZXVWUq5Ki0treHIkSOt+gbRGjt37jQXLVpU8tRTT0Fv4g3Z45wcBmEgxoWCQE6Dh/fMd1hwiW0rQwt4gA6GUgYQ2KspYhRYGMm1x2NGgIiXyP6dXheAAqMLBW6PzeIB4/3jZRPvxcPHEOAVI+bDiCvDAk0MyIGix+ChiKdsMmJHjICz0A0GmYWXhRzwAADgHAklEPN3E5NSn4FYMYWL8CS5bjIunAMjjEGyV51kG0RrHIPzUSANxoV5x6PGUCkvkW0xVnjeGF0MDF4ioRQ7GLMfG1CBoWA/SiiI7gENBudjj5Uz39QrwNPF4PBvjI7z3rN/zg16nVAPgAygA/DC4NmNJN4280PIiWvn33jRsBPODAD2C5AAVACAVIgIgAflDkhxphayfwSyZAao3hh4/XjfboM54PnknhL/dxuwJ2QHoC0hpdYtTZdnkLkFrKBNgalyCvNUqifPISBCfc7zyHzxHAIE1LsDcCBExjMFCHaWZgY0El4D7KHHsYNb3sEzLrzwwrteeOEFQmyEqCpVFKmi6wzFlHJycrS1a63O1byLS3Nzc7mv3qiGGfAAQjVMeiwOmZmZeZwQYllqamqfs88+26qM6CzAVMnzkK+99pp577337i4qKsIwsnDaB8aYuD4eHQuW04tExIXHjtjMnr2AcWdBV6mPGG41MNQYWww/YjUWOYCJM+UQY02cldi7WxooBoofpWzHE3TLbGDR5XwALpw/tD0hA7c0Sd4lDA3nw7nzfxZ5ftvTyOxzxHmyDWCDfRNuwHA7B+ACg+g0Ihg4rpPP7KmegBPm3V4emm25Dgwn22KUuEdcSyjVONuznX2O2S8ghP3Y54zz4PxhZzgWP/w7VMYIhpjr4ticB9+FAXACL+aHc8QbhhngWrkut3vA/eKcVaqjmkfuoSqdbZ9b7g0gkftgF83CKLkNzg2jzhzw/LgN5oXzA5hwbW7Xz/FUqqVbqWGMM0BRla9WIRqYB4AJIBnQYAflCElhdgBZGHy7hkbpM2B8AHD254J3kH3eu3v37oENGjQgfFSlwsSy1h3WKMrBP/zww1ZFWOZQSvnPvLw8wlzeiPEMeAAhxhMei8NNnDgxvqio6CwhxIq0tDR91KhRh6s0RuP41GfYtm0b5ZclaUqfk9D8P2oTY28feDMsQCyCzsY3GBloajxSFjvSHNVA6Y6nQ3wbil4tsiyceK94n3in5XXSi8blevvwZiDWMwBzBQvEO6MYMHQyqqMj4k57aANmiPcFRgGAYNckAJgA8IQiAAh2sApABpzXWbx48edXXnklIS5nE7FYX7vlyGzZskW76667WLesDqqBQOD6BQsWhNPkKubnezQf0AMIR+HdHTVqVKu4uLh36tSp056shXr1cGaiM6h8xsv75ptvWmWd69evX/r9998XL1u2jGI5xJad6n+ofBYe6FYnRY4XhmAKT5PYtiqSwnMJEMAjgi1Q3RG5CLxjQgTE9/mOszNgdC7U24s3A9UzA3jwpCnyrvDcq2qJhOTQEQAA7GEzmBvqQmDsAdqE7eyDsANCUwAEoTl7qAtR5Nj69evf/MMPP1yckpLCdvbS1NUzA/8rCmd1lgUkJCcnm1LKL0pKSs5/6qmnnILXajvHY+HAHkA4yu7yDTfckLh///7fCSGephnUZZe5aaQqftGAg5UrV1r9Htq2bauNGDFCrl27Vt5yyy179+/fj8HGu7EPmALCAtDvLGTOF5xFD2BBahxxeDUAArAPCNlYFO3eA/QsMWPU4oQjEF55w5uB2j4D6ETQT/COoINQhcjQmZDpQJoqLIE9XEfmD4wD74HVYMk2CYQpCB9QQAqxsL2wGSE+AMUz33zzzUkdO3Ycoet69ERKUbgTgIRvvvlGmzlzJuJqruvD3NxcBL/eiNEMeAAhRhMdq8OgPUDtXbdu3RaAA5owRWsQE/zggw+s2CCsBGmTZEbQGOof//iHNm3aNARpiAudTZaIHZP+BlOA12IfhA1Q87MIItiy6xGgPgAVqMaJQdoFX6ojJPFcAATV+rzhzUBtnQHeETQ7aC5g1RSbRtYEIADjTxaKXZwJ0wAzgMjUqUng/eBdU8WsnDoYwHifU0455flBgwaNiI+P706PhEaNGml9+vTRTj75ZOvfwXLvMZtTwgvff/+91Rb6q6++shrZ/fzz/+QhUspSIcTbubm5gBtvxGAGPIAQg0mO1SHS09MTkpOTz9N1/TnYg/T09KgJE0lBWrdunfXDS9y7d2/N5/NZXSkZGzZsKJkxY0bx4sWLSWRGW+Dsj4AyGoU0qnU8GvtAoIanQxMj0ibJAlCDhZMsA2Kp6BwQJ6pBiEItjLAXbj0bYjX93nG8GajoDPD8k1qIKBGxr0rFJMUPRo4+FugP7KWU0fcAxtH3wB7Y0zc5D94j3jn2RzaQPbTAOzMhPj7+9ksvvXRYQkLCBUKIBN5rOsrSZZYf/q06wgIWOnfurHXp0sViDhs2bFhp8LBr1y4rXEklxU2bNlnt5zkux6QtPSFMG0BBV3GHaZor8vPzncWfKjrv3vfKmQEPIBxFj0hGRgbNmD5LS0trDjiIFnugdAe0fCa00LNnT+2aa66xWkKrUVpaKvPy8kpvueWWA3v27MGgO7MaCBkQRyVFC0/IritgN8RSScUCcUCv2usGAAQQbLFIwBbYFwg+AxzgIXFcZy75UXSHvUs5CmdApdOS5gkYULUXAAuAZoA2LIG9pgHTAKtAsSnqHRCes2d1EH4jrAdwIB3SXnESbQ9/X75s2bLjGzZseIHf76+zY8cO7csvv7QyCBjO1vOqTT0ePW3gMdysC4QBqIRIyeRgZ8Yj2tGzL7YBfPAdvq/2TS8GvgsDyW+2sXWsBdBsCgQCDxmG8ZoQIpCQkLAzOzvbLb31KHwsasYleQChZtyHaJyFyMjI6GgYxre0cB49WnX8rdyueWGh/F599VUL4QMOxo8ffwQ4UEcoKCiQDz30kLzrrrsw1hh5Z2EfEAVNZKA/EU85PX5SzvB8UFwTb7WzEIpJII+fDAa7xwRI4FjkqQMWQvVaqNxkeN/2ZiD6M4DGhnoUPPfUe8DQk+pKfQbqhRBicz7PFKFCnwMgRhxsTw2llgbvFhk+ZC3YU1gBI7w7Z06ePHlVenp6fyEEOh7LwOO58xsA8OKLL2q//PILRv1nKWWhEIJUUdc29Rh2h3H/zSypz8toWb+bEstSymcMw6AgFsDCn5SUtMcDBdF/6MLdowcQwp2pGr4dVRP9fv+i1NTU4eeff77WpEmoNO2yL4QXGIS/d+9e7euvv9Y2btyoEV5g4Tj++OM1UibbtKGlgvv48ccfi++5557SRx99lLRFPB97SIAvEWOl4BFCLIy5s4YBOyeUQFEiqvPZqVEWTNgHtAgUaLLncwMgCF2wX2fBnRp+97zTO0ZngOwehIS8B4TeVBMm0njpY4GnDztgfwfINECjwPaACrvwkAwEWDgVenP2HOE445s3bz5t8eLFg5KTk9mX1TXWPlgDAAvPP/+8tnPnzoAQwuf3+z80DOPwuxoXF5dmmmYrKWV7KWUrXdcp6Q7wry9sKIB/B1vNA1SoIbLZNM3NcXFx35WWlh5+f2EI4uPji1JSUgoeeeSRUH1QjtHHpPou2wMI1Tf3UT0y4QVd17cmJSXFjx1LXZTwgACGHxHQhg0brNoGsATQgCB+aD9F/RFzHDp0qHbuueeWGXuUUsqXXnrJP2XKlENffPEFLADG3v7CqxRGvCBSH9nmiPUp2PKWzAYq/iHOUoPvUoWORZBiMdTdtxeigYGgSAwFZKBrPU1CeQ+C93lVzABAFiqfqopWSUCXATggY4Hnn5RGVdCLl5ey04TUqMppB9AYYMS60Oy8A87qpTzzUIcACMS+9u8qQWP+iy++eGqTJk3oHhlSwYyN379/P7VOtF27dv0qhBiSk5NzOFtISimuueYaqzU9EYnU1NQ4wzD0wsLCIyowUr01EAiYRUVFEhCQmppaumfPntIlS5b4hRBuxa6q4n54+6zgDHgAoYITV5O+NnDgwLg2bdqcZRjGm3j3F1xwgcUCqBghDMCuX3dp27/frv3www8WO0D8DyqRbfg3QIHfQSoQuu8/Qgjinjfy9x49emg33XSTBR7KG4CM2bNnyzvuuKNQSkkVRWhS+8DTgUJFmEUM1Z7eyHYsOlSNQ9WN10MnQTVYgKhdj9AKFgEtgx2AQM8CEtAyEIulxr03vBmI1QzQC4Nnk5oDMADOypCcB2WWER3Sj8Fe9ZD3AeBMGIC0RKcnTbVEioixf9WyWl0X+h50CWQu0NvCDpwBFoQbWsyaNStw9tlnk04JmC5zsBYgIESbUFRU9J2U8sL8/Pz15X3P+/zomQEPIBwF9zIrK6u+aZr/FkIMRhCE4Y+LizssGuJF5+/8KBAQBAIY8DW6rrOYrRBCWGWNQfw0GBJCLJBSpnTv3l27/vrrLYVxuAOP4b777tNmzJiBsBCAQLzUPtgZHo8q4uIULRLvZMGjWQ0sBN6UHSRQWQ7wQaVF0irtiylaB45HVTjq7zsbJYV7Gd523gxEMgPk6PM8UlEUBsxNUMfzTGiA7QDHypDbPX/0O84SzTS3ou054TOyfOxhB7IVVO8SALU97MD5Aw6yLr300mU333xzt7i4OMSNYa39OA7Lli3Tfv31V4oVPSKlnJmfn+9sUBXJHHnb1qIZCOshqUXXc0ye6lVXXdUsPj5+uxDCHk/khYYBoLLal1LK1bquAwa2BQEAQEIWFxeXxsfHlxQUFPiXLl1qFWAZPXp0L13XUT/36tSpk5aZmVmm7iDUpP/666+7p0yZUjpnzhyofhYwgIh9UESJxZDmN2Q92Jv/sB0gAsEVXe1InbR/nx4BLHRQrXhiAAz7okp9fwAGAjA8M7emQcfk8+JddNRngPeO3HzYABpbAQ6cRpqD0m0R4EroDNCrnldaQvMeAHTR7dizDvgemgTCETALGHs7KwETAADnb4AHp6ARED2pYcOG05ctW9Y/KSmJc/iN7qCsGcGZWLJkCSChWNf1Qe3atfto+vTpbs3Hoj6x3g6rdwY8gFC98x+VoxMPHDNmzG/qKZNVEBQ+BRo0aFDasmXLQHkvdnp6enJycvLlQoi58fHxRt++fbVx48b9JnUpnBNHj7B69eqtN954o//jjz9GVQ1IQKhkH4QE8KhgAFjgnJ8TJ2VRhRZF3Gjvv0C44fggpUo3QwrG2EEC3yX2yoJNtTlnh7twLsPbxpuBsmYAIIqBJ2SAqBZD7zTwfJ8SymTaoKkBBKjnlAqJgFx6HPN8O5kDtAJsj14Hxs0ZduBvdLAEJCBctMf10Tnw3f/8+9//PvG4446jPHmFSikTlkSPsHv37oNCiH65ublkE3njKJ8BDyAc5Tc40svz+XznQJEGAoGkk046SZs8ebIVsqjoME3TnDNnzp5bb721tKCgAA8LRsC5yBFXZaFDL0D81K1rIWIu1fJ5le18AAlUj6RLHZ4Z1Rjt3hveUtdgOhi54bQpdmZOVPTyvO8d2zNAsSJ0AbBU6AIQBrp1DyU0gDYApossHPX8UxMEnQKFjHg2ne8FYTTSgtEbAECc+4Z1o802okTSHe0lmFsHQxgdZ86cqQ8ePJhwW4W7NMIiUAeFwkaBQGBlIBDw5efnezVHjvLn3wMIR/kNjuTyMjMzewghMMRnUDGNegdNm5KVWLkRCATkvffee2jq1KkYZjwsGAP74DkkjMBiiCcFjer0wlBHAgJI4ULJbU+f5PsUWgIgkB5JuqMqVctx+ByGBS8MQSQLuVMBXrmL9L59rM0ABpcwHC8IOpePQgBPQAAMAQABlkuFB2AGAAs8k4hpncaf55wQGYPn3QkeYMVgHAghoGWwg16ed9iKrEmTJm3IyMhoqus6mRWVHgsWLCC7wTQMY2h8fPy72dnZbiLMSh/H20HNmAEPINSM+1DtZ5Genk6q0vlSyufi4uP0Pr37aBMmTKhQaMHtYgKBQAmd2WbOnMkzhzfEomkfqqIcCx+xVoy8c9GEygAksChTZc4ZMoDuJf2RSoswEk4PB5DBgsyihufleUDV/uTVyhNA+4LXz3OGoQeMOmPyaGSI9wN68fRpNqY8fEooAw7YB1kLTiNL0yT+TnEivu8so4ymhtAB7wnMhZMRg4WbdN555z115513tjcMgyqNUVnrETk/88wzhBpKhBA9c3JyvCyhWvkIh3fSUXlowjuUt1VNnoHRo0cP0HV9hZQyvmvXrtqtt95a6VrrzusNBAK72O/s2bMx1Cx85Ho7QQKULSlb6BVYAO20Kduy8EKnnhDcztnumZACHe8QOF4bzEW3H4PPWVSpYAdrQfU6b3gzEM4MAGL7BHUwPHe0MncLV/HsoUtAXMizbC+FDKDA41diRufzzbvBd3i+AcHOJksUUCKk8HqQjXOCC4DxTV26dHny8ccf75KSkkL4I6rrPN1cKaDm9/tXGoYxat68eV4L5nCenlq4TVQfnFp4/d4pU1pt/PhmJSUlfxBC/LlVq1ZWtcQTT6QUfPRHYWHh1xMmTNAXLVqEOJEF0FkDgWeSBZDuj4AF4rbOgipsw9/xjAABVG20Dz6n+AxdIBGBObMj+Py0oF4BJgFdgkeVRv92H017xOgjNCSsQIoiRtyt0A8VPQk5kHp4taZp9pRAtAiqrgfPvttzTX0QQAjhBadgF9DAu0GmAqJEZ0M0CizdaRjGJ+ecc06rq6666syuXbsK9APRHPRUyM3N1Q4cOIAT0aegoOAzlQEVzeN4+6r+GfAAQvXfg2o/gzFjxgwwTRPhkdWtbepUIgBVN37++ecVI0eOjF+1apWiUKmI6BxoFX4fXIhhDNxWObQKKLMnBBXczn2gpyB7YZimaatDXBGFX1Bks6g7qdyqmwRvz7VpBtpqmpYb7I1A++X3Q5w8BbwQ4SIGxHO3D4ojIUgEIBACcBt0O0UkjLbAyWw1C6ZGwjDArjnTGQEVfxVC1Bk8eHCDVq1adUFcPGDAAKsLY7QHxdCoj0B2Q1xcXOe5c+dujPYxvP1V/wx4AKH670G1nkFmZmYXIQRphOfSa+EPf/hDRAWRKnryn3/++QsjRoxI2rFjB+JB4qnEY50gAJ0C1RTx1hB4OelYDo9HBYtAiVoKyDj3AXgA8QA2XnURe7EPQh14ezS6QTEeXZeropPkfa+6Z4CQwklBBoo6Ghhht2eQdZQKiqQ5wlYRvlKDkJiqnMizSiquc3AcACrhBzdtDWwbITnKjAMODpc8Du4I8DBLCDHiiSee0Jo1a1bv1VdfNfDwe/TsoZ3c8+TDbdmjNaGwEvRq+Omnn6i++qAQ4p6cnBxaT3vjKJoBDyAcRTezApdC/YSzYQ+gDU8++WTtxhth9mMzVqxY8coVV1yRvGeP1eaehY9QgYprH/kAACAASURBVNM4o9Jm8SQNDC/OLY0M0RYLKwJHqtg5wwV4dpRrpoYCXhw9bZ3HIdWSPHL0CQtdUi1jMyneUWrCDLAuUo2TOgKAVBgswl1uA+NOOIGwA9tRAInBPigEBvCkSiIg19m4jO0Q3qJVOC/4DDsLeiG85dkGvAIwPnCcBKGPBwzDmDhr1qy9kydPpgJpnezsbO2dd96xSq4PGjRIQ1ekqqmqVs2VnWgYCkIN+/btQ8zcJScnBxbBA9eVndga9H0PINSgmxHrU8nKyuoupaSfwUloDm677baoZS2Eey3PPvvsGz6fL+XAgQOUpUVg9a6LIpx4K0wCXhRMglsJ2zOCqWRoGkh3xJuxL1Ys5FDDeFuoyym/7FYNDpBAR8mBQYGYVzMh3Jt5dGyHx09lT9JtYQsIT9FG3DlYOzHepDGSpgiyVqEHnjXSCnlmuwXZLbfwFQAChosSzYBbq9S5bfA5f0dMSyYEXUztA3AxKy4u7qbp06dvmzJlCoXBeL4tMJCTk6O9++67Vn8VfiibnJKSYoURed8bN258uBeLvV0z/VlUQ0Z7e2a7lkHtE7HiBx98oBUXF9OrYUBeXp5TN3F0PBXH6FV4AOEYvfHTp0/XN23aNEAI8SY9Fs4880xLnFgdY/HixSvGjh2bWlxcTK43IIFaBk4qlzABCy7pYQgUnQCAUyd3HO+fEtPsB32BEwRQyQ5vDToXdTnHdHo9CBgp3UzogWNBcXieUXU8HLE7JmshVD6aFmoIkJYIM+U2VMMw2AKeOfQGitkCYJwaNOgU/KKSp5sYkbodMAcUQwJgOLMV0DHAmilwAHC1D7QI9wEOpkyZsnHatGkpQogjah189dVX2r///W9t06bDTU2p0gjg5fwBF0YgENABDrABdevWtUADPw0bNdTS0tK0pMSkw2CBFtBoD2AMdu7cqe3YsYPyy6oxnNR1vVfbtm3XlFetNXa31DtSZWfAAwiVncFa+v0xY8Z0NU0TT7v7CSecoP35z+iiqm2Y+fn5b0ycOLFOcXExz6RqPOP03sk4YNHEeFMnAc/OjQUgzMDCC7WLV+cEGwAECteQaob+gjQtt/2QLgm1S+tePCO3+vrVNmnegaM2AxhbKg/ioVOgi5CBW0Mink3SZMmOodgWqYYYeTX4jNRHKobymRvAwDgjekSQiLdPEyZnUS+YCf4OOIA9czIHhBHuiY+Pn3zttdeuvf/++1MSExMpOf6bMXfuXItFYOi6fu3BgwfzkpOTT5BSXqLrOu8BbIm9VCrXyDnyw7/tNgKgY/1IKU0hhP2d2YEWoaioaOHSpUvdSk1H7WZ5O4rdDHgAIXZzXWOOBHuwdevWs9AeQDmidL7iCruuqnpOdd68ecsnTpxYNxAIEFcl3grN6wQJUL54bqi40QsQs3ULAxAPJsURWgTvy8kUsMjCVJBJQeEaCr646RuomMf3YSNQsMNOuG1XPZPmHbUyM4C3T9EtBK4YbMJXxPvdhtqWVEfCAhhwnh8G6ygeP88Rz6QqKe7cDwACdgqQC7tAA6aDto0Ui8HfET3CgjkzJggj3JWQkPDH66+//ucZM2bEp6WlNS9rEubNm6dCDRj2zKKiosUh0hLRJDX2+/2tDcNoZZpmQ8MwmpimGS8E2ZJyt67rpFbCdmzZsmXL9pUrV3ohuMo8gTX8ux5AqOE3qCpOLyMjo5NhGBQhGkjmwu230yix+obf77eoy0WLFml5eXkvrF69ul5paSnxV7wnOjg6DTKCQhgAejBQhvatEHUM1ELOtZJKiTjRySYQsqCoDfoGshzwHN3YBPLSWbhJY2NfbtXzqm8SvSNHMgOse3RBxOsmlIC4DpbIrRYG28Iw9AhW8YRtIqSgwgYYfZ5HQAbMg3oenefDPgC3aAlIuUV4ax947NRQoA4CugXAgbNSKMD59sTExFuuueaa/dOnT49r0KBBo/IuHJ3A008/rX37LY1dtedM05yan5/vtUAvb+K8z6NbYcubz5o/A7AH33333em6rr+bmJio9enTx+rWWB0DIVVxcbH2/vvva6+99pr2yy+/WPHMvXv35i1fvrxxYWGhagNN+WRnLXoABJ4abXZJYSRc4NyGy6KhDnQwqnSEZOgOnIaAbQgnQO1eEjQYbtoE9gdfS1YE9CwsBkDB0ydUxwMU+TGVh47W4PlgtU3uY6gcflgDQCiAgGcHUArYVAMWik6K1Nv4r6ZpGSGyX9jusqDRp4AXwkP74DiEOAANhB0IsVHG2T543v+UmJj4x3HjxhVMmzYtrmnTpoCcsAahBt4z3jlqo9WtW3fBI4884va+hLU/b6NjYwY8BuHYuM+HrzJYNfFOIcTvO3bsqN1xxx2WUY71KCoq0n7++Wft2Wef1T799FOKrWgJCQla+/btSbc0d+3a9a/rr7++xYEDB1R6F2mKzla4nDYggfgIiytAgvinm8FmYaZM7VWaplEmF2rXyRSw+A+3MRehNA4I0/AC0SQgdiSrwiuyFOuHKLLj4WkDAClSRG0DjLRbTQL2ijdPPwQqFyJq3RoECSq2zgvD/tAbwEABNq5xOR2V6kgdBGg6qjA6iyTBLNDbgRAHYQdqglh5v7bBed+SnJx869VXX71vxowZesuWLa1shXAHWQeABDIOTNMslFJmdOjQ4XlPUBjuDB6b23kA4Ri77z6fjxjoJ6QvEV6ItTgRxqCgoMAqsvLWW29Z/R4ABrAZ/fv3t86Jio6Mn3766b4xY8a02bt37zlSSrIYyFBwS3Fk8UUQhicHECBG6hYbhSrBE6RhExoFOFfndiy8hDWge/EuAQnEXd1AB0wCYQk8UI5PKMRN3HaMPWU15nIx5GQL4H1TwfCUIMXvLO+tTpj1EG+fgkRoDPoG+ybYt8egk6XAM8ezQsVPAIJzIPyDfVA9PwgtOGsYoCegciJhhS+CBb2cIBigcktqaupt48aN80+ZMkU0bdoUwBDx+OSTT6zqh2QfSCnvj4uL+7vXRyHiaTymvuABhGPodt9www2J+/btO1cI8VzLli216667TmvdGmaz6gcpUoWFhRqNXggn8G+YC35OPfVUrXv37haL4BwlJSX3XnXVVe137NhxgZRS9W5wyyY4PUjN/hr00qho50ahUrkREIFxJ8uB4jXszwkA0BwQV6ZPA8Vy6PzoxmBwyhgMvFGEjKRiAhQAKW5ahqqfbO8IGFA8fEAe9xEWijSdJWVMDQ8f9S/QIlCci2qFiA7VPVSsAc8Zqa+IBwkbuAlWMfxsR3Ek2AC0K84qg4gaKcQEkwHAcBMCERa7rU6dOn+aNGmS//bbbxf16tVj3xUeFFBatWqVFWoQQmQWFBQ8vXTpUk90W+EZPbq/6AGEo/v+HnF1GRkZxxuGAQ1/AlT+tGmq6FvVTQICxIMHD2pr1qzRXn31Ve3HH3+0WAMYgzZt2mg9e/a08q7LGfePHj2646ZNm4YHAgEWUqrWQcc6jToiLhZv4sIsynj3oUIOiA3JciCsQLYERWqcbALvBylmZDIgPsMDpBRzqHK7lOKl3C7aBJgKwhgABS/WW94djs7nPEh43IhOCTlxn3gOSHsNNQgn4OmTeghDBQMEewAwZPAMYJQJA1CvAHaBbAfSY51DFU8i7ASzgK6F0IFzcI40VmJ/sBMIEp0DIPvnevXq/Xny5MmlFDFLSkr6LYKOcN54F5988knrfZRSfiClvCk/Px9djje8GXB9oL1pOQZmQEopfD5fbyHE6tTUVG3w4MHapZcSGq2aATCgFvyGDRu05cuXa5s3bz7MGDRo0EDr3bu31qFDByWaKvckpJTzb7755nqfffbZ6SUlJTRpQnhIbQI35TntdBEbQusSTggVcsDLxKvEcyRE8HXQ03N6/sSi0UAgCoMyRslOXNot7ICRgJaBUcDrBIWxXzxJUiS9Ed0ZwHiTqspckz5IJgHgEe8e1ifUABiQHohAFR0L3+c3YSo1FKtAqAHtALoTNCwHXHaqaikADkiHxfA725lzDASSpN6yDc8xoS77sISUuq7fWr9+/dtvvfVW87bbbqMIUdSEQmQ0vP322xaLJ6Wc0KhRo4WzZ8/2ahdE97k8KvbmMQhHxW0s/yJGjRpVNz4+fqyUcnbbtm2tjo1ulH75eyp7C0IJAANSqpa/ulzb+O1GgIEkjxpvrFWrVgJw0Lx5manbrgcRQrwxe/bsHS+88EL3wsLCtcG0M0IJbosb9LCqUIc47OMyQgTU2admPmwBwAODHqrnA/vkvaFCHoYIoOA22AYAgrcJYCA1EjDCfgEYHq1buYcNsMb8oqmB3SHmj/iUwkVlte7mvqAd4AEkdAR7QD0DQkNqAB7YP2JGtAuElua4tCZX26NxAJhMDgJBWC5n2WS0DTBRPDddg/USnB1GAQHN4uPj/9i4cePJt956q3bzzZAZ0R+PP/649tFHHwHQfxVCXJWTk0NhJy8bJ/pTXav36AGEWn37wj/5rKysE0zTpOBPCwDCjBk419EbiA8pwfrNN99YjMG2bdsIJQAM0AQg9KsnpWzTr18/A4CghIgVOIOt77333tMzZszoun//fhb3B4K57PaCM/aFGw+NxRuql2ZNxILdtAGEJ9AmkBvPtrTbxQN1CydQDIfUNzxJhI8IJwk9hBp4uegZoL0JP6B8h/1QRWe8hTm8B4H1inLCaAzw5C8KZhygM4ApcrtXas98F6aBMAQGHONPkS1SE9XzoLIOqEOAh09GC/Q7Hr/bvmEYKLSE0JDUREIZbt3OOF+2oS4HdY8R3HLv7QMA0SEtLe2mtm3bXjN58mRt7FgemaoZpDwiFKZkshAC0DvP68ZYNXNdm/fqAYTafPfCP3eRmZl5shDiszp16mjDhw/XRoyACa3cIHWKmCbA4Ouvv9ZeeeUVbffu3Sw4LLjUB/jeNM0FhmHkSClvEUJMARycdhpOX8WHlPLQ1q1bp44fP77nwYMHqZ1PkSNCACy6bsYfNEQFPPQXLOIYhlC6AMrbEhPmczxT8tGJS7sZcShpKt7BJGD88TTxHEOJE/FMOwSpZwwV3SuJe3Ms5otUSQ8s/PbRgL6nGBEsAV46egAAHEAOAFre4LvE9BG5AgCpmgljZDf6HINQEoJTmAWyCjiWs7uiOhaAknsPwAC0EE5wah1U3QXCHeyLEuFulRoBEKc3btz4pj59+pxPR1Xe0aoec+bMsViE0tLSUiHEpe3bt3/JS3us6lmvXfv3AELtul8VOtusrKyk0tLSiwzDeLpVq1baXXfdZaUWVnSgLwAU0Kb5448/trISggNqd6eUcquu6wsLCgqeRCGdlZXVzzTN6e3atRsOQGjShDIClRscd9OmTbfPnz+/y759+wZLKTHWAAA8NLdsA+hd2AaMC+pyBIcYl1BeJws5oALamo6XpES6NYjiHSKW3D/IJGAIyIog9TFU1gMXD6tAZT1VNGeFrVU1QOfncr5fuQmsXd8mRIM2AAoe9oYMgrLCCFwd25Kpgmc+MxhSIHSEONAO4GAB2I6iXAhceX6ofUDDJrfB9oQnyFIg24HCWdRAcN5r7i/7BInT8ZF9I651DtIwL2vSpMkfr7zyyuNhDtq142tVP6iwmJ+fT81kQP2sQCDw9wULFlBt1BveDFgz4AGEY+BBGD16dBshBIvTAADCX/+KgD+yAVtA/QIYAmjJN954Q1u7dq0FNKSURUIIFhaMYl5ubi4G9bAn7PP5/iil/GufPn0SqdwYrOYW2QnYtuZcXn75ZW3r1q0UVnrsiy++2LNixYozDx48CNUPUMDYuoUc2AueHq2cqXUAoFAdHUOdD1kJUM5cEyEKPFcYA+eAHaCiY1bQOEE5Y2wIJZRXREkp768NGj68VhTwfFfVVigLzFR4LmvJF1mnwmVWmEsyDfgNEwBAIJvF6bkDIGATMPboCwBlHzm0CM7pITUR1oCQA1Y8N/jj3I5jE1IgjZb7BiNFaMk5Gum6fk2TJk1uv+6669LIVKCzaiwHaY9BFoGQ4MiDBw++FKJPQyxPyztWDZkBDyDUkBtRlafh8/kwcF8iSqTewE03kfkV3qBHwq5duyzhIe1jSVXkb0HRIYsqC9860zSfyM/PhzI/YqSnpxvJyckszjN69epllXau7ACgvPfee1bKJLUcevfu/dn69evnnXPOOWf98ssvGH9ivNC9GGa3gkmIxEhDIz8emhrBI9cRqvEMCz5eJZoH0iIBFZTWdcaRuTQMD5QyinpAAymU5LmjV3BLpXROBxbibE3TAAsYId5RBGTsh33gOWN0uLayGIrKTnNt+z5hBCVaxKPnXiIwBNjZB/eE+0+Ih46ggEqAHMyCWxEuvqtCHDy8hJ1WBe+Pc/4JgaBJQJ8CS0WfB7f6BrAQzRISEq6tV6/enddee23UNUHh3ryffvpJe+KJJzTYBCHEP0tLS/+2cOFCNEPe8GbAYxCOgWcA/UF3IcRa6g2MGTNG69YNvBB6kIlAn3dAAUYY0SHeejAsQbz8RynlDiHEe6WlpY+UtaCMGjWqVVxc3NRGjRpNJLxA/YXKDkIa3333nZWFccMNN1i1FIJx/Fu7det2yrffftvf7/djUOnPQPZCqDbN0NUUxiGrAC8SDzJU1USOgVGhRTapajALqNARJ5JG6RwYIqhrwhoYLow67AWpjhwPdqC8wfGIcQM4MCp4w/wGoLxiS+MDNJBGyTFgTsoS65V3zNr0OfOqtAkAqs5BI09GAiEhO+vAvNECHC0CWS3ME/eB9NZQ6afcQ45BmiMaE0IThJNgn5wDEAm7QPYMOhNCCm4VFmEhuqWlpY1v1KjRBIqEjRw5UjvnnHOseiDUB4n1gEUgZEfoUEo5ctu2bS97XRpjfRdq5vE8BqFm3peondV5552X2Lhx42G6rr9A1cS7777bKlTkHLACNEtSYYTXX39dW79+vQIFGByMDyl9KPsX5+bmLguH9vX5fBStuadnz56dYQ8qm1pZWlqqcW7UVRg0eJB2wfkX2AstYRD+NXXq1G0PP/zwWfv370epTkdI6HpEgG6Gk3Q2whKU4cWAAyjKCzvwHTxTjA2dJBVbYbXLcxmwAijYVU9tPFDmD8POfLoBDDfAAR0+MlgCmtg1bAUGh99fBXUVxNntgAijhqeLd8xvUkIJW/CDl81Pbar4SHVBgIBqlIROhIHRRhPg1CawPc8Bv6llwHNAOAxg4BYqUvNO6mLvYNEtdATcM7ecQ1gDsiPoy8DnZArBGriFuBrGx8ePaNy48aTu3bv3pQ5IsBaBRmYRIIFS402bNo1pfxTee9IegyzCY/Hx8TOffPJJj0WI2ipce3fkAYTae+/COvMxY8Y0CQQCiA4mHHfccdrMmei1NEsHAENA+ECBAwwvi0TQi8HYsoCi4ofOflvX9ez58+eXF08/4rwyMzNJQbsP9qBfv36VSW+09kuY4/PPP7fOHbU3HpjLWBsIBB5s3br10J9++qmvlJL6AyzcMASh2AQMLzn00M+kfUE7o2Qvq989hp+COBgIwBNAAyMcKksCZEZ8nPADx2EQliFGjmEjzIFXG268HSEccXSaUCGStBeXwHBhFDGk3EdEj9w7Fn6yMjCUzAVhC8CC2zE5p1AMSVjPX5Q2UkwB1wsLQIliro9rIpxEuMcJcih+RXVE6CXKLBPeoRQ28bWyKlsSToBiY175Ht+hVwLz5RzML+EgxRqQJmvv9qi2B8A1bdKkSVazZs2mDBs2LPWKK66w3jXeOaXJAfyedNJJ2rnnnqu1aNHCAgr0TInFoLri6tWrFYtwflFR0WueFiEWM1+zjxGbp69mz8FRfXZjx47tEAgEXpNSdiR74Pe//73FErAYUeWQhkn79+9XTAGLLBQ7xhHF/heBQODxBQsWsABXZIisrKw/maZ5L6mNffvC1FZ8sFj+5z//IXtBa9SokTZhwgSta1dlZ3+zX4zb7aNHj5bLli0bUFhYiBeJWAyhYagKjOwEceEZwSY/dNbDsCBMLMvLxvDzPUo8828U8BgvwJWbOI3jYOAwXoARAAbvIl4qYAGDDe0N6AgltixvImE3MHQYVEIdZAIQsgj1zitaCaCgwALAAtADAxPLwdxwvswLoQHyYkln5e+AGuYXXYaTLQAMMad4/2gK0JjAfBFuur+cC8CIExrggaKWAcAJjYJbOMGqWRAMT5G1AvhEZ+Pst8AhCT10a9OmzZWnnXbaTZdcconWuTMEiGaF8WigtGnTJuYbAMJ9Pw4RLsAXRgGQwHtb1UCBzqqwCLxbZDQIIWbn5OSEw2zF8rnwjhXjGfAAQownPNaHGz169IlCiK90XReUWKYOAvQ8LAGLjpSSHGiMGZ4ii+I6KeXcvLw8jGKlRlZWVn0p5e316te7rXev3ocXxoruFKbjzTfftNKyLrvsMm3QoEEa11TOwDjMa9as2ZCdO3dCNyBI5G+EBtz6ObA7jBLGAW8fA03MmvBBWTUO+B5GBjoaA8O7RcMfwg94rF+GEDXyPdXyl8o4pGMqg4HhAazBYmBAVGfJ8q65Ip9jfAEJGN1YhxwUTQ8oYC7QeMCKUJeAeYTxeDKYUuhWgRKmAINNhUQYK/QYXAcAz1mt0Dk3qhdDj2BvDkovkwWDwNFtW8JLZCigC+G8yYShWqbbaNK0adPLmjVrdl3//v27Z2VlHRHe4/0jjPfGG2+U6rq+VEr5oRCCzAd0FVaDEoS9AwYMOAwU3MKDFbnZbt957LHHrNbrpaWlASnl0Ly8PMB0uGxWtE7D208NmgEPINSgm1EVpwJA0HWduLQaLP77hRCbpJQWzWyaJgvBU/n5+VFtVTxmzJjTA4HA3SeccMKQPn37aGmpFepSe/jESavkh+JMiBNZPMMceJ1/mjZt2s4HH3zwkoKCAiorksVAJ0dKNYfKBsD7Q7yIJwv1TxlmUjmdAjjnafBescATzyETAaMH/QxdjZeJXqCs2vd8l5K8tJvGCAEQYD3QRsBKcA8Bc5xTbctmAHxhZMkIQUfB/2E7uJl4/4Asrg82BaEfoMgNsDCvgAK+T0VFvsucAgjQnZTXIIt7REgG0IhQle/zPJCl4DZAooRxqKNBkSXqH1DDwu04hELad+rU6Ypu3brddeGFFwpCB27jv//9r/bOO+9glHNSU1NvOHjwYMsgSKBSEgCVubKe9dNPP90CCs2aNdPi43ksojtwHObNm2dVQQXYJyQkZM+dO9frHxLdaa5Ve/MAQq26XZGf7NixY48PBAIU+9kspfxFCIFn9a0QYnFOTg6CvCobWVlZ9H4gvNCU8ALUaUUGnhZaCVpFk5bFAkkZ2hNPPDHS3cEc5LVt2/bU77//vqeUEsMP9YzhxfCHKr7DIo16nRQ2aFeqH/Ibg1LeYCVnsUcFj/HjGIAFhHIANMI3oXQR7FuBDeLcCOE4F6UPAXDwfUVtY6xY0PnBi0aYGGs2QM0H+gyYAKpioSEAJKlSxhg+LCZASIU2uAcINwFPofpUAApgWAAFpBIiLGXuuBcAPliv8h4yzgF9AscHHBBOYg4JFbiJWAkn8KCxLSJE7jlFm0IxEw0pCNauXbsrunTp8juyhsoKD+zdu9fy2r/99tvVgUBgWn5+PiEmjdRkgIKUksqeXHNDwoKkKZ9xxhla8xbNtRbNW4TDoJX3fB7x+SOPPGJ1egwEAgeEEMNycnIAat44RmfAAwhH+Y3PyMhoYRjGZNM0n8nPz0ekV94CGrUZyczMvFVKOQvvp3///hUqkITKG0EixVy2b/+fsJo4Lt0o09IqxEjgjd++evXqr4cOHXrVgQMHiNEDDhAyUl0RrzyUUcXgoYTH6GGkoKEJQVDZrywxo5pTYuMUUsK48e5hwClDCTtAuAMDFw6LgzeLxwsNj5HEiLE/mBCMpUqjBCg4jR4AheOqrAZABT8YZba1axAUQGHf/AB28I4x9gAA/q1+nN0GMf6wBBhjfitmgH3CghA+IczjFrdX8wWDg3EkdMD3MZZ48Jwr1wm7A7AIJ62T80eTAX2PVgSAQPgGDYgbIOH+ErogdRE2h2Nwvm5tnjnfpAYNGnRu27btiBNPPHHqRRddlBxOSi/ggTLlb775Zomu64/k5uYiYD08AApSygwhBEAG8UJzgAIFz8466yzrNxoFmIXKZghx0M8++0yj2yOaBPqHmKa5JD8/vywAG7X1wttRzZsBDyDUvHty1JwRAME0zVkIrqBHIxk0c0LERb0D1N6EFRiwENdff300Ci6hCZgN2HjppZeG+v1+FJTUygck0N0P7z4UmMIgU98A44fxmh2k/DFW4Rh4LgXjR7wZdgEvmmMB4MiAwIhj5DFgbq2F3aZS5ewDGPB2ESbCNtjfcYwsx2Ey+YGS5wcDAEhQwEhdtx0s8BkAgfMGmQEMACr8BvhwHLuhZn/oWj4Pet38uzzaH+BBXwMYBvaLJgEDDTBjENqh+Ra9FMIBBXyHa8a4MheEIviNlgStghuoYx7RIQAilPfOPSF1MdT5N+rcufOFp5xyyhVt2rQ5F31MJAOAQPtlBKGFhYU3UJ7c+f2srKx2UkoaVJE1AVCATTEAGLxfp5xyila3bl0r+6Fhw4aVSpO8//77LdBimiZ6pFH5+fm8K944BmfAAwjH4E2P1SUDEAzDsAACaY7hDBY88rIBB1988QWeDFTnF0IIjEXrevXqaePGjdN69EBTFpWBAPGtTp06tdu8efNppmmyAPM3dBtoM/DCy2JdqJiHpgEj9l5Q08B3COuU1y9AXQAGlvABlgXjy3uJ+h46G6CAIQN4qJTTirJAGF0ADQZQ/Sb+zw/nDysACFCMBAaRa8BgASLIcOE3TIUqIc15ca58Fu71qusm9ICOAC0AHjvgAzqfFEPmgP2RrQC7U1YBK7cHAaCBroFrIaOBc2Y+Q9UZBxgQQuL+A7IABwhayXwJVRMg9YQTTujRt29fRIvTRmeOjquIzgZvnRTDH374YXkgEPjzggULX132CwAAIABJREFUOK7rSE9PT0tOTr5U1/XzpJQwHAg56wOoU1JSrFRiailQsplQHOxCpHqFF198UVuxYoWV3SSEuCghIWF5dnZ2pPc2Ki+nt5PqnQEPIFTv/B+1R09PT09ISUm5NS0t7R5SHMtIR7TmAGBAnweaQH355ZcIpQJUf8Sjl1Iu0nX9JinlFcOGD7PyxBs2sLRb0RosfqSpfdGoUaN+u3fvxkhBeajsBdy7shgF3iMQEKI1PFbEdwjs8P7xvghhhDuUeO7SoOeLV600B4AWUh/x5lWPBmWoy/POwz1+VWwHAML4EmoAFCiFHZ4wIQPqCXD+sALcc7QIhFsiNUqAAZggwhswAPwbrQf7c5ZcVtcJMAAsIVQkBAHLAOtB+CKUziCubdu2rdu3b39+165dx/Tv3/80lbpYkcmjDgLP/Pvvv49G6P6cnJzyUjKtw4wePbqXEIJCZF2EEAAtwjHJhCDIUoJVQLOQlJRkAYbmzZtb7EJ5oQgqKt53330Wc4cw1zCMO+bPnx8qXbcil+x9p5bMgAcQasmNqm2nSYEm0zTvaN68+R9gD4iVug2AAaAAsRYpX6QwmqaJ+A7DOqewsHBlUlISC+EDUsoz6b2AnqGKBt46raHXpaWlnVVQUIDxgp6G1kbIRviBhbIsDx4vnLg2GgE8c7z+N4IGEA+2IgstgAOWgh+ElQyMJ4FiAALgRWViYGQJH+DVqx/+X5ViRdYRvH+0GRhbQABshVpfMNhQ4ni8gAH0D7AigByySCgbTTglUkDAPGDguU8YSOabipWqE6YSoLo9LnwPVgogCDAgPZW0VEppu9U+sHBs3bp1G9StW/fczp07D2jduvXESZOo6ly5wTtAATBEuEKIh3Nzc8NvlkIVpxtuSDxw4MAwKSXalmZSyg5CCMAXwEyjdDp1Q04++WQr1Vh1ciVFmL/DygEg7CmUFE5C93Po0CFpGEb/+fPnl5cuWrlJ8L5dI2fAAwg18rbU/pPKyMjoFBcXd2f79u19lFhu0AAb9//DDgzQGVCgpaSkhNgwXvKCwsLC/yxdutQSHmRmZk4TQtxgmmYjFmRo1CoehAfIu/8yJSXljKKiImL6/EB3oxOgwiI/ZQEFDBCGhyp8GC6MJLFsFloMJIYxnH4MoS6VUAQCSxoIwXhgeBVwIIMB0MBvqHmOB4XvFBKqfQMeMM6q7DLXpYSJXAff5ee3Nbr//+xU6iJMAeEK9sH+1BwhKoQdUBkjlWE8uA7CAIACGBZCM+ghuGZAHmmOXHsoYMC88QPrAwDkXi4N1sdw/VLXrl3TevfuffpFF13UZ+HChXempaUlQt9TEbGy3Uk5IO/ABx98gNZmvt/v/+OiRYtCnX+Zj356enpySkoK7c/PFUIA1ABtx0spWwghuIdWtUTeP4SNnTp10tq0aWO9n4ZhWBoffkh1/PDDDy3wTodLwzAWzJs3L1w9TBW/nt7uYzUDHkCI1UwfY8fJzMw8RQgx/fgTjr+IFMfUlP8VNGJhgi0gnEADKIDBoUOH6EfAIv0sPSOc5ZyzsrJypJQ+WIiMjAzthBMIu8ZkoEGgKdPHiYmJ3UpKSqjmhzCRVRPaGoNEUZ3yMhig1KGwESVCgwMYAAsqpQ86HcakvP2Ec9G800w23jEThVgRzQHHtAyEY6g1QGUy8H+AAL+Vcef8McQMNyaCvwHmiNWr1EuYEvQKFdVLOM8TYwdTAEPBHHIvYGvI/oApocQx4DIUU8K1Dwl+n7LaACqEk08HM0lc53bgwIFJPXv27Dlu3LjT16xZM+niiy/uRPXDnJwcK8aPyDUag+qmlBD/4osvPjZNc3p+fj4puZUeWVlZnU3TPF8IQdYGrA7PgWJzAJlHgD60DAAeftAuwCpIKf9rGMYl8+fPt9dTqfS5eTuo+TPgAYSaf49q5RlSJMk0zbu7des2BIAArQko4Id0RTymkpKSregMpJQrDMN43i3OGfSIiOdf9bvf/U4bMmSIVQ0yxmPZuHHj/nPo0KF1S5YsKfX7/bACyoN/KEjvo1MA6JQ3MLTQ2jRuYh/84C2Sb46nj6dNDByjF4thZwhUx0gAgWIAAA4AF0IXsayyCD1O2WOoctVuGWUqc8S5YNxzg7/LCp8Q20JwCJggHgAYI7WSxlyAUteBhqZXr149rrjiin4bNmy4ZPDgwYOU2A9QO23aNCuef+aZZ1oeeGUHwBkdwsqVKwt0XX8wNzd3WmX36fb9iRMntiguLoaC66PrOmyPxSpJKROklHWEEGlCCCuF1TRNPisWQuyVUl4fjeqqVXFN3j6rbgY8gFB1c3tM7zkjI+N0wzBmnHDiCed07NDRSlOEtkRjIKUklEC89634+Pjny+ochxBL1/X7TdMceO2110acLhmNm4BnN3v2bNiP1/r167f0tNNO2zR06NA1+/fvp5QvHhm9AgAIhA2If5MvH6o6o/2UMMgYQASJ0OUYa4wfegcqJGKYAQywC4jtjuZBDArGQ4UN+D86Djx9WALmBUaHVNTyqG7mFVAAOGAfw4IADNBFdcuQ9P2cOXPiW7Ro0X3AgAH9169ff+Gpp5463JkFQMXB6dOnW5Q8XRgRzVZ2ABDWrVtnVVXUdf3vubm5bp0jK3uYkN+fOHFiysGDB5sYhtFE1/V6Qog6pmnGSSkPJCQk/BAIBDbm5OSE80xX2Tl6O479DHgAIfZzfkwc0efznSalnN6kaZMRQhOkKwZ0Xf9KSrlOCLHSNM0XwyntTDdIIcQfSktLmyNQpIpcLMePP/6oPfTQQ1YlR+jW4cOH4zF+LoR43DRNDM1Lp59+Oi2Hoa8BCyjJ8WwJQ0DJRlKcCq8Z9T37wkAqwEDmAsDDKpMdzOPHg65QnDqW8xfiWBh9ChZR74A5w1MlDAJYwnsFAAAI8PZpFMXvcMIvhCDQikCl086ZkAdhIMoi55V13V999VVCnTp1+jVt2rTH9u3bz+vYsSOCP9exc+dObf78+VatAOL4l19+eVR0CGQNoEMoKCh4MjEx8Zbs7GxLAOANbwaqawY8gFBdM3+UHzfYRfJOBGRSys+EEHjBb5mmuTySymw+nw+x4Jj69evrNLtBiR2rUVxcrC1cuNBatFGCc2wyKPAcgwOjTcGkXwOBwJtnnHEGFDwKdAR7xHwxdHi80PSEDWBNIonJoyVAhAhoIEWQgReHJwxQUB4d+4dpIMShqjJGcpyqmlIAD1kXgAHOX5VbVlUWAUEqowFAgH6BUsOqQVU45wVDQL0DWAN6V7BvtB1oIqh6WGbYR0qZum/fvhEpKSktioqKLq9bt265KTI8Cx9//LH2xBNPWBkAhBnatWtXaZBA3QEqGa5fv/5dIcRdOTk5MCbe8Gag2mbAAwjVNvVH94HHjh1bx+/3o6RGLf5KXl4eMfaIjZbP5yPFkFxz7aKLLrIqxcVq0Fr6ueeeQ0RpCSMHDhx4RCqYOg8hBNUI6eiH8HDzpEmT3vz0008pfIQXSjyfwj8UT6K8MMacSoAwC5Eq+WEUMICENDCKFBhiAEyIqwNIVMlkdXrMOX/jM86B7WAeABiq3HK4VQnZpyq3jPGHCeB8yFoAFKGnsGdK8H/i3AgLAQcck3PhnAABzAGgKZKW1uyH7AMyRJTwkIeCDAmuA0DGPIfUJUgp9QMHDnROTU09R9f1+sXFxTcmJSVxjmEPNDToEACLVDCkUiiixTC6i5Z5DIqDvfvuu7/Scjk3N3dW2CfkbejNQBXMgAcQqmBSvV1aM6CerYhBgZq/0aNHpxqGkS2lvHrUqFHa2WefbRWAicWgrfTixYutlDDAAa2lyxtCCNM0zbXffPPN/Ndff724pKTkzaeffhoPlvoF5NlDfQMWmBNy7TGMaA0wlIQRKjowmhhJWAuEfPxbzT+fcVwMJscFTKhqiByff0cCEFQfBoAAN4OQgPob568KHvFv9gvLAhgAPPE7UlDEftASIKwDbHA8gv4ckxAOoQf6WVBLocwwBGxBIBA4zzCMln6/v1dcXBw9Diq0BiqAoIoOUcWwQ4cOVr2Pjh07VohNUDoEyi7HxcU9lJOTQz0Nb3gzUG0zUKGXo9rO1jvwMTUDGRkZPQ3DeNA0zXOuueaamOkP3njjDSu0QMoXCnV0B+GWqyU9DLHZBx98AKuwODc3Fw+ZcsRvCCHwoEl3hArHuOJ9I4En/IKxw3iTHkitgGiJEjGo5MLDNlCoCE8Zah+vP1RdhPKeMwy/YiIIbXB9/AAGlKCwvH2U9TmAAJaE37AEpGrCmBA+4QcWAkCAMLTM4kqwBcHyyVbhKinlGCEEaX6VGj/88IP26KOPUh4Z0e12IcSHUsrf1a9fn+wHqwBR48aNI+5gCoPw/vvv873Zubm5dJj0hjcD1TYDHkCotqn3DlzeDPh8vjFSyjv8fn8nBIp0r6vq8e6772q5ubkWc0DxGJgDqONwHU1ABR7ghg0brHDE/Pnz8dwRy9FPgN8U8lkphIDup1YBYQjEenjEGC6oe2LoiBAxxIQDoM8R6gE6jraBSJFwAcWeyF/FoDMfAARACA2aAAQAJ/QJzEOZjIeUknVtYLBuAgCD8snoOKI2yMqBZVq2bBnPxtuBQGCMruukv/ZJSEg447jjjrOYBLIcVOXCcA5Opg99GXbt2jW/pKTktsWLFyOy9IY3A9UyAx5AqJZp9w4azgz4fD5K5U6SUqbAIETaETKcY9i3+fTTTy1wgFgMxoCMiS5dukTUGQ+AQLObHTt2WN+bNw8JxeGBYSOU8HwQLOB1I0jjbzAK6DWokaA8Z7x9QAOeORQ94QCVyYDhRMtAiCKSEEGk0xKt7QFACBZhAwAACDBZf9AuAAZgU5gHfgAEACOVOlpuWIJnJAgKABowI4CCKkt5gSkii+GBBx4AIFAdc2QgEDig6zqhkCzTNIfWqVOnGc8PFRcJP4QDMmlvTlrtunXr3jdN8678/Hz0FN7wZqBaZsADCNUy7d5Bw5kBn89HdbzxULWZmZnR7OD4m8NTC/+pp56yKGMW/46dOmoDBwyMyPtjpzTKefrppw+DDJTuIQaGHrocrxhjj2DQavcshCA7Ac+X8AP6BXQLDASChAswpqqjIoyE0hdgSAEd7Je/828o/1gNRIvoHwA4gAHOU1Vg5DchDgACxhxGwN4CmjnA0MIQ/KbdsdsFfPLJJx0fffTRwYFAoEHDhg3rzJo164K4uDhCCWWVhI7aXHzzzTfa3XffDZjcBNOVl5dHVUZt/PjxrUpKSi4VQkB5jahfv34iQAFGqn379mUCBaVDeO+99wB+9+bm5tJK3BveDFTLDHgAoVqm3TtoODOgAALtoi+++GKtdWsY+egPKuMtXbpUY8GHAWAMGjxI69ypc0TsgQII+fn5GimSdNF7/PHHwz1hBIPk61NsCaYAD5rmUOuFEEp8B0DAAFNhkKJCgAUGBhHjzP/ZBsBA1gIAAZrebdjFiqpxkj0DgrUBTxzDzj75N2JHPH/+77Z2oGsgnRGAwLaAHsAKOgXFAnAM2gQSNuF32MV3Vq1a1UpKCcNC2qRhGEaXp5566oLdu3dThlnceeedYXvq4d6UsrazAYSDUsrFeXl5E23bi6ysrONN07xaCEHfiPMaNGhgEHaoX7++lRZJ6IG+B/ZBWGrNmjVkMpiGYdDZ8c/ROFdvH94MVGQGPIBQkVnzvhOTGVAAYcSIEdqwYcOsdLJoD2K+z7/wvLZu7TpLd6Bp2guapg0dNHhQckUBAmEFgAbn+/DDD1fklLEa1DqAYkePoIw5pYHXCiHwLo+wK0GAgOHES4d5sIymbSMYCdIOESiqlET1OUJGBujIbrEAHgAD/o4hVw2cADAwE+goKOajUhfV4QAchEWomMkPbEa5YQL7BS1ZsiS5bdu2aBMofNFUSmlIKdsIIc6WUnYUQlgCS4oLrVhBOwzNqlOBViVWmS48O9zfXbt2MWdv5Obmktp6xBg4cGBcmzZtugshqJbZU0o5vF69evEwCZQMR6sAQ2Zv+ARAeO+998hkACDQQtwb3gxUywx4AKFapt07aHkzkJ6ebqSkpMDPjyG8QIpjeX3sy9un8/Pvv/9ee/nll63iNBS/0TTt71JKsg1yzjrrrEYnnnhixAwCIINWuQyU7A8++GCkpxVqexgGAAIFlwAISotAcSFAxE82psFtHwAEvH/AAeABoADiwtNHHIgGwt6xEaPHMQAHiCM5PkZesRsAA1VXAQBT4XTWm2++ueFll112vGEY3aWUpDLG6brOeZG2eaqUEi1GyLAB94/CRYCyoUOHaldffbVrvYpo3Qi1nz179mgvvPCC9tZbVNbW3srNzR0c6hjTp0+P27hxYw/DMBCldjVN89zExMQGsGI8J6RJImgENNCTgeJcfr//wfbt2982ffr0qmzVHe1p8fZ3FM2ABxCOopt5NF1Kenp6w5SUlH9pmnblhAkTop7iiPf3yiuvWOCAQkiaps1OTEy8+9ChQ52klMv79u3buGfPnhGDEgBCdna2BSwQp82aVWW1bjDIePEIFS2AgASipLRErv5wdcHcuXO3t2zZcsvFF1+8Wdf1X3v16lVmOmBVPjvBVEOyFQg9IFCE4ah/1113GZs3bxYtW7ZsMGzYsOPT0tJgDAADEaVfMtcrV660RIOEdmjBTFGtcESBlblu7jXPz2OPPUao4O1t27YNWblyZXkloUVmZmZnwzCGSSl51mBETk5LSxOk1FJo6ddff9Uo8V1cXPxkSUnJ7V4mQ2XukvfdysyABxAqM3ved6tsBjIyMo7XdZ1OiecDEChnG61Bm2nAAWpxwIEQguP8JScnZ29GRkYnwzDe79atW1OqN4Zb/0CdG0Zjzpw5FrBo3ry5du+990brtMPaz/fbv5fPP/d8wUcffbSjQ4cO284///wtpmnu1nX9CICwa9cu/2effbZ/48aNe4cMGbI/IyMDrQKsAGyBav2MsbN7r6wXsAyq/TOhCVgIjL/6zb/x/u0eP//m76rsMmKSelOnTjW4F506dbIyVCrTpfNgwUHt+eeet8ShzP3111+vnXIKof+qHf/973/VPf7Y7/dfuWjRIopBhTXGjRvX0O/3o6mguFVzIcQA0zS76bpuoEUwTXOFrutT58+fj3jTG94MxHwGPIAQ8yn3DhjODGRmZvYXQtxXWlp69sSJE60QQzQGCzqFkNauXauYgwf9fv9fFy1aZDU+ysrKqi+lXN+mTZvm0NWR5LDz/eoGCB999JHFYDC6desWMjW0qKjIv2bNmgNr1qzZP3z48AOXX375fsMwVH8H4i0ACjeAgHevAAJAAF0D4IAwhfpxAgTXW0cGAALRPn36aCeddJIl6qzMoLrh66+/bsXzEQHefPPNVq+Eqhw8TzNmzLAyGYQQU3Jycp6qyPHGjBnTxDTN/lLK44UQCEMJtSQJIZ7Nycmh6qY3vBmI+Qx4ACHmU+4dMJwZyMzMHCGEuLukpORUaiAMGEC2X+UGoAADwqIe1Bw84Pf7ZypwwN6D2odt9erVa3nppZdGLHgDIJDaiAdYxSGG30xGUVGRVbxnyZIlVslfGBDOwW1Av8OgEOvu27evdskll1iMRyzHX//6V+3bb7+1BKgYdFsTrAqdBmDun//85+FMFOpYjB07ttL7LetkKIgF0ElMTISBmZubm3tLhU7e9iWewaSkpEZSylZxcXG7c3JySAf1hjcDMZ8BDyDEfMq9A4YzAz6fb5SmaVMOHTp04rXXXltpgIAhxHhu2bLFqlUgpbw/Pj7+vrlz5yK0O2L4fL4fqNePODJSr9YuUmzYsKHVKjpWA+CzYMECDdqevHsMrzONTp0LAIH4OfOCSO53v/ud1YwqVoN7cN9991lZCIATqlVWdhAOovxxaWkpZapbcO1UwqQLaFUNzh+dyaFDh0qFEC/l5uZeXFXH8vbrzUCsZ8ADCLGece94Yc1AVlbWWCnl7YgGKwsQXn31VUtpvnPnTrzLUl3X6e9wf15eHqmEvxkABL/f3xLtQ3KyygAM67Qt8KHSHImpP/LII+F9MQpbrVq1yjKQpFcisOzRg9B26IH3zncOHDigXXjhhdpll10WhbMIbxcI8ZgbABuiQkBKKDAT3h41i7VB/+H3+6k+uEEIMYn7MWTIkCoDCRTW4n4T3tA07XW3VMdwz9/bzpuBmjYDHkCoaXfEOx9rBjIzM8cLIQAIHSoDEF566SUNgIARJEVPSolL/49Q4ICNAAiHDh1qyXEjZRAwSHl5eZa+IcJCSZW684AfrvWdd96x6HrYgPLADf0EKC9NFcnzzz/fAgiVpfnDvQiaEsF2UJL6yiuvtEIhlQUIZDAw96WlpY9IKR/QdX2upmlDuCfnnnuulpGREe7phb3d3r17rXkndOUBhLCnzduwlsyABxBqyY061k6zsgABoRo1DshWKCgoIFMB2vmRuLi4OW5hBfv8+ny+bYFAoDUAIdLaC3YGge+qmghVff8oroP3DDBR7antxXfcjq/CDB9++KFVZIhqlYCLWIxnn33WEotSS+Dyyy+Piv7hp59/0l54/gVYomvat2//5KZNm/pqmjZfCGGVqgYEcaxoDkAJ80cPDw8gRHNmvX3VhBnwAEJNuAveOfxmBjIzM8dqmnZ7SUlJxCEG1WkP5oB/CyE+FkLQNekpUhnLm+6srKyVpmmeMWHChLhI0hwxyHTiQ/zHCHZzLO9wlf6cBj9KnNiyZUtLnBiO4FAJFTFwsB0jR460PO1YjL///e8aLAKACjFoNDQIiFAJmZSWlp6Vn5//PsWbsrKyLpRSUrmqKSJGQALXGa3BPaewEVoTKeWb27ZtGx5GLYRoHd7bjzcDVToDHkCo0un1dl7RGcjMzLxa07Q7S0pKIhIpqrg6hhpwoGnav/EiCwsL3166dKn1h/KGz+e7S9O0P1162aUpTRo3CavgDvQ4IkFK5CJU5P8u3RzLO3SFPl+/fj1tpbWff/7ZajE8fPjwsPezfft27aOPP9J2/LDDMpwY61iM6dOnWymOzBHHDJVtEcm5LF++3NI0FBQUNF26dOnhctRZWVlXSinnkI5JIaLzzjtPo3x3tAaZDAguNU17zzTNS/Pz8+mB4Q1vBmr9DHgAodbfwqPzAjIyMs41DGNGSUlJ73DTHIkDU3IXIxEsgPQPTdNyCgoKvl66dGlYHQKZTZ/PR/vh13r06NGQFMBwwgxUvqOa3969e/1CiMellDfQEwDavyoH5YU/XPWhNufxOZaxpegQ9RvCHaWBUu2zTz+ztAjUmiDMQNfBqh7UDiADAJaFlEzSWCvbawP9AeGkwsLCRPv9llIKsmK4L5Sb5jgIF6m2GI0BQJg5cybXAnU0ITc3l4Zb3vBmoNbPgAcQav0tPDovYPTo0b2EEH8zTXMwhZLOOovOuaEHNfGh2fft24f3blJkKS4u7rFWrVrtiLSWfXp6enJKSsqW5OTkpldddVW5tRCoP0A448cff/RLKa81TXMD1RjxVv/1L6pFV93YvHmztnDRQm3jtzRG1Kz0RgBCefoDdUaEGT755BMrjt60aVMLIESzamWoK8eg0g1RSrnLNM26PXr0SOjVq5fVk6CigwwOrscJENjf9OnT9S1btoySUj4uhEhJS0uzhJzRYExgcO655x6Kav1X07Q/5+TkPFfRa/C+581ATZoBDyDUpLvhncvhGbj66qvbxsfH0zxpZFmllkmXe/vtt600RsrsBsWI/zJN84nKUL0+n++nQCDQDHBSVjVFPHi6CW7evDkgpbxx27Zt2a1atWpiGMYOAMLs2bMjrsYY7mNAGAPPn+JANFWSUgbat2+fQKvqpMTwqxISloF5AVwRZohmjN7tWnbt2mUBJ8CNlPI2IcT4xMTELlD/aCcq0kMBJoK0SX67AQTOI1iA6Gpd1x+lAiRgpF+/fmTMhDvlrtuRBUKxpJSUlO1Syll5eXmxy22t1Jl7X/ZmoOwZ8ACC94TUyBnIyspKCsaNM8eNG2d5tU7DgdeLgYTiDeoNXhFCLDYM4+XyMhXKu+isrKw1pml2nzBhgh5KqIgxIkti06ZNppTyjj179jzy4osvFo4aNapuXFzcPtIMp06dqiEcrIpBw6mnn37aSlOUUq4WQqxOSUm5sUfPHtopJ4ffhwAlPiwCokG8aliEqixR/P7772tkMQAUdF0/gw6OUsrZLVq0aEdxJ4BVpCmP3CNARyAQKC4sLKwXKqRE++W2bdteQaorXS0JHwESxo8fX+FbRJMoAEJycvKvPLN5eXlTKrwz74veDNSgGfAAQg26Gd6pHDkDPp8P9fk48vMHDx58mH7Gayf3HEMDg8D/6caoadrCwsJC9AY0HKrU8Pl8tyOSHDZsWEr79u1/0z4YsPLaa69ZpYI1TZup6/r9KkNCAQQ0CHinlPytioFq/+GHH+b6d0kpH9N1/Wsp5eLjjz/eCjME5yWsQ8Mg0MehcePGFkAoL6QT1k5DbIQuA0BSUlJCr4ezk5KSPjl06NBdUspJxx13XEPudaSNmwBr9KAoLS39OCEh4Yzs7OyQ3Stpvbxly5aLpZQoCztwL8n8ACSwn0iHCjHExcUhgl2Yl5d3baT78Lb3ZqAmzoAHEGriXfHOyZoBn8/3hKZp4xEKUgoYT5yKdaSy8UNIQdM0mizhDT6Zl5e3g9S2aExfZmbmcUKIdQ0aNGhInNrOIiAGhDlAZCeE+KcQ4q85OTm0W7aGAghsd1qv07RJ102KxikdsQ8q+C1dulSj/oGmaW8FAoGJhmFQr/ihVq1a9cHA169fP+zjklEASABwcb3REvC5nQDxevQHuq6vM01zVH5+/pejR49uo+v6wkAg0O/EE0+Mw2BHokegnsIzzzwDKPpLQUHB3UuXLrVQY6gBSPjuu++G6bpO74RBAAM6Sqanp0fMnpC98re//Q3dB0LY53Nzc6NbbCHsu+ht6M1AdGfAAwjRnU9vb1GcAQUQUNX7fD6r6h5vSyCDAAAQfUlEQVQpeT/9+JMGLS6lfEEIsSQxMfHV7OzsXVE8tAIoO03TbEIWhcpkwNtEkBgsrYvWYVZ+fv42+7HHjh1bJxAIbIbCrqp+DIQDYA/8fv8+KeXcvLy8PwJMDMO4JiEhYVbXrl1DdnJ0m6f/a+9agKMqr/B/7t3Nhl1YlIRMkPIKFEVeFcrDDo44+HYoikYkySabBGMtwyja6khFfEAVQUZUHsMj2UcCTCPWRx1sqxYdwSrWN5b6oCDqoAzaQhPI7r3/3/muuw5mkuzdzRJ2yTkzmSGTe//H9y/znz3nO99BaSa+1cPhmDhposVDOKvfyUmNgKCIS1UIsRTKlnGuSKyDZ9jpdA6FU4hIiN1umm+8+YZ49513cUlPCQaDO+04ijFOAsiw5ZBlxhmPHj3aiiagw6RdQxTpkUcewWcSqaYXQqHQVXbf5ecYgUxGgB2ETD6dbr42v9+/UCl1i6ZpeQMGDEAJofVDRPh2+DDCuUT0WSAQOH4yoPL7/c9LKS8tKSlxxHPyICTGnIPHotHoik2bNu1vPXdNTY27paVlq1LqckQe0q2miOjBli1bLM6AEOJVRA/q6+utG9fv9xdLKUPDhw/PnTZtmm3CHxyfeJoB39wRRUApYLoNXBGIJCH6opSanpubC+fuh3SA3++fqpSq83q9gzE/9BHshP03b95sfTYcDkdeMvyTWHXDQCHE1eBBIOqDag44J3abPIFsCYLkt99afb/+EgwG7QtRpBtgHo8RSCMC7CCkEUweKr0IlJWVTdV1/fdCiPNBWsMlRkQ7lVL1RPTHE8P66Z35+9HKy8snEtFf+/fv78VlhT4H0FiQUj6EnH/ryEF8DTU1Nc7jx4/fSESrQFRcs2ZNWpcHx2DlypXItyO9sj4YDN4Zn8Dn8w3Rdf3Onj173nTeeeeJkSNH2p4bQktwEtANEhEEpBnsaEDYnkAIKzW0detWcejQIeAIxcPXWr/v8/mma5q2pqCgoD9En1CSmMjiGDc3N7tT4KBQaWlpL13XryGidUIgcJEjxo8fj3RRwvmBF+Y/eNDKMrGDkOiw+O9ZgwA7CFlzVN1vobFQPZSGZgshJIiIUsotvXr12rN69WpbqoidQQ0haLfb/Q0R9enXrx90DnCp3SGlrK+vr0dvh/YMwjxFQohPcbkh/AzCYjoMlxF0/8EZQPRA1/XK2tpa6xcYWPqDBw9G3d5GpBnQ7tguWTEuFY020BAvQhQBl2Q6DZUGkKI2DCOqadrUuro6pAN+ZMXFxTlut7tYCLG8sLCwEPLPHTWeilcwGIZhHjt2rFcKDoI1PypnTNOcTkS3E9EkOEcjRowQwBElmO0ZzgTES6TA2EFI56eFxzrVCLCDcKpPgOfvEAG/379RSnmOECIUiUSe27JlCy7mtBAR7UBfUVGB7o9z8a1SKTXX6XRusRPC9vv9ZyilvsPFBg4DmiF11nCBxysXlFKQ810VDAbvbz0ulCCVUkvy8/MvmzBhgkAVhh1DKB+VDPjBv9HYqKOL0c6YrZ9ZsmSJxT8golc0TftVIBDY09Y4Pp/PA14A+nEUFhaeCWlkOFntlT8ijRONRl/3er0XPf744y2prA3vwDnxeDxjpZSXgHwKHODkwVHw+XxtRhMOHDhgpZHgKLCDkCry/F4mIsAOQiaeCq/pBwQqKyvPNU3T0bNnz71dETVoDX1paelPHA7HbjgHpmk+29DQYJVOJLK4g4CcNsL8t912W6JXEv4dUQOU8iGUjQvW4XCUbdiw4YvWL86fP7/H4cOHUdXw6KhRoywJZTtRBLSMRooB+gqwMWPGWKmGoiIEQzpvuNwffvhhAd0AIcQ80zRDHeFZWVnZV0p5s1Jqfr9+/c6As9JW+21wACCzbZrmzU1NTesTVTAk2klMmrkPEV2ulFpGRP0QTUCfC3S7hLrmiQZOCKI6qMxgByERuvz3bEKAHYRsOi1e6ylBwO/3Q+d5VzJkSKRHDMNA+HwUSH+d5SGgtwTy9xs3boRzsJ+Ifh8MBpEvb9MqKyt/Aa5E3759LwAjf+BA8PDat3hnR0QPTNNEx0tyOp29EUVIprdDR3OAmIiLFN+4lVKXFBUVvZxIBtvn8xXouv5rKeX8wsJCL4SUWnMSnn76actpikajAxoaGr5MV4QpJtY1USl1MREtxN4QEUI7bchCx/UtkFpAHwgIdrGDcEr+i/KkJwkBdhBOErA8bPdGIJZHR2piBS60mBxyyqCgcgJljZBDhu6Bw+G4rqNUB0L0COHrur4ckQBcZh1FEY4ePWpFD/bs2QPnA62xf6qUKsN70KBIRztmdJyEkwNnR0o5NRwOv2IHEDgJRHQ9ET1QUFBwBngRqGpBdAaG/D/SL1LKnuFwuMnOmHafQZXD/v378wzDmBrTTJiIeVHVAp4G8IE+Bxw3EFjZQbCLLD+XDQiwg5ANp8RrzEYEqKqqaohpmp/BQViwYEHKksson3vuuefESy+9BG7AByj9DIVCf0sESqwKY7HX671k3LhxVh69PXv//fct7kE0Gn1C07T7pZS3oPGQy+XSZ82aZSlZdtbQEhnpBU3TdhFRdSAQsOo07VhNTU3vSCRyETQfvF5vH1zOEDaKR2ei0WhEStkn3Q5CfG3z5s1zHTlyZJgQAqxNqHb2AT8BOhdIe0A2Gtoc7CDYOU1+JlsQYAchW06K15l1CFRXV/cxDONwZ/X+EZpfsWIFWhlDmvj5Q4cOzdq2bVtCIh66Uno8npuFEI9AAAjqim11eUSL5F1v7RIf7f7oG03TFgUCgbXgfkgpFyulrgGHASWP0CRI1RC9WL58uW3+QVvzIORvGMY4XdefdTqdeejZMH36dKsfRSQS2er1eks7Q1C0szdoXBw/fnwUEcFRWCqE6BUvwY29z2WOdoDkZ7ICAXYQsuKYeJHZiAC+9ba0tPxdCHFOqmkGEAbBX0CJJZoxGYZRVl9f/31vZxtWVlY2TNO0u3Jzc6vGjh3bZtkiogdQIjQNczUR3VtXV3co1tRoiRDiNy6XS7vhhhuskslUDekL6B/ECJaX1tXVvUhESVejIOS/d+/esUS0SSk1PD8/X0OExTCMi4YNG/ZqIk5Dqutv9R6iQz1N0xyulBpBRPcgJcMOQprQ5WEyBgF2EDLmKHghpxsC4CH06NGjkojWer1ei0OQjEUiEUv+GJULQoivlVKPhUIhCEfZNlz0AwcO9AshHh00aJAHYXlIV8etubnZmuPDDz/8lojuCwaDPyyyrKzsbF3XEUW4zpJfnnG16N+/v+25T3wQe4eMs5QScfjLgsHgqykNFHvJ5/ON0DTtWiHEAnAHlVL5oVDocGfGTOVdRBSOHTs2SNM0hFemEdGgQCAAvNkYgaxHgB2ErD9C3kAGI0B+v3+QUurfyJX7yn3i/Mnn214uSG8QWQKBUCm1MxqNzti8eXPSPSdKSkrOdDgc83NychZCXRFVDXHCIlQZQRw0DGNNJBK558TxIRTVo0ePxRAOcrlcTpT3oR10Kob0QkwaOqyUWhQOh9GrolMW29cA8BRRaXCy+Ad2FgmsvF5vbymlp66u7oCdd/gZRiDTEWAHIdNPiNeX1QjU1NTkt7S0fElEOagEAFHPjkH2uLa21iqdI6IPDMOobmho2GXn3bae8fl8kxAhyM3NvQyiTSAtoiIC0YOPP/74ayHEA8FgcFXrdysrKweYpvkQEZVAAwDdDpORb8Z40AkAyx86Dkqpmbm5uX/qqB1zsnuEvPTQoUP3d1F6Idnl8fOMQNYiwA5C1h4dLzwbEIg1blokhLgD7ZfRqCiR4dv97t27rZSEYRhNSqk/fP755zXbt28HSTElAwv/6NGjNUopaCO40S0R7bJ37tyJaMLqSCRy96ZNm9DbobVBNvq3WL+u63klJSUWF8FOA6X4QCeWN0L/IBQKvZjSJvglRoAR6FIE2EHoUrh5sm6IANIMw5RSHyPNMLtktrhgCnSX2jcQE5cuXYqqBTy0y+l0Tt+wYQO+5XfKYqWCt2uatjAvL89qfnXw4EEQHu8LhUL17Q1eXFzcx+PxLFNKVWEPZWVlSbWSRpoEREghBBozzQ2FQtYvbIwAI5DZCLCDkNnnw6s7DRCA0I+maci5u/Pz861yv/YMqQVULUA+mIggzTcnGAzuSBcMfr+/UCl1p6Zpt2JMKeUTHo/nrkQy1hUVFVcR0SIp5YQLL7zQKi+0U/aIro3r16+PyxCXEdHWZBQp07VvHocRYASSR4AdhOQx4zcYgaQQQP0+mgWiRTQqCB588ME2ewpEo1Gr0+HatWtxcTcLIZ5yuVxV6czXQ0LZ5/Odo2na74QQYN8vqqureznRhqCp4Ha70bjqppycHCovLxdTpkxJ9JolQbxjx464euLl4XD4zwlf4gcYAUYgIxBgByEjjoEXcZojgEt5sKZpeyGahPbBbTVv+uKLL8TixYvjinzvxPL1aS/dA+Pe4/GMgzRx7969d9oVF4o1T4KKYClSDXASJk+e3OHRQeAJHSiJaIeu63Nra2vfO83PmrfHCJw2CLCDcNocJW8kkxGIleTVE9GVCM0vW7bsR8sF0x+tkME7IKKPdF2fWVtb+6+Ttad7773X8dVXX1Gy0YmKigq0MrxbCHHupMmTxIxfzmhXQhpNjEBQ/OSTT7Cn2U1NTU81NjZGTtaeeFxGgBFILwLsIKQXTx6NEWgTgVjTn3OklLuh3Y/eBuiUCEM1AVQGt2/fjosUEYPHhgwZsjgTy/Zi6ZJHlVJznE6nDsIiUg3xxkknbh4CT+jvYBgGyhuvDIVC2/jjwQgwAtmDADsI2XNWvNIsRwAEQSnla0Q0tLCw0NJEQG8EfMMGcTEajUohxJsul2vaunXrwEHISIu1sl5FRD44BtXV1W1WNaxcudLiVAghnpZSLgiHw//MyA3xohgBRqBNBNhB4A8GI9BFCCCKsG/fvjFKqXdcLpdAEyREEhYuXGh9yxZCfEhEFwQCgf900ZJSnqa0tHS0ruvIk1yGvcyZM8dSaIzbu++9K55sfFKAV0FE1zY1NT3T2Nhopjwhv8gIMAJdjgA7CF0OOU/YnRGoqqo6yzTN7WjuA8IiLteY3sGnRDQzmRbIpxLHWNOkG4noDiFEESIiPp/vB5VFCEK9/fbbcA4imqbNCAQCL5zK9fLcjAAjkDwC7CAkjxm/wQikjIBSCiWCIzVN++CEQb5TSq0sKip6IBN5B+1tNtaMajkRVRORG90iZ86cKSApvXr1aqt6QSn1gFLqiXA4/E3KoPGLjAAjcEoQYAfhlMDOk3ZnBMrLy/OICJoC5UII5BZeb25uvjgbGf5XXHGFq6CgYANKHzVNo/E/Hy+O/PeIJfSEbpREdE0gEHhGCJF0a+fu/BnhvTMCmYAAOwiZcAq8hu6GAOSXz1ZK7VZKfaJp2s+yWV0QkQS32x0UQtyAHg1KKetHCLFDSnlrOBx+q7sdMO+XETgdEGAH4XQ4Rd5DNiIAJ8GVk5OjZXLFgl1goauwb9++eqXUrBPeuS4QCDxFRBw9sAskP8cIZBAC7CBk0GHwUhiBbEYACo1ut3uzEKJYCIEyzeuDweDz2bwnXjsj0J0RYAehO58+750RSD8CaA/9uBDiH83NzY2NjY3/S/8UPCIjwAh0BQL/BySYFUDMz9TxAAAAAElFTkSuQmCC" vertex="1" parent="3d76a8aef4d5c911-1">
          <mxGeometry x="12.279999999999998" y="14.415495495495495" width="71.71891891891892" height="51.17117117117117" as="geometry" />
        </mxCell>
        <mxCell id="3d76a8aef4d5c911-54" value="" style="html=1;shadow=0;dashed=0;shape=mxgraph.bootstrap.rrect;rSize=5;strokeColor=#dddddd;rounded=0;fontSize=12;align=center;" parent="1" vertex="1">
          <mxGeometry x="860" y="150" width="330" height="800" as="geometry" />
        </mxCell>
        <mxCell id="3d76a8aef4d5c911-56" value="RESERVAR" style="html=1;shadow=0;dashed=0;shape=mxgraph.bootstrap.anchor;fontSize=26;align=left;whiteSpace=wrap;" parent="3d76a8aef4d5c911-54" vertex="1">
          <mxGeometry x="5" y="340" width="300" height="80" as="geometry" />
        </mxCell>
        <mxCell id="3d76a8aef4d5c911-57" value="CANTIDAD DE PERSONAS" style="html=1;shadow=0;dashed=0;shape=mxgraph.bootstrap.anchor;strokeColor=#dddddd;whiteSpace=wrap;align=left;verticalAlign=top;fontSize=14;whiteSpace=wrap;" parent="3d76a8aef4d5c911-54" vertex="1">
          <mxGeometry x="5" y="420" width="185" height="36.52" as="geometry" />
        </mxCell>
        <mxCell id="3d76a8aef4d5c911-58" value="BUSCAR" style="html=1;shadow=0;dashed=0;shape=mxgraph.bootstrap.rrect;rSize=5;fontSize=16;fillColor=#3D8BCD;strokeColor=none;fontColor=#ffffff;whiteSpace=wrap;" parent="3d76a8aef4d5c911-54" vertex="1">
          <mxGeometry y="1" width="300" height="40" relative="1" as="geometry">
            <mxPoint x="15" y="-60" as="offset" />
          </mxGeometry>
        </mxCell>
        <mxCell id="ADrHtXgVLup0wLSR98Vt-62" value="" style="strokeWidth=1;shadow=0;dashed=0;align=center;html=1;shape=mxgraph.mockup.forms.rrect;rSize=5;strokeColor=#999999;fillColor=#ffffff;" vertex="1" parent="3d76a8aef4d5c911-54">
          <mxGeometry x="5" y="10" width="305" height="340" as="geometry" />
        </mxCell>
        <mxCell id="ADrHtXgVLup0wLSR98Vt-63" value="October 2014" style="strokeWidth=1;shadow=0;dashed=0;align=center;html=1;shape=mxgraph.mockup.forms.anchor;fontColor=#999999;" vertex="1" parent="ADrHtXgVLup0wLSR98Vt-62">
          <mxGeometry x="57.1875" y="15.542857142857143" width="190.625" height="38.857142857142854" as="geometry" />
        </mxCell>
        <mxCell id="ADrHtXgVLup0wLSR98Vt-64" value="&lt;" style="strokeWidth=1;shadow=0;dashed=0;align=center;html=1;shape=mxgraph.mockup.forms.rrect;rSize=4;strokeColor=#999999;fontColor=#008cff;fontSize=19;fontStyle=1;" vertex="1" parent="ADrHtXgVLup0wLSR98Vt-62">
          <mxGeometry x="15.25" y="15.542857142857143" width="47.65625" height="38.857142857142854" as="geometry" />
        </mxCell>
        <mxCell id="ADrHtXgVLup0wLSR98Vt-65" value="&gt;" style="strokeWidth=1;shadow=0;dashed=0;align=center;html=1;shape=mxgraph.mockup.forms.rrect;rSize=4;strokeColor=#999999;fontColor=#008cff;fontSize=19;fontStyle=1;" vertex="1" parent="ADrHtXgVLup0wLSR98Vt-62">
          <mxGeometry x="242.09375" y="15.542857142857143" width="47.65625" height="38.857142857142854" as="geometry" />
        </mxCell>
        <mxCell id="ADrHtXgVLup0wLSR98Vt-66" value="Mo" style="strokeWidth=1;shadow=0;dashed=0;align=center;html=1;shape=mxgraph.mockup.forms.anchor;fontColor=#999999;" vertex="1" parent="ADrHtXgVLup0wLSR98Vt-62">
          <mxGeometry x="19.0625" y="54.4" width="38.125" height="38.857142857142854" as="geometry" />
        </mxCell>
        <mxCell id="ADrHtXgVLup0wLSR98Vt-67" value="Tu" style="strokeWidth=1;shadow=0;dashed=0;align=center;html=1;shape=mxgraph.mockup.forms.anchor;fontColor=#999999;" vertex="1" parent="ADrHtXgVLup0wLSR98Vt-62">
          <mxGeometry x="57.1875" y="54.4" width="38.125" height="38.857142857142854" as="geometry" />
        </mxCell>
        <mxCell id="ADrHtXgVLup0wLSR98Vt-68" value="We" style="strokeWidth=1;shadow=0;dashed=0;align=center;html=1;shape=mxgraph.mockup.forms.anchor;fontColor=#999999;" vertex="1" parent="ADrHtXgVLup0wLSR98Vt-62">
          <mxGeometry x="95.3125" y="54.4" width="38.125" height="38.857142857142854" as="geometry" />
        </mxCell>
        <mxCell id="ADrHtXgVLup0wLSR98Vt-69" value="Th" style="strokeWidth=1;shadow=0;dashed=0;align=center;html=1;shape=mxgraph.mockup.forms.anchor;fontColor=#999999;" vertex="1" parent="ADrHtXgVLup0wLSR98Vt-62">
          <mxGeometry x="133.4375" y="54.4" width="38.125" height="38.857142857142854" as="geometry" />
        </mxCell>
        <mxCell id="ADrHtXgVLup0wLSR98Vt-70" value="Fr" style="strokeWidth=1;shadow=0;dashed=0;align=center;html=1;shape=mxgraph.mockup.forms.anchor;fontColor=#999999;" vertex="1" parent="ADrHtXgVLup0wLSR98Vt-62">
          <mxGeometry x="171.5625" y="54.4" width="38.125" height="38.857142857142854" as="geometry" />
        </mxCell>
        <mxCell id="ADrHtXgVLup0wLSR98Vt-71" value="Sa" style="strokeWidth=1;shadow=0;dashed=0;align=center;html=1;shape=mxgraph.mockup.forms.anchor;fontColor=#999999;" vertex="1" parent="ADrHtXgVLup0wLSR98Vt-62">
          <mxGeometry x="209.6875" y="54.4" width="38.125" height="38.857142857142854" as="geometry" />
        </mxCell>
        <mxCell id="ADrHtXgVLup0wLSR98Vt-72" value="Su" style="strokeWidth=1;shadow=0;dashed=0;align=center;html=1;shape=mxgraph.mockup.forms.anchor;fontColor=#999999;" vertex="1" parent="ADrHtXgVLup0wLSR98Vt-62">
          <mxGeometry x="247.8125" y="54.4" width="38.125" height="38.857142857142854" as="geometry" />
        </mxCell>
        <mxCell id="ADrHtXgVLup0wLSR98Vt-73" value="1" style="strokeWidth=1;shadow=0;dashed=0;align=center;html=1;shape=mxgraph.mockup.forms.rrect;rSize=0;strokeColor=#999999;fontColor=#999999;" vertex="1" parent="ADrHtXgVLup0wLSR98Vt-62">
          <mxGeometry x="19.0625" y="93.25714285714285" width="38.125" height="38.857142857142854" as="geometry" />
        </mxCell>
        <mxCell id="ADrHtXgVLup0wLSR98Vt-74" value="2" style="strokeWidth=1;shadow=0;dashed=0;align=center;html=1;shape=mxgraph.mockup.forms.rrect;rSize=0;strokeColor=#999999;fontColor=#999999;" vertex="1" parent="ADrHtXgVLup0wLSR98Vt-62">
          <mxGeometry x="57.1875" y="93.25714285714285" width="38.125" height="38.857142857142854" as="geometry" />
        </mxCell>
        <mxCell id="ADrHtXgVLup0wLSR98Vt-75" value="3" style="strokeWidth=1;shadow=0;dashed=0;align=center;html=1;shape=mxgraph.mockup.forms.rrect;rSize=0;strokeColor=#999999;fontColor=#999999;" vertex="1" parent="ADrHtXgVLup0wLSR98Vt-62">
          <mxGeometry x="95.3125" y="93.25714285714285" width="38.125" height="38.857142857142854" as="geometry" />
        </mxCell>
        <mxCell id="ADrHtXgVLup0wLSR98Vt-76" value="4" style="strokeWidth=1;shadow=0;dashed=0;align=center;html=1;shape=mxgraph.mockup.forms.rrect;rSize=0;strokeColor=#999999;fontColor=#999999;" vertex="1" parent="ADrHtXgVLup0wLSR98Vt-62">
          <mxGeometry x="133.4375" y="93.25714285714285" width="38.125" height="38.857142857142854" as="geometry" />
        </mxCell>
        <mxCell id="ADrHtXgVLup0wLSR98Vt-77" value="5" style="strokeWidth=1;shadow=0;dashed=0;align=center;html=1;shape=mxgraph.mockup.forms.rrect;rSize=0;strokeColor=#999999;fontColor=#999999;" vertex="1" parent="ADrHtXgVLup0wLSR98Vt-62">
          <mxGeometry x="171.5625" y="93.25714285714285" width="38.125" height="38.857142857142854" as="geometry" />
        </mxCell>
        <mxCell id="ADrHtXgVLup0wLSR98Vt-78" value="6" style="strokeWidth=1;shadow=0;dashed=0;align=center;html=1;shape=mxgraph.mockup.forms.rrect;rSize=0;strokeColor=#999999;fontColor=#999999;" vertex="1" parent="ADrHtXgVLup0wLSR98Vt-62">
          <mxGeometry x="209.6875" y="93.25714285714285" width="38.125" height="38.857142857142854" as="geometry" />
        </mxCell>
        <mxCell id="ADrHtXgVLup0wLSR98Vt-79" value="7" style="strokeWidth=1;shadow=0;dashed=0;align=center;html=1;shape=mxgraph.mockup.forms.rrect;rSize=0;strokeColor=#999999;fontColor=#999999;" vertex="1" parent="ADrHtXgVLup0wLSR98Vt-62">
          <mxGeometry x="247.8125" y="93.25714285714285" width="38.125" height="38.857142857142854" as="geometry" />
        </mxCell>
        <mxCell id="ADrHtXgVLup0wLSR98Vt-80" value="8" style="strokeWidth=1;shadow=0;dashed=0;align=center;html=1;shape=mxgraph.mockup.forms.rrect;rSize=0;strokeColor=#999999;fontColor=#999999;" vertex="1" parent="ADrHtXgVLup0wLSR98Vt-62">
          <mxGeometry x="19.0625" y="132.1142857142857" width="38.125" height="38.857142857142854" as="geometry" />
        </mxCell>
        <mxCell id="ADrHtXgVLup0wLSR98Vt-81" value="9" style="strokeWidth=1;shadow=0;dashed=0;align=center;html=1;shape=mxgraph.mockup.forms.rrect;rSize=0;strokeColor=#999999;fontColor=#999999;" vertex="1" parent="ADrHtXgVLup0wLSR98Vt-62">
          <mxGeometry x="57.1875" y="132.1142857142857" width="38.125" height="38.857142857142854" as="geometry" />
        </mxCell>
        <mxCell id="ADrHtXgVLup0wLSR98Vt-82" value="10" style="strokeWidth=1;shadow=0;dashed=0;align=center;html=1;shape=mxgraph.mockup.forms.rrect;rSize=0;strokeColor=#999999;fontColor=#999999;" vertex="1" parent="ADrHtXgVLup0wLSR98Vt-62">
          <mxGeometry x="95.3125" y="132.1142857142857" width="38.125" height="38.857142857142854" as="geometry" />
        </mxCell>
        <mxCell id="ADrHtXgVLup0wLSR98Vt-83" value="11" style="strokeWidth=1;shadow=0;dashed=0;align=center;html=1;shape=mxgraph.mockup.forms.rrect;rSize=0;strokeColor=#999999;fontColor=#999999;" vertex="1" parent="ADrHtXgVLup0wLSR98Vt-62">
          <mxGeometry x="133.4375" y="132.1142857142857" width="38.125" height="38.857142857142854" as="geometry" />
        </mxCell>
        <mxCell id="ADrHtXgVLup0wLSR98Vt-84" value="12" style="strokeWidth=1;shadow=0;dashed=0;align=center;html=1;shape=mxgraph.mockup.forms.rrect;rSize=0;strokeColor=#999999;fontColor=#999999;" vertex="1" parent="ADrHtXgVLup0wLSR98Vt-62">
          <mxGeometry x="171.5625" y="132.1142857142857" width="38.125" height="38.857142857142854" as="geometry" />
        </mxCell>
        <mxCell id="ADrHtXgVLup0wLSR98Vt-85" value="13" style="strokeWidth=1;shadow=0;dashed=0;align=center;html=1;shape=mxgraph.mockup.forms.rrect;rSize=0;strokeColor=#999999;fontColor=#999999;" vertex="1" parent="ADrHtXgVLup0wLSR98Vt-62">
          <mxGeometry x="209.6875" y="132.1142857142857" width="38.125" height="38.857142857142854" as="geometry" />
        </mxCell>
        <mxCell id="ADrHtXgVLup0wLSR98Vt-86" value="14" style="strokeWidth=1;shadow=0;dashed=0;align=center;html=1;shape=mxgraph.mockup.forms.rrect;rSize=0;strokeColor=#999999;fontColor=#999999;" vertex="1" parent="ADrHtXgVLup0wLSR98Vt-62">
          <mxGeometry x="247.8125" y="132.1142857142857" width="38.125" height="38.857142857142854" as="geometry" />
        </mxCell>
        <mxCell id="ADrHtXgVLup0wLSR98Vt-87" value="15" style="strokeWidth=1;shadow=0;dashed=0;align=center;html=1;shape=mxgraph.mockup.forms.rrect;rSize=0;strokeColor=#999999;fontColor=#999999;" vertex="1" parent="ADrHtXgVLup0wLSR98Vt-62">
          <mxGeometry x="19.0625" y="170.97142857142856" width="38.125" height="38.857142857142854" as="geometry" />
        </mxCell>
        <mxCell id="ADrHtXgVLup0wLSR98Vt-88" value="16" style="strokeWidth=1;shadow=0;dashed=0;align=center;html=1;shape=mxgraph.mockup.forms.rrect;rSize=0;strokeColor=#999999;fontColor=#999999;" vertex="1" parent="ADrHtXgVLup0wLSR98Vt-62">
          <mxGeometry x="57.1875" y="170.97142857142856" width="38.125" height="38.857142857142854" as="geometry" />
        </mxCell>
        <mxCell id="ADrHtXgVLup0wLSR98Vt-89" value="17" style="strokeWidth=1;shadow=0;dashed=0;align=center;html=1;shape=mxgraph.mockup.forms.rrect;rSize=0;strokeColor=#999999;fontColor=#999999;" vertex="1" parent="ADrHtXgVLup0wLSR98Vt-62">
          <mxGeometry x="95.3125" y="170.97142857142856" width="38.125" height="38.857142857142854" as="geometry" />
        </mxCell>
        <mxCell id="ADrHtXgVLup0wLSR98Vt-90" value="18" style="strokeWidth=1;shadow=0;dashed=0;align=center;html=1;shape=mxgraph.mockup.forms.rrect;rSize=0;strokeColor=#999999;fontColor=#999999;" vertex="1" parent="ADrHtXgVLup0wLSR98Vt-62">
          <mxGeometry x="133.4375" y="170.97142857142856" width="38.125" height="38.857142857142854" as="geometry" />
        </mxCell>
        <mxCell id="ADrHtXgVLup0wLSR98Vt-91" value="19" style="strokeWidth=1;shadow=0;dashed=0;align=center;html=1;shape=mxgraph.mockup.forms.rrect;rSize=0;strokeColor=#999999;fontColor=#999999;" vertex="1" parent="ADrHtXgVLup0wLSR98Vt-62">
          <mxGeometry x="171.5625" y="170.97142857142856" width="38.125" height="38.857142857142854" as="geometry" />
        </mxCell>
        <mxCell id="ADrHtXgVLup0wLSR98Vt-92" value="20" style="strokeWidth=1;shadow=0;dashed=0;align=center;html=1;shape=mxgraph.mockup.forms.rrect;rSize=0;strokeColor=#999999;fontColor=#999999;" vertex="1" parent="ADrHtXgVLup0wLSR98Vt-62">
          <mxGeometry x="209.6875" y="170.97142857142856" width="38.125" height="38.857142857142854" as="geometry" />
        </mxCell>
        <mxCell id="ADrHtXgVLup0wLSR98Vt-93" value="21" style="strokeWidth=1;shadow=0;dashed=0;align=center;html=1;shape=mxgraph.mockup.forms.rrect;rSize=0;strokeColor=#999999;fontColor=#999999;" vertex="1" parent="ADrHtXgVLup0wLSR98Vt-62">
          <mxGeometry x="247.8125" y="170.97142857142856" width="38.125" height="38.857142857142854" as="geometry" />
        </mxCell>
        <mxCell id="ADrHtXgVLup0wLSR98Vt-94" value="22" style="strokeWidth=1;shadow=0;dashed=0;align=center;html=1;shape=mxgraph.mockup.forms.rrect;rSize=0;strokeColor=#999999;fontColor=#999999;" vertex="1" parent="ADrHtXgVLup0wLSR98Vt-62">
          <mxGeometry x="19.0625" y="209.82857142857142" width="38.125" height="38.857142857142854" as="geometry" />
        </mxCell>
        <mxCell id="ADrHtXgVLup0wLSR98Vt-95" value="23" style="strokeWidth=1;shadow=0;dashed=0;align=center;html=1;shape=mxgraph.mockup.forms.rrect;rSize=0;strokeColor=#999999;fontColor=#999999;" vertex="1" parent="ADrHtXgVLup0wLSR98Vt-62">
          <mxGeometry x="57.1875" y="209.82857142857142" width="38.125" height="38.857142857142854" as="geometry" />
        </mxCell>
        <mxCell id="ADrHtXgVLup0wLSR98Vt-96" value="25" style="strokeWidth=1;shadow=0;dashed=0;align=center;html=1;shape=mxgraph.mockup.forms.rrect;rSize=0;strokeColor=#999999;fontColor=#999999;" vertex="1" parent="ADrHtXgVLup0wLSR98Vt-62">
          <mxGeometry x="133.4375" y="209.82857142857142" width="38.125" height="38.857142857142854" as="geometry" />
        </mxCell>
        <mxCell id="ADrHtXgVLup0wLSR98Vt-97" value="26" style="strokeWidth=1;shadow=0;dashed=0;align=center;html=1;shape=mxgraph.mockup.forms.rrect;rSize=0;strokeColor=#999999;fontColor=#999999;" vertex="1" parent="ADrHtXgVLup0wLSR98Vt-62">
          <mxGeometry x="171.5625" y="209.82857142857142" width="38.125" height="38.857142857142854" as="geometry" />
        </mxCell>
        <mxCell id="ADrHtXgVLup0wLSR98Vt-98" value="27" style="strokeWidth=1;shadow=0;dashed=0;align=center;html=1;shape=mxgraph.mockup.forms.rrect;rSize=0;strokeColor=#999999;fontColor=#999999;" vertex="1" parent="ADrHtXgVLup0wLSR98Vt-62">
          <mxGeometry x="209.6875" y="209.82857142857142" width="38.125" height="38.857142857142854" as="geometry" />
        </mxCell>
        <mxCell id="ADrHtXgVLup0wLSR98Vt-99" value="28" style="strokeWidth=1;shadow=0;dashed=0;align=center;html=1;shape=mxgraph.mockup.forms.rrect;rSize=0;strokeColor=#999999;fontColor=#999999;" vertex="1" parent="ADrHtXgVLup0wLSR98Vt-62">
          <mxGeometry x="247.8125" y="209.82857142857142" width="38.125" height="38.857142857142854" as="geometry" />
        </mxCell>
        <mxCell id="ADrHtXgVLup0wLSR98Vt-100" value="29" style="strokeWidth=1;shadow=0;dashed=0;align=center;html=1;shape=mxgraph.mockup.forms.rrect;rSize=0;strokeColor=#999999;fontColor=#999999;" vertex="1" parent="ADrHtXgVLup0wLSR98Vt-62">
          <mxGeometry x="19.0625" y="248.68571428571428" width="38.125" height="38.857142857142854" as="geometry" />
        </mxCell>
        <mxCell id="ADrHtXgVLup0wLSR98Vt-101" value="30" style="strokeWidth=1;shadow=0;dashed=0;align=center;html=1;shape=mxgraph.mockup.forms.rrect;rSize=0;strokeColor=#999999;fontColor=#999999;" vertex="1" parent="ADrHtXgVLup0wLSR98Vt-62">
          <mxGeometry x="57.1875" y="248.68571428571428" width="38.125" height="38.857142857142854" as="geometry" />
        </mxCell>
        <mxCell id="ADrHtXgVLup0wLSR98Vt-102" value="31" style="strokeWidth=1;shadow=0;dashed=0;align=center;html=1;shape=mxgraph.mockup.forms.rrect;rSize=0;strokeColor=#999999;fontColor=#999999;" vertex="1" parent="ADrHtXgVLup0wLSR98Vt-62">
          <mxGeometry x="95.3125" y="248.68571428571428" width="38.125" height="38.857142857142854" as="geometry" />
        </mxCell>
        <mxCell id="ADrHtXgVLup0wLSR98Vt-103" value="1" style="strokeWidth=1;shadow=0;dashed=0;align=center;html=1;shape=mxgraph.mockup.forms.rrect;rSize=0;strokeColor=#999999;fontColor=#999999;fillColor=#ddeeff;" vertex="1" parent="ADrHtXgVLup0wLSR98Vt-62">
          <mxGeometry x="133.4375" y="248.68571428571428" width="38.125" height="38.857142857142854" as="geometry" />
        </mxCell>
        <mxCell id="ADrHtXgVLup0wLSR98Vt-104" value="2" style="strokeWidth=1;shadow=0;dashed=0;align=center;html=1;shape=mxgraph.mockup.forms.rrect;rSize=0;strokeColor=#999999;fontColor=#999999;fillColor=#ddeeff;" vertex="1" parent="ADrHtXgVLup0wLSR98Vt-62">
          <mxGeometry x="171.5625" y="248.68571428571428" width="38.125" height="38.857142857142854" as="geometry" />
        </mxCell>
        <mxCell id="ADrHtXgVLup0wLSR98Vt-105" value="3" style="strokeWidth=1;shadow=0;dashed=0;align=center;html=1;shape=mxgraph.mockup.forms.rrect;rSize=0;strokeColor=#999999;fontColor=#999999;fillColor=#ddeeff;" vertex="1" parent="ADrHtXgVLup0wLSR98Vt-62">
          <mxGeometry x="209.6875" y="248.68571428571428" width="38.125" height="38.857142857142854" as="geometry" />
        </mxCell>
        <mxCell id="ADrHtXgVLup0wLSR98Vt-106" value="4" style="strokeWidth=1;shadow=0;dashed=0;align=center;html=1;shape=mxgraph.mockup.forms.rrect;rSize=0;strokeColor=#999999;fontColor=#999999;fillColor=#ddeeff;" vertex="1" parent="ADrHtXgVLup0wLSR98Vt-62">
          <mxGeometry x="247.8125" y="248.68571428571428" width="38.125" height="38.857142857142854" as="geometry" />
        </mxCell>
        <mxCell id="ADrHtXgVLup0wLSR98Vt-107" value="5" style="strokeWidth=1;shadow=0;dashed=0;align=center;html=1;shape=mxgraph.mockup.forms.rrect;rSize=0;strokeColor=#999999;fontColor=#999999;fillColor=#ddeeff;" vertex="1" parent="ADrHtXgVLup0wLSR98Vt-62">
          <mxGeometry x="19.0625" y="287.54285714285714" width="38.125" height="38.857142857142854" as="geometry" />
        </mxCell>
        <mxCell id="ADrHtXgVLup0wLSR98Vt-108" value="6" style="strokeWidth=1;shadow=0;dashed=0;align=center;html=1;shape=mxgraph.mockup.forms.rrect;rSize=0;strokeColor=#999999;fontColor=#999999;fillColor=#ddeeff;" vertex="1" parent="ADrHtXgVLup0wLSR98Vt-62">
          <mxGeometry x="57.1875" y="287.54285714285714" width="38.125" height="38.857142857142854" as="geometry" />
        </mxCell>
        <mxCell id="ADrHtXgVLup0wLSR98Vt-109" value="7" style="strokeWidth=1;shadow=0;dashed=0;align=center;html=1;shape=mxgraph.mockup.forms.rrect;rSize=0;strokeColor=#999999;fontColor=#999999;fillColor=#ddeeff;" vertex="1" parent="ADrHtXgVLup0wLSR98Vt-62">
          <mxGeometry x="95.3125" y="287.54285714285714" width="38.125" height="38.857142857142854" as="geometry" />
        </mxCell>
        <mxCell id="ADrHtXgVLup0wLSR98Vt-110" value="8" style="strokeWidth=1;shadow=0;dashed=0;align=center;html=1;shape=mxgraph.mockup.forms.rrect;rSize=0;strokeColor=#999999;fontColor=#999999;fillColor=#ddeeff;" vertex="1" parent="ADrHtXgVLup0wLSR98Vt-62">
          <mxGeometry x="133.4375" y="287.54285714285714" width="38.125" height="38.857142857142854" as="geometry" />
        </mxCell>
        <mxCell id="ADrHtXgVLup0wLSR98Vt-111" value="9" style="strokeWidth=1;shadow=0;dashed=0;align=center;html=1;shape=mxgraph.mockup.forms.rrect;rSize=0;strokeColor=#999999;fontColor=#999999;fillColor=#ddeeff;" vertex="1" parent="ADrHtXgVLup0wLSR98Vt-62">
          <mxGeometry x="171.5625" y="287.54285714285714" width="38.125" height="38.857142857142854" as="geometry" />
        </mxCell>
        <mxCell id="ADrHtXgVLup0wLSR98Vt-112" value="10" style="strokeWidth=1;shadow=0;dashed=0;align=center;html=1;shape=mxgraph.mockup.forms.rrect;rSize=0;strokeColor=#999999;fontColor=#999999;fillColor=#ddeeff;" vertex="1" parent="ADrHtXgVLup0wLSR98Vt-62">
          <mxGeometry x="209.6875" y="287.54285714285714" width="38.125" height="38.857142857142854" as="geometry" />
        </mxCell>
        <mxCell id="ADrHtXgVLup0wLSR98Vt-113" value="11" style="strokeWidth=1;shadow=0;dashed=0;align=center;html=1;shape=mxgraph.mockup.forms.rrect;rSize=0;strokeColor=#999999;fontColor=#999999;fillColor=#ddeeff;" vertex="1" parent="ADrHtXgVLup0wLSR98Vt-62">
          <mxGeometry x="247.8125" y="287.54285714285714" width="38.125" height="38.857142857142854" as="geometry" />
        </mxCell>
        <mxCell id="ADrHtXgVLup0wLSR98Vt-114" value="24" style="strokeWidth=1;shadow=0;dashed=0;align=center;html=1;shape=mxgraph.mockup.forms.rrect;rSize=0;strokeColor=#ff0000;fontColor=#ffffff;strokeWidth=2;fillColor=#008cff;" vertex="1" parent="ADrHtXgVLup0wLSR98Vt-62">
          <mxGeometry x="95.3125" y="209.82857142857142" width="38.125" height="38.857142857142854" as="geometry" />
        </mxCell>
        <UserObject label="%date{ddd mmm dd yyyy HH:MM:ss}%" placeholders="1" id="ADrHtXgVLup0wLSR98Vt-117">
          <mxCell style="text;html=1;strokeColor=none;fillColor=none;align=center;verticalAlign=middle;whiteSpace=wrap;overflow=hidden;" vertex="1" parent="3d76a8aef4d5c911-54">
            <mxGeometry x="130" y="498.26" width="160" height="20" as="geometry" />
          </mxCell>
        </UserObject>
        <UserObject label="%date{ddd mmm dd yyyy HH:MM:ss}%" placeholders="1" id="ADrHtXgVLup0wLSR98Vt-118">
          <mxCell style="text;html=1;strokeColor=none;fillColor=none;align=center;verticalAlign=middle;whiteSpace=wrap;overflow=hidden;" vertex="1" parent="3d76a8aef4d5c911-54">
            <mxGeometry x="130" y="550" width="160" height="20" as="geometry" />
          </mxCell>
        </UserObject>
        <mxCell id="ADrHtXgVLup0wLSR98Vt-120" value="CHECK-IN" style="shape=ext;double=1;rounded=0;whiteSpace=wrap;html=1;strokeWidth=1;" vertex="1" parent="3d76a8aef4d5c911-54">
          <mxGeometry x="5" y="486.52" width="120" height="31.74" as="geometry" />
        </mxCell>
        <mxCell id="ADrHtXgVLup0wLSR98Vt-121" value="CHECK-OUT" style="shape=ext;double=1;rounded=0;whiteSpace=wrap;html=1;strokeWidth=1;" vertex="1" parent="3d76a8aef4d5c911-54">
          <mxGeometry x="5" y="538.26" width="120" height="31.74" as="geometry" />
        </mxCell>
        <mxCell id="ADrHtXgVLup0wLSR98Vt-124" value="CONTADOR" style="label;whiteSpace=wrap;html=1;align=center;verticalAlign=bottom;spacingLeft=0;spacingBottom=4;imageAlign=center;imageVerticalAlign=top;image=img/clipart/Gear_128x128.png;strokeWidth=1;" vertex="1" parent="3d76a8aef4d5c911-54">
          <mxGeometry x="220" y="403.26" width="70" height="70" as="geometry" />
        </mxCell>
        <mxCell id="ADrHtXgVLup0wLSR98Vt-421" value="&lt;pre style=&quot;line-height: 1.4;&quot;&gt;&lt;span style=&quot;font-weight: normal;&quot;&gt;MENU FLOTANTE QUE &lt;/span&gt;&lt;/pre&gt;&lt;pre style=&quot;line-height: 1.4;&quot;&gt;&lt;span style=&quot;font-weight: normal;&quot;&gt;BAJA &lt;/span&gt;&lt;span style=&quot;font-weight: normal;&quot;&gt;AL HACER SCROLL&lt;/span&gt;&lt;/pre&gt;" style="text;strokeColor=none;fillColor=none;html=1;fontSize=24;fontStyle=1;verticalAlign=middle;align=center;rounded=0;glass=0;shadow=0;" vertex="1" parent="3d76a8aef4d5c911-54">
          <mxGeometry x="115" y="640" width="100" height="40" as="geometry" />
        </mxCell>
        <mxCell id="ADrHtXgVLup0wLSR98Vt-135" value="" style="swimlane;startSize=0;strokeWidth=1;" vertex="1" parent="1">
          <mxGeometry x="35" y="160" width="815" height="1240" as="geometry" />
        </mxCell>
        <mxCell id="ADrHtXgVLup0wLSR98Vt-203" value="" style="swimlane;startSize=0;strokeWidth=1;" vertex="1" parent="ADrHtXgVLup0wLSR98Vt-135">
          <mxGeometry x="12.5" y="80" width="790" height="280" as="geometry">
            <mxRectangle x="15" y="20" width="50" height="40" as="alternateBounds" />
          </mxGeometry>
        </mxCell>
        <mxCell id="ADrHtXgVLup0wLSR98Vt-204" value="Image cap" style="html=1;shadow=0;dashed=0;shape=mxgraph.bootstrap.topButton;rSize=5;perimeter=none;whiteSpace=wrap;fillColor=#868E96;strokeColor=#DFDFDF;fontColor=#DEE2E6;resizeWidth=1;fontSize=18;" vertex="1" parent="ADrHtXgVLup0wLSR98Vt-203">
          <mxGeometry x="295" y="20" width="200" height="190" as="geometry" />
        </mxCell>
        <mxCell id="ADrHtXgVLup0wLSR98Vt-206" value="Image cap" style="html=1;shadow=0;dashed=0;shape=mxgraph.bootstrap.topButton;rSize=5;perimeter=none;whiteSpace=wrap;fillColor=#868E96;strokeColor=#DFDFDF;fontColor=#DEE2E6;resizeWidth=1;fontSize=18;" vertex="1" parent="ADrHtXgVLup0wLSR98Vt-203">
          <mxGeometry x="20" y="20" width="200" height="190" as="geometry" />
        </mxCell>
        <mxCell id="ADrHtXgVLup0wLSR98Vt-207" value="Image cap" style="html=1;shadow=0;dashed=0;shape=mxgraph.bootstrap.topButton;rSize=5;perimeter=none;whiteSpace=wrap;fillColor=#868E96;strokeColor=#DFDFDF;fontColor=#DEE2E6;resizeWidth=1;fontSize=18;" vertex="1" parent="ADrHtXgVLup0wLSR98Vt-203">
          <mxGeometry x="575" y="20" width="200" height="190" as="geometry" />
        </mxCell>
        <mxCell id="ADrHtXgVLup0wLSR98Vt-210" value="" style="shape=singleArrow;whiteSpace=wrap;html=1;strokeWidth=1;" vertex="1" parent="ADrHtXgVLup0wLSR98Vt-203">
          <mxGeometry x="220" y="85" width="80" height="65" as="geometry" />
        </mxCell>
        <mxCell id="ADrHtXgVLup0wLSR98Vt-212" value="" style="shape=singleArrow;whiteSpace=wrap;html=1;strokeWidth=1;" vertex="1" parent="ADrHtXgVLup0wLSR98Vt-203">
          <mxGeometry x="495" y="82.5" width="80" height="65" as="geometry" />
        </mxCell>
        <mxCell id="ADrHtXgVLup0wLSR98Vt-213" value="CARROUSEL OF IMAGES" style="label;whiteSpace=wrap;html=1;image=img/clipart/Gear_128x128.png;strokeWidth=1;" vertex="1" parent="ADrHtXgVLup0wLSR98Vt-203">
          <mxGeometry x="190" y="220" width="370" height="50" as="geometry" />
        </mxCell>
        <mxCell id="ADrHtXgVLup0wLSR98Vt-215" value="" style="swimlane;startSize=0;strokeWidth=1;" vertex="1" parent="ADrHtXgVLup0wLSR98Vt-135">
          <mxGeometry x="13.639999999999999" y="390" width="787.72" height="141.74" as="geometry">
            <mxRectangle x="12.28" y="308.26" width="50" height="40" as="alternateBounds" />
          </mxGeometry>
        </mxCell>
        <mxCell id="ADrHtXgVLup0wLSR98Vt-219" value="AMENITIES" style="text;strokeColor=none;fillColor=none;html=1;fontSize=24;fontStyle=1;verticalAlign=middle;align=center;" vertex="1" parent="ADrHtXgVLup0wLSR98Vt-215">
          <mxGeometry x="324.08000000000004" y="11.74" width="147.28" height="40" as="geometry" />
        </mxCell>
        <mxCell id="ADrHtXgVLup0wLSR98Vt-220" value="Text" style="text;html=1;strokeColor=none;fillColor=none;align=center;verticalAlign=middle;whiteSpace=wrap;rounded=0;" vertex="1" parent="ADrHtXgVLup0wLSR98Vt-215">
          <mxGeometry x="32.72" y="51.74000000000001" width="60" height="30" as="geometry" />
        </mxCell>
        <mxCell id="ADrHtXgVLup0wLSR98Vt-221" value="Text" style="text;html=1;strokeColor=none;fillColor=none;align=center;verticalAlign=middle;whiteSpace=wrap;rounded=0;" vertex="1" parent="ADrHtXgVLup0wLSR98Vt-215">
          <mxGeometry x="32.72" y="81.74000000000001" width="60" height="30" as="geometry" />
        </mxCell>
        <mxCell id="ADrHtXgVLup0wLSR98Vt-222" value="Text" style="text;html=1;strokeColor=none;fillColor=none;align=center;verticalAlign=middle;whiteSpace=wrap;rounded=0;" vertex="1" parent="ADrHtXgVLup0wLSR98Vt-215">
          <mxGeometry x="32.72" y="111.74000000000001" width="60" height="30" as="geometry" />
        </mxCell>
        <mxCell id="ADrHtXgVLup0wLSR98Vt-225" value="Text" style="text;html=1;strokeColor=none;fillColor=none;align=center;verticalAlign=middle;whiteSpace=wrap;rounded=0;" vertex="1" parent="ADrHtXgVLup0wLSR98Vt-215">
          <mxGeometry x="202.72" y="51.74000000000001" width="60" height="30" as="geometry" />
        </mxCell>
        <mxCell id="ADrHtXgVLup0wLSR98Vt-226" value="Text" style="text;html=1;strokeColor=none;fillColor=none;align=center;verticalAlign=middle;whiteSpace=wrap;rounded=0;" vertex="1" parent="ADrHtXgVLup0wLSR98Vt-215">
          <mxGeometry x="202.72" y="81.74000000000001" width="60" height="30" as="geometry" />
        </mxCell>
        <mxCell id="ADrHtXgVLup0wLSR98Vt-227" value="Text" style="text;html=1;strokeColor=none;fillColor=none;align=center;verticalAlign=middle;whiteSpace=wrap;rounded=0;" vertex="1" parent="ADrHtXgVLup0wLSR98Vt-215">
          <mxGeometry x="202.72" y="111.74000000000001" width="60" height="30" as="geometry" />
        </mxCell>
        <mxCell id="ADrHtXgVLup0wLSR98Vt-228" value="Text" style="text;html=1;strokeColor=none;fillColor=none;align=center;verticalAlign=middle;whiteSpace=wrap;rounded=0;" vertex="1" parent="ADrHtXgVLup0wLSR98Vt-215">
          <mxGeometry x="362.72" y="51.74000000000001" width="60" height="30" as="geometry" />
        </mxCell>
        <mxCell id="ADrHtXgVLup0wLSR98Vt-229" value="Text" style="text;html=1;strokeColor=none;fillColor=none;align=center;verticalAlign=middle;whiteSpace=wrap;rounded=0;" vertex="1" parent="ADrHtXgVLup0wLSR98Vt-215">
          <mxGeometry x="362.72" y="81.74000000000001" width="60" height="30" as="geometry" />
        </mxCell>
        <mxCell id="ADrHtXgVLup0wLSR98Vt-230" value="Text" style="text;html=1;strokeColor=none;fillColor=none;align=center;verticalAlign=middle;whiteSpace=wrap;rounded=0;" vertex="1" parent="ADrHtXgVLup0wLSR98Vt-215">
          <mxGeometry x="362.72" y="111.74000000000001" width="60" height="30" as="geometry" />
        </mxCell>
        <mxCell id="ADrHtXgVLup0wLSR98Vt-231" value="Text" style="text;html=1;strokeColor=none;fillColor=none;align=center;verticalAlign=middle;whiteSpace=wrap;rounded=0;" vertex="1" parent="ADrHtXgVLup0wLSR98Vt-215">
          <mxGeometry x="532.72" y="51.74000000000001" width="60" height="30" as="geometry" />
        </mxCell>
        <mxCell id="ADrHtXgVLup0wLSR98Vt-232" value="Text" style="text;html=1;strokeColor=none;fillColor=none;align=center;verticalAlign=middle;whiteSpace=wrap;rounded=0;" vertex="1" parent="ADrHtXgVLup0wLSR98Vt-215">
          <mxGeometry x="532.72" y="81.74000000000001" width="60" height="30" as="geometry" />
        </mxCell>
        <mxCell id="ADrHtXgVLup0wLSR98Vt-233" value="Text" style="text;html=1;strokeColor=none;fillColor=none;align=center;verticalAlign=middle;whiteSpace=wrap;rounded=0;" vertex="1" parent="ADrHtXgVLup0wLSR98Vt-215">
          <mxGeometry x="532.72" y="111.74000000000001" width="60" height="30" as="geometry" />
        </mxCell>
        <mxCell id="ADrHtXgVLup0wLSR98Vt-234" value="Text" style="text;html=1;strokeColor=none;fillColor=none;align=center;verticalAlign=middle;whiteSpace=wrap;rounded=0;" vertex="1" parent="ADrHtXgVLup0wLSR98Vt-215">
          <mxGeometry x="682.72" y="51.74000000000001" width="60" height="30" as="geometry" />
        </mxCell>
        <mxCell id="ADrHtXgVLup0wLSR98Vt-235" value="Text" style="text;html=1;strokeColor=none;fillColor=none;align=center;verticalAlign=middle;whiteSpace=wrap;rounded=0;" vertex="1" parent="ADrHtXgVLup0wLSR98Vt-215">
          <mxGeometry x="682.72" y="81.74000000000001" width="60" height="30" as="geometry" />
        </mxCell>
        <mxCell id="ADrHtXgVLup0wLSR98Vt-236" value="Text" style="text;html=1;strokeColor=none;fillColor=none;align=center;verticalAlign=middle;whiteSpace=wrap;rounded=0;" vertex="1" parent="ADrHtXgVLup0wLSR98Vt-215">
          <mxGeometry x="682.72" y="111.74000000000001" width="60" height="30" as="geometry" />
        </mxCell>
        <mxCell id="ADrHtXgVLup0wLSR98Vt-238" value="" style="shape=image;html=1;verticalAlign=top;verticalLabelPosition=bottom;labelBackgroundColor=#ffffff;imageAspect=0;aspect=fixed;image=https://cdn1.iconfinder.com/data/icons/material-core/20/check-circle-128.png;strokeWidth=1;" vertex="1" parent="ADrHtXgVLup0wLSR98Vt-215">
          <mxGeometry x="22.72" y="57.74000000000001" width="18" height="18" as="geometry" />
        </mxCell>
        <mxCell id="ADrHtXgVLup0wLSR98Vt-239" value="" style="shape=image;html=1;verticalAlign=top;verticalLabelPosition=bottom;labelBackgroundColor=#ffffff;imageAspect=0;aspect=fixed;image=https://cdn1.iconfinder.com/data/icons/material-core/20/check-circle-128.png;strokeWidth=1;" vertex="1" parent="ADrHtXgVLup0wLSR98Vt-215">
          <mxGeometry x="22.72" y="87.74000000000001" width="18" height="18" as="geometry" />
        </mxCell>
        <mxCell id="ADrHtXgVLup0wLSR98Vt-240" value="" style="shape=image;html=1;verticalAlign=top;verticalLabelPosition=bottom;labelBackgroundColor=#ffffff;imageAspect=0;aspect=fixed;image=https://cdn1.iconfinder.com/data/icons/material-core/20/check-circle-128.png;strokeWidth=1;" vertex="1" parent="ADrHtXgVLup0wLSR98Vt-215">
          <mxGeometry x="22.72" y="117.74000000000001" width="18" height="18" as="geometry" />
        </mxCell>
        <mxCell id="ADrHtXgVLup0wLSR98Vt-241" value="" style="shape=image;html=1;verticalAlign=top;verticalLabelPosition=bottom;labelBackgroundColor=#ffffff;imageAspect=0;aspect=fixed;image=https://cdn1.iconfinder.com/data/icons/material-core/20/check-circle-128.png;strokeWidth=1;" vertex="1" parent="ADrHtXgVLup0wLSR98Vt-215">
          <mxGeometry x="184.72" y="57.74000000000001" width="18" height="18" as="geometry" />
        </mxCell>
        <mxCell id="ADrHtXgVLup0wLSR98Vt-242" value="" style="shape=image;html=1;verticalAlign=top;verticalLabelPosition=bottom;labelBackgroundColor=#ffffff;imageAspect=0;aspect=fixed;image=https://cdn1.iconfinder.com/data/icons/material-core/20/check-circle-128.png;strokeWidth=1;" vertex="1" parent="ADrHtXgVLup0wLSR98Vt-215">
          <mxGeometry x="184.72" y="87.74000000000001" width="18" height="18" as="geometry" />
        </mxCell>
        <mxCell id="ADrHtXgVLup0wLSR98Vt-243" value="" style="shape=image;html=1;verticalAlign=top;verticalLabelPosition=bottom;labelBackgroundColor=#ffffff;imageAspect=0;aspect=fixed;image=https://cdn1.iconfinder.com/data/icons/material-core/20/check-circle-128.png;strokeWidth=1;" vertex="1" parent="ADrHtXgVLup0wLSR98Vt-215">
          <mxGeometry x="184.72" y="117.74000000000001" width="18" height="18" as="geometry" />
        </mxCell>
        <mxCell id="ADrHtXgVLup0wLSR98Vt-244" value="" style="shape=image;html=1;verticalAlign=top;verticalLabelPosition=bottom;labelBackgroundColor=#ffffff;imageAspect=0;aspect=fixed;image=https://cdn1.iconfinder.com/data/icons/material-core/20/check-circle-128.png;strokeWidth=1;" vertex="1" parent="ADrHtXgVLup0wLSR98Vt-215">
          <mxGeometry x="352.72" y="57.74000000000001" width="18" height="18" as="geometry" />
        </mxCell>
        <mxCell id="ADrHtXgVLup0wLSR98Vt-245" value="" style="shape=image;html=1;verticalAlign=top;verticalLabelPosition=bottom;labelBackgroundColor=#ffffff;imageAspect=0;aspect=fixed;image=https://cdn1.iconfinder.com/data/icons/material-core/20/check-circle-128.png;strokeWidth=1;" vertex="1" parent="ADrHtXgVLup0wLSR98Vt-215">
          <mxGeometry x="352.72" y="87.74000000000001" width="18" height="18" as="geometry" />
        </mxCell>
        <mxCell id="ADrHtXgVLup0wLSR98Vt-246" value="" style="shape=image;html=1;verticalAlign=top;verticalLabelPosition=bottom;labelBackgroundColor=#ffffff;imageAspect=0;aspect=fixed;image=https://cdn1.iconfinder.com/data/icons/material-core/20/check-circle-128.png;strokeWidth=1;" vertex="1" parent="ADrHtXgVLup0wLSR98Vt-215">
          <mxGeometry x="352.72" y="117.74000000000001" width="18" height="18" as="geometry" />
        </mxCell>
        <mxCell id="ADrHtXgVLup0wLSR98Vt-247" value="" style="shape=image;html=1;verticalAlign=top;verticalLabelPosition=bottom;labelBackgroundColor=#ffffff;imageAspect=0;aspect=fixed;image=https://cdn1.iconfinder.com/data/icons/material-core/20/check-circle-128.png;strokeWidth=1;" vertex="1" parent="ADrHtXgVLup0wLSR98Vt-215">
          <mxGeometry x="522.72" y="57.74000000000001" width="18" height="18" as="geometry" />
        </mxCell>
        <mxCell id="ADrHtXgVLup0wLSR98Vt-248" value="" style="shape=image;html=1;verticalAlign=top;verticalLabelPosition=bottom;labelBackgroundColor=#ffffff;imageAspect=0;aspect=fixed;image=https://cdn1.iconfinder.com/data/icons/material-core/20/check-circle-128.png;strokeWidth=1;" vertex="1" parent="ADrHtXgVLup0wLSR98Vt-215">
          <mxGeometry x="522.72" y="87.74000000000001" width="18" height="18" as="geometry" />
        </mxCell>
        <mxCell id="ADrHtXgVLup0wLSR98Vt-249" value="" style="shape=image;html=1;verticalAlign=top;verticalLabelPosition=bottom;labelBackgroundColor=#ffffff;imageAspect=0;aspect=fixed;image=https://cdn1.iconfinder.com/data/icons/material-core/20/check-circle-128.png;strokeWidth=1;" vertex="1" parent="ADrHtXgVLup0wLSR98Vt-215">
          <mxGeometry x="522.72" y="117.74000000000001" width="18" height="18" as="geometry" />
        </mxCell>
        <mxCell id="ADrHtXgVLup0wLSR98Vt-250" value="" style="shape=image;html=1;verticalAlign=top;verticalLabelPosition=bottom;labelBackgroundColor=#ffffff;imageAspect=0;aspect=fixed;image=https://cdn1.iconfinder.com/data/icons/material-core/20/check-circle-128.png;strokeWidth=1;" vertex="1" parent="ADrHtXgVLup0wLSR98Vt-215">
          <mxGeometry x="672.72" y="57.74000000000001" width="18" height="18" as="geometry" />
        </mxCell>
        <mxCell id="ADrHtXgVLup0wLSR98Vt-251" value="" style="shape=image;html=1;verticalAlign=top;verticalLabelPosition=bottom;labelBackgroundColor=#ffffff;imageAspect=0;aspect=fixed;image=https://cdn1.iconfinder.com/data/icons/material-core/20/check-circle-128.png;strokeWidth=1;" vertex="1" parent="ADrHtXgVLup0wLSR98Vt-215">
          <mxGeometry x="672.72" y="87.74000000000001" width="18" height="18" as="geometry" />
        </mxCell>
        <mxCell id="ADrHtXgVLup0wLSR98Vt-252" value="" style="shape=image;html=1;verticalAlign=top;verticalLabelPosition=bottom;labelBackgroundColor=#ffffff;imageAspect=0;aspect=fixed;image=https://cdn1.iconfinder.com/data/icons/material-core/20/check-circle-128.png;strokeWidth=1;" vertex="1" parent="ADrHtXgVLup0wLSR98Vt-215">
          <mxGeometry x="672.72" y="117.74000000000001" width="18" height="18" as="geometry" />
        </mxCell>
        <mxCell id="ADrHtXgVLup0wLSR98Vt-254" value="TYPE ROOM" style="text;strokeColor=none;fillColor=none;html=1;fontSize=24;fontStyle=1;verticalAlign=middle;align=center;" vertex="1" parent="ADrHtXgVLup0wLSR98Vt-135">
          <mxGeometry x="100" y="10" width="630" height="40" as="geometry" />
        </mxCell>
        <mxCell id="ADrHtXgVLup0wLSR98Vt-296" value="" style="swimlane;startSize=0;strokeWidth=1;" vertex="1" parent="ADrHtXgVLup0wLSR98Vt-135">
          <mxGeometry y="620" width="815" height="620" as="geometry" />
        </mxCell>
        <mxCell id="ADrHtXgVLup0wLSR98Vt-297" value="" style="swimlane;startSize=0;strokeWidth=1;" vertex="1" parent="ADrHtXgVLup0wLSR98Vt-296">
          <mxGeometry x="12.5" y="80" width="790" height="280" as="geometry">
            <mxRectangle x="15" y="20" width="50" height="40" as="alternateBounds" />
          </mxGeometry>
        </mxCell>
        <mxCell id="ADrHtXgVLup0wLSR98Vt-298" value="Image cap" style="html=1;shadow=0;dashed=0;shape=mxgraph.bootstrap.topButton;rSize=5;perimeter=none;whiteSpace=wrap;fillColor=#868E96;strokeColor=#DFDFDF;fontColor=#DEE2E6;resizeWidth=1;fontSize=18;" vertex="1" parent="ADrHtXgVLup0wLSR98Vt-297">
          <mxGeometry x="295" y="20" width="200" height="190" as="geometry" />
        </mxCell>
        <mxCell id="ADrHtXgVLup0wLSR98Vt-299" value="Image cap" style="html=1;shadow=0;dashed=0;shape=mxgraph.bootstrap.topButton;rSize=5;perimeter=none;whiteSpace=wrap;fillColor=#868E96;strokeColor=#DFDFDF;fontColor=#DEE2E6;resizeWidth=1;fontSize=18;" vertex="1" parent="ADrHtXgVLup0wLSR98Vt-297">
          <mxGeometry x="20" y="20" width="200" height="190" as="geometry" />
        </mxCell>
        <mxCell id="ADrHtXgVLup0wLSR98Vt-300" value="Image cap" style="html=1;shadow=0;dashed=0;shape=mxgraph.bootstrap.topButton;rSize=5;perimeter=none;whiteSpace=wrap;fillColor=#868E96;strokeColor=#DFDFDF;fontColor=#DEE2E6;resizeWidth=1;fontSize=18;" vertex="1" parent="ADrHtXgVLup0wLSR98Vt-297">
          <mxGeometry x="575" y="20" width="200" height="190" as="geometry" />
        </mxCell>
        <mxCell id="ADrHtXgVLup0wLSR98Vt-301" value="" style="shape=singleArrow;whiteSpace=wrap;html=1;strokeWidth=1;" vertex="1" parent="ADrHtXgVLup0wLSR98Vt-297">
          <mxGeometry x="220" y="85" width="80" height="65" as="geometry" />
        </mxCell>
        <mxCell id="ADrHtXgVLup0wLSR98Vt-302" value="" style="shape=singleArrow;whiteSpace=wrap;html=1;strokeWidth=1;" vertex="1" parent="ADrHtXgVLup0wLSR98Vt-297">
          <mxGeometry x="495" y="82.5" width="80" height="65" as="geometry" />
        </mxCell>
        <mxCell id="ADrHtXgVLup0wLSR98Vt-303" value="CARROUSEL OF IMAGES" style="label;whiteSpace=wrap;html=1;image=img/clipart/Gear_128x128.png;strokeWidth=1;" vertex="1" parent="ADrHtXgVLup0wLSR98Vt-297">
          <mxGeometry x="190" y="220" width="370" height="50" as="geometry" />
        </mxCell>
        <mxCell id="ADrHtXgVLup0wLSR98Vt-304" value="" style="swimlane;startSize=0;strokeWidth=1;" vertex="1" parent="ADrHtXgVLup0wLSR98Vt-296">
          <mxGeometry x="13.639999999999999" y="390" width="787.72" height="141.74" as="geometry">
            <mxRectangle x="12.28" y="308.26" width="50" height="40" as="alternateBounds" />
          </mxGeometry>
        </mxCell>
        <mxCell id="ADrHtXgVLup0wLSR98Vt-305" value="AMENITIES" style="text;strokeColor=none;fillColor=none;html=1;fontSize=24;fontStyle=1;verticalAlign=middle;align=center;" vertex="1" parent="ADrHtXgVLup0wLSR98Vt-304">
          <mxGeometry x="324.08000000000004" y="11.74" width="147.28" height="40" as="geometry" />
        </mxCell>
        <mxCell id="ADrHtXgVLup0wLSR98Vt-306" value="Text" style="text;html=1;strokeColor=none;fillColor=none;align=center;verticalAlign=middle;whiteSpace=wrap;rounded=0;" vertex="1" parent="ADrHtXgVLup0wLSR98Vt-304">
          <mxGeometry x="32.72" y="51.74000000000001" width="60" height="30" as="geometry" />
        </mxCell>
        <mxCell id="ADrHtXgVLup0wLSR98Vt-307" value="Text" style="text;html=1;strokeColor=none;fillColor=none;align=center;verticalAlign=middle;whiteSpace=wrap;rounded=0;" vertex="1" parent="ADrHtXgVLup0wLSR98Vt-304">
          <mxGeometry x="32.72" y="81.74000000000001" width="60" height="30" as="geometry" />
        </mxCell>
        <mxCell id="ADrHtXgVLup0wLSR98Vt-308" value="Text" style="text;html=1;strokeColor=none;fillColor=none;align=center;verticalAlign=middle;whiteSpace=wrap;rounded=0;" vertex="1" parent="ADrHtXgVLup0wLSR98Vt-304">
          <mxGeometry x="32.72" y="111.74000000000001" width="60" height="30" as="geometry" />
        </mxCell>
        <mxCell id="ADrHtXgVLup0wLSR98Vt-309" value="Text" style="text;html=1;strokeColor=none;fillColor=none;align=center;verticalAlign=middle;whiteSpace=wrap;rounded=0;" vertex="1" parent="ADrHtXgVLup0wLSR98Vt-304">
          <mxGeometry x="202.72" y="51.74000000000001" width="60" height="30" as="geometry" />
        </mxCell>
        <mxCell id="ADrHtXgVLup0wLSR98Vt-310" value="Text" style="text;html=1;strokeColor=none;fillColor=none;align=center;verticalAlign=middle;whiteSpace=wrap;rounded=0;" vertex="1" parent="ADrHtXgVLup0wLSR98Vt-304">
          <mxGeometry x="202.72" y="81.74000000000001" width="60" height="30" as="geometry" />
        </mxCell>
        <mxCell id="ADrHtXgVLup0wLSR98Vt-311" value="Text" style="text;html=1;strokeColor=none;fillColor=none;align=center;verticalAlign=middle;whiteSpace=wrap;rounded=0;" vertex="1" parent="ADrHtXgVLup0wLSR98Vt-304">
          <mxGeometry x="202.72" y="111.74000000000001" width="60" height="30" as="geometry" />
        </mxCell>
        <mxCell id="ADrHtXgVLup0wLSR98Vt-312" value="Text" style="text;html=1;strokeColor=none;fillColor=none;align=center;verticalAlign=middle;whiteSpace=wrap;rounded=0;" vertex="1" parent="ADrHtXgVLup0wLSR98Vt-304">
          <mxGeometry x="362.72" y="51.74000000000001" width="60" height="30" as="geometry" />
        </mxCell>
        <mxCell id="ADrHtXgVLup0wLSR98Vt-313" value="Text" style="text;html=1;strokeColor=none;fillColor=none;align=center;verticalAlign=middle;whiteSpace=wrap;rounded=0;" vertex="1" parent="ADrHtXgVLup0wLSR98Vt-304">
          <mxGeometry x="362.72" y="81.74000000000001" width="60" height="30" as="geometry" />
        </mxCell>
        <mxCell id="ADrHtXgVLup0wLSR98Vt-314" value="Text" style="text;html=1;strokeColor=none;fillColor=none;align=center;verticalAlign=middle;whiteSpace=wrap;rounded=0;" vertex="1" parent="ADrHtXgVLup0wLSR98Vt-304">
          <mxGeometry x="362.72" y="111.74000000000001" width="60" height="30" as="geometry" />
        </mxCell>
        <mxCell id="ADrHtXgVLup0wLSR98Vt-315" value="Text" style="text;html=1;strokeColor=none;fillColor=none;align=center;verticalAlign=middle;whiteSpace=wrap;rounded=0;" vertex="1" parent="ADrHtXgVLup0wLSR98Vt-304">
          <mxGeometry x="532.72" y="51.74000000000001" width="60" height="30" as="geometry" />
        </mxCell>
        <mxCell id="ADrHtXgVLup0wLSR98Vt-316" value="Text" style="text;html=1;strokeColor=none;fillColor=none;align=center;verticalAlign=middle;whiteSpace=wrap;rounded=0;" vertex="1" parent="ADrHtXgVLup0wLSR98Vt-304">
          <mxGeometry x="532.72" y="81.74000000000001" width="60" height="30" as="geometry" />
        </mxCell>
        <mxCell id="ADrHtXgVLup0wLSR98Vt-317" value="Text" style="text;html=1;strokeColor=none;fillColor=none;align=center;verticalAlign=middle;whiteSpace=wrap;rounded=0;" vertex="1" parent="ADrHtXgVLup0wLSR98Vt-304">
          <mxGeometry x="532.72" y="111.74000000000001" width="60" height="30" as="geometry" />
        </mxCell>
        <mxCell id="ADrHtXgVLup0wLSR98Vt-318" value="Text" style="text;html=1;strokeColor=none;fillColor=none;align=center;verticalAlign=middle;whiteSpace=wrap;rounded=0;" vertex="1" parent="ADrHtXgVLup0wLSR98Vt-304">
          <mxGeometry x="682.72" y="51.74000000000001" width="60" height="30" as="geometry" />
        </mxCell>
        <mxCell id="ADrHtXgVLup0wLSR98Vt-319" value="Text" style="text;html=1;strokeColor=none;fillColor=none;align=center;verticalAlign=middle;whiteSpace=wrap;rounded=0;" vertex="1" parent="ADrHtXgVLup0wLSR98Vt-304">
          <mxGeometry x="682.72" y="81.74000000000001" width="60" height="30" as="geometry" />
        </mxCell>
        <mxCell id="ADrHtXgVLup0wLSR98Vt-320" value="Text" style="text;html=1;strokeColor=none;fillColor=none;align=center;verticalAlign=middle;whiteSpace=wrap;rounded=0;" vertex="1" parent="ADrHtXgVLup0wLSR98Vt-304">
          <mxGeometry x="682.72" y="111.74000000000001" width="60" height="30" as="geometry" />
        </mxCell>
        <mxCell id="ADrHtXgVLup0wLSR98Vt-321" value="" style="shape=image;html=1;verticalAlign=top;verticalLabelPosition=bottom;labelBackgroundColor=#ffffff;imageAspect=0;aspect=fixed;image=https://cdn1.iconfinder.com/data/icons/material-core/20/check-circle-128.png;strokeWidth=1;" vertex="1" parent="ADrHtXgVLup0wLSR98Vt-304">
          <mxGeometry x="22.72" y="57.74000000000001" width="18" height="18" as="geometry" />
        </mxCell>
        <mxCell id="ADrHtXgVLup0wLSR98Vt-322" value="" style="shape=image;html=1;verticalAlign=top;verticalLabelPosition=bottom;labelBackgroundColor=#ffffff;imageAspect=0;aspect=fixed;image=https://cdn1.iconfinder.com/data/icons/material-core/20/check-circle-128.png;strokeWidth=1;" vertex="1" parent="ADrHtXgVLup0wLSR98Vt-304">
          <mxGeometry x="22.72" y="87.74000000000001" width="18" height="18" as="geometry" />
        </mxCell>
        <mxCell id="ADrHtXgVLup0wLSR98Vt-323" value="" style="shape=image;html=1;verticalAlign=top;verticalLabelPosition=bottom;labelBackgroundColor=#ffffff;imageAspect=0;aspect=fixed;image=https://cdn1.iconfinder.com/data/icons/material-core/20/check-circle-128.png;strokeWidth=1;" vertex="1" parent="ADrHtXgVLup0wLSR98Vt-304">
          <mxGeometry x="22.72" y="117.74000000000001" width="18" height="18" as="geometry" />
        </mxCell>
        <mxCell id="ADrHtXgVLup0wLSR98Vt-324" value="" style="shape=image;html=1;verticalAlign=top;verticalLabelPosition=bottom;labelBackgroundColor=#ffffff;imageAspect=0;aspect=fixed;image=https://cdn1.iconfinder.com/data/icons/material-core/20/check-circle-128.png;strokeWidth=1;" vertex="1" parent="ADrHtXgVLup0wLSR98Vt-304">
          <mxGeometry x="184.72" y="57.74000000000001" width="18" height="18" as="geometry" />
        </mxCell>
        <mxCell id="ADrHtXgVLup0wLSR98Vt-325" value="" style="shape=image;html=1;verticalAlign=top;verticalLabelPosition=bottom;labelBackgroundColor=#ffffff;imageAspect=0;aspect=fixed;image=https://cdn1.iconfinder.com/data/icons/material-core/20/check-circle-128.png;strokeWidth=1;" vertex="1" parent="ADrHtXgVLup0wLSR98Vt-304">
          <mxGeometry x="184.72" y="87.74000000000001" width="18" height="18" as="geometry" />
        </mxCell>
        <mxCell id="ADrHtXgVLup0wLSR98Vt-326" value="" style="shape=image;html=1;verticalAlign=top;verticalLabelPosition=bottom;labelBackgroundColor=#ffffff;imageAspect=0;aspect=fixed;image=https://cdn1.iconfinder.com/data/icons/material-core/20/check-circle-128.png;strokeWidth=1;" vertex="1" parent="ADrHtXgVLup0wLSR98Vt-304">
          <mxGeometry x="184.72" y="117.74000000000001" width="18" height="18" as="geometry" />
        </mxCell>
        <mxCell id="ADrHtXgVLup0wLSR98Vt-327" value="" style="shape=image;html=1;verticalAlign=top;verticalLabelPosition=bottom;labelBackgroundColor=#ffffff;imageAspect=0;aspect=fixed;image=https://cdn1.iconfinder.com/data/icons/material-core/20/check-circle-128.png;strokeWidth=1;" vertex="1" parent="ADrHtXgVLup0wLSR98Vt-304">
          <mxGeometry x="352.72" y="57.74000000000001" width="18" height="18" as="geometry" />
        </mxCell>
        <mxCell id="ADrHtXgVLup0wLSR98Vt-328" value="" style="shape=image;html=1;verticalAlign=top;verticalLabelPosition=bottom;labelBackgroundColor=#ffffff;imageAspect=0;aspect=fixed;image=https://cdn1.iconfinder.com/data/icons/material-core/20/check-circle-128.png;strokeWidth=1;" vertex="1" parent="ADrHtXgVLup0wLSR98Vt-304">
          <mxGeometry x="352.72" y="87.74000000000001" width="18" height="18" as="geometry" />
        </mxCell>
        <mxCell id="ADrHtXgVLup0wLSR98Vt-329" value="" style="shape=image;html=1;verticalAlign=top;verticalLabelPosition=bottom;labelBackgroundColor=#ffffff;imageAspect=0;aspect=fixed;image=https://cdn1.iconfinder.com/data/icons/material-core/20/check-circle-128.png;strokeWidth=1;" vertex="1" parent="ADrHtXgVLup0wLSR98Vt-304">
          <mxGeometry x="352.72" y="117.74000000000001" width="18" height="18" as="geometry" />
        </mxCell>
        <mxCell id="ADrHtXgVLup0wLSR98Vt-330" value="" style="shape=image;html=1;verticalAlign=top;verticalLabelPosition=bottom;labelBackgroundColor=#ffffff;imageAspect=0;aspect=fixed;image=https://cdn1.iconfinder.com/data/icons/material-core/20/check-circle-128.png;strokeWidth=1;" vertex="1" parent="ADrHtXgVLup0wLSR98Vt-304">
          <mxGeometry x="522.72" y="57.74000000000001" width="18" height="18" as="geometry" />
        </mxCell>
        <mxCell id="ADrHtXgVLup0wLSR98Vt-331" value="" style="shape=image;html=1;verticalAlign=top;verticalLabelPosition=bottom;labelBackgroundColor=#ffffff;imageAspect=0;aspect=fixed;image=https://cdn1.iconfinder.com/data/icons/material-core/20/check-circle-128.png;strokeWidth=1;" vertex="1" parent="ADrHtXgVLup0wLSR98Vt-304">
          <mxGeometry x="522.72" y="87.74000000000001" width="18" height="18" as="geometry" />
        </mxCell>
        <mxCell id="ADrHtXgVLup0wLSR98Vt-332" value="" style="shape=image;html=1;verticalAlign=top;verticalLabelPosition=bottom;labelBackgroundColor=#ffffff;imageAspect=0;aspect=fixed;image=https://cdn1.iconfinder.com/data/icons/material-core/20/check-circle-128.png;strokeWidth=1;" vertex="1" parent="ADrHtXgVLup0wLSR98Vt-304">
          <mxGeometry x="522.72" y="117.74000000000001" width="18" height="18" as="geometry" />
        </mxCell>
        <mxCell id="ADrHtXgVLup0wLSR98Vt-333" value="" style="shape=image;html=1;verticalAlign=top;verticalLabelPosition=bottom;labelBackgroundColor=#ffffff;imageAspect=0;aspect=fixed;image=https://cdn1.iconfinder.com/data/icons/material-core/20/check-circle-128.png;strokeWidth=1;" vertex="1" parent="ADrHtXgVLup0wLSR98Vt-304">
          <mxGeometry x="672.72" y="57.74000000000001" width="18" height="18" as="geometry" />
        </mxCell>
        <mxCell id="ADrHtXgVLup0wLSR98Vt-334" value="" style="shape=image;html=1;verticalAlign=top;verticalLabelPosition=bottom;labelBackgroundColor=#ffffff;imageAspect=0;aspect=fixed;image=https://cdn1.iconfinder.com/data/icons/material-core/20/check-circle-128.png;strokeWidth=1;" vertex="1" parent="ADrHtXgVLup0wLSR98Vt-304">
          <mxGeometry x="672.72" y="87.74000000000001" width="18" height="18" as="geometry" />
        </mxCell>
        <mxCell id="ADrHtXgVLup0wLSR98Vt-335" value="" style="shape=image;html=1;verticalAlign=top;verticalLabelPosition=bottom;labelBackgroundColor=#ffffff;imageAspect=0;aspect=fixed;image=https://cdn1.iconfinder.com/data/icons/material-core/20/check-circle-128.png;strokeWidth=1;" vertex="1" parent="ADrHtXgVLup0wLSR98Vt-304">
          <mxGeometry x="672.72" y="117.74000000000001" width="18" height="18" as="geometry" />
        </mxCell>
        <mxCell id="ADrHtXgVLup0wLSR98Vt-336" value="TYPE ROOM" style="text;strokeColor=none;fillColor=none;html=1;fontSize=24;fontStyle=1;verticalAlign=middle;align=center;" vertex="1" parent="ADrHtXgVLup0wLSR98Vt-296">
          <mxGeometry x="100" y="10" width="630" height="40" as="geometry" />
        </mxCell>
        <mxCell id="ADrHtXgVLup0wLSR98Vt-379" value="" style="swimlane;startSize=0;strokeWidth=1;" vertex="1" parent="1">
          <mxGeometry x="35" y="1400" width="815" height="620" as="geometry" />
        </mxCell>
        <mxCell id="ADrHtXgVLup0wLSR98Vt-380" value="" style="swimlane;startSize=0;strokeWidth=1;" vertex="1" parent="ADrHtXgVLup0wLSR98Vt-379">
          <mxGeometry x="12.5" y="80" width="790" height="280" as="geometry">
            <mxRectangle x="15" y="20" width="50" height="40" as="alternateBounds" />
          </mxGeometry>
        </mxCell>
        <mxCell id="ADrHtXgVLup0wLSR98Vt-381" value="Image cap" style="html=1;shadow=0;dashed=0;shape=mxgraph.bootstrap.topButton;rSize=5;perimeter=none;whiteSpace=wrap;fillColor=#868E96;strokeColor=#DFDFDF;fontColor=#DEE2E6;resizeWidth=1;fontSize=18;" vertex="1" parent="ADrHtXgVLup0wLSR98Vt-380">
          <mxGeometry x="295" y="20" width="200" height="190" as="geometry" />
        </mxCell>
        <mxCell id="ADrHtXgVLup0wLSR98Vt-382" value="Image cap" style="html=1;shadow=0;dashed=0;shape=mxgraph.bootstrap.topButton;rSize=5;perimeter=none;whiteSpace=wrap;fillColor=#868E96;strokeColor=#DFDFDF;fontColor=#DEE2E6;resizeWidth=1;fontSize=18;" vertex="1" parent="ADrHtXgVLup0wLSR98Vt-380">
          <mxGeometry x="20" y="20" width="200" height="190" as="geometry" />
        </mxCell>
        <mxCell id="ADrHtXgVLup0wLSR98Vt-383" value="Image cap" style="html=1;shadow=0;dashed=0;shape=mxgraph.bootstrap.topButton;rSize=5;perimeter=none;whiteSpace=wrap;fillColor=#868E96;strokeColor=#DFDFDF;fontColor=#DEE2E6;resizeWidth=1;fontSize=18;" vertex="1" parent="ADrHtXgVLup0wLSR98Vt-380">
          <mxGeometry x="575" y="20" width="200" height="190" as="geometry" />
        </mxCell>
        <mxCell id="ADrHtXgVLup0wLSR98Vt-384" value="" style="shape=singleArrow;whiteSpace=wrap;html=1;strokeWidth=1;" vertex="1" parent="ADrHtXgVLup0wLSR98Vt-380">
          <mxGeometry x="220" y="85" width="80" height="65" as="geometry" />
        </mxCell>
        <mxCell id="ADrHtXgVLup0wLSR98Vt-385" value="" style="shape=singleArrow;whiteSpace=wrap;html=1;strokeWidth=1;" vertex="1" parent="ADrHtXgVLup0wLSR98Vt-380">
          <mxGeometry x="495" y="82.5" width="80" height="65" as="geometry" />
        </mxCell>
        <mxCell id="ADrHtXgVLup0wLSR98Vt-386" value="CARROUSEL OF IMAGES" style="label;whiteSpace=wrap;html=1;image=img/clipart/Gear_128x128.png;strokeWidth=1;" vertex="1" parent="ADrHtXgVLup0wLSR98Vt-380">
          <mxGeometry x="190" y="220" width="370" height="50" as="geometry" />
        </mxCell>
        <mxCell id="ADrHtXgVLup0wLSR98Vt-387" value="" style="swimlane;startSize=0;strokeWidth=1;" vertex="1" parent="ADrHtXgVLup0wLSR98Vt-379">
          <mxGeometry x="13.639999999999999" y="390" width="787.72" height="141.74" as="geometry">
            <mxRectangle x="12.28" y="308.26" width="50" height="40" as="alternateBounds" />
          </mxGeometry>
        </mxCell>
        <mxCell id="ADrHtXgVLup0wLSR98Vt-388" value="AMENITIES" style="text;strokeColor=none;fillColor=none;html=1;fontSize=24;fontStyle=1;verticalAlign=middle;align=center;" vertex="1" parent="ADrHtXgVLup0wLSR98Vt-387">
          <mxGeometry x="324.08000000000004" y="11.74" width="147.28" height="40" as="geometry" />
        </mxCell>
        <mxCell id="ADrHtXgVLup0wLSR98Vt-389" value="Text" style="text;html=1;strokeColor=none;fillColor=none;align=center;verticalAlign=middle;whiteSpace=wrap;rounded=0;" vertex="1" parent="ADrHtXgVLup0wLSR98Vt-387">
          <mxGeometry x="32.72" y="51.74000000000001" width="60" height="30" as="geometry" />
        </mxCell>
        <mxCell id="ADrHtXgVLup0wLSR98Vt-390" value="Text" style="text;html=1;strokeColor=none;fillColor=none;align=center;verticalAlign=middle;whiteSpace=wrap;rounded=0;" vertex="1" parent="ADrHtXgVLup0wLSR98Vt-387">
          <mxGeometry x="32.72" y="81.74000000000001" width="60" height="30" as="geometry" />
        </mxCell>
        <mxCell id="ADrHtXgVLup0wLSR98Vt-391" value="Text" style="text;html=1;strokeColor=none;fillColor=none;align=center;verticalAlign=middle;whiteSpace=wrap;rounded=0;" vertex="1" parent="ADrHtXgVLup0wLSR98Vt-387">
          <mxGeometry x="32.72" y="111.74000000000001" width="60" height="30" as="geometry" />
        </mxCell>
        <mxCell id="ADrHtXgVLup0wLSR98Vt-392" value="Text" style="text;html=1;strokeColor=none;fillColor=none;align=center;verticalAlign=middle;whiteSpace=wrap;rounded=0;" vertex="1" parent="ADrHtXgVLup0wLSR98Vt-387">
          <mxGeometry x="202.72" y="51.74000000000001" width="60" height="30" as="geometry" />
        </mxCell>
        <mxCell id="ADrHtXgVLup0wLSR98Vt-393" value="Text" style="text;html=1;strokeColor=none;fillColor=none;align=center;verticalAlign=middle;whiteSpace=wrap;rounded=0;" vertex="1" parent="ADrHtXgVLup0wLSR98Vt-387">
          <mxGeometry x="202.72" y="81.74000000000001" width="60" height="30" as="geometry" />
        </mxCell>
        <mxCell id="ADrHtXgVLup0wLSR98Vt-394" value="Text" style="text;html=1;strokeColor=none;fillColor=none;align=center;verticalAlign=middle;whiteSpace=wrap;rounded=0;" vertex="1" parent="ADrHtXgVLup0wLSR98Vt-387">
          <mxGeometry x="202.72" y="111.74000000000001" width="60" height="30" as="geometry" />
        </mxCell>
        <mxCell id="ADrHtXgVLup0wLSR98Vt-395" value="Text" style="text;html=1;strokeColor=none;fillColor=none;align=center;verticalAlign=middle;whiteSpace=wrap;rounded=0;" vertex="1" parent="ADrHtXgVLup0wLSR98Vt-387">
          <mxGeometry x="362.72" y="51.74000000000001" width="60" height="30" as="geometry" />
        </mxCell>
        <mxCell id="ADrHtXgVLup0wLSR98Vt-396" value="Text" style="text;html=1;strokeColor=none;fillColor=none;align=center;verticalAlign=middle;whiteSpace=wrap;rounded=0;" vertex="1" parent="ADrHtXgVLup0wLSR98Vt-387">
          <mxGeometry x="362.72" y="81.74000000000001" width="60" height="30" as="geometry" />
        </mxCell>
        <mxCell id="ADrHtXgVLup0wLSR98Vt-397" value="Text" style="text;html=1;strokeColor=none;fillColor=none;align=center;verticalAlign=middle;whiteSpace=wrap;rounded=0;" vertex="1" parent="ADrHtXgVLup0wLSR98Vt-387">
          <mxGeometry x="362.72" y="111.74000000000001" width="60" height="30" as="geometry" />
        </mxCell>
        <mxCell id="ADrHtXgVLup0wLSR98Vt-398" value="Text" style="text;html=1;strokeColor=none;fillColor=none;align=center;verticalAlign=middle;whiteSpace=wrap;rounded=0;" vertex="1" parent="ADrHtXgVLup0wLSR98Vt-387">
          <mxGeometry x="532.72" y="51.74000000000001" width="60" height="30" as="geometry" />
        </mxCell>
        <mxCell id="ADrHtXgVLup0wLSR98Vt-399" value="Text" style="text;html=1;strokeColor=none;fillColor=none;align=center;verticalAlign=middle;whiteSpace=wrap;rounded=0;" vertex="1" parent="ADrHtXgVLup0wLSR98Vt-387">
          <mxGeometry x="532.72" y="81.74000000000001" width="60" height="30" as="geometry" />
        </mxCell>
        <mxCell id="ADrHtXgVLup0wLSR98Vt-400" value="Text" style="text;html=1;strokeColor=none;fillColor=none;align=center;verticalAlign=middle;whiteSpace=wrap;rounded=0;" vertex="1" parent="ADrHtXgVLup0wLSR98Vt-387">
          <mxGeometry x="532.72" y="111.74000000000001" width="60" height="30" as="geometry" />
        </mxCell>
        <mxCell id="ADrHtXgVLup0wLSR98Vt-401" value="Text" style="text;html=1;strokeColor=none;fillColor=none;align=center;verticalAlign=middle;whiteSpace=wrap;rounded=0;" vertex="1" parent="ADrHtXgVLup0wLSR98Vt-387">
          <mxGeometry x="682.72" y="51.74000000000001" width="60" height="30" as="geometry" />
        </mxCell>
        <mxCell id="ADrHtXgVLup0wLSR98Vt-402" value="Text" style="text;html=1;strokeColor=none;fillColor=none;align=center;verticalAlign=middle;whiteSpace=wrap;rounded=0;" vertex="1" parent="ADrHtXgVLup0wLSR98Vt-387">
          <mxGeometry x="682.72" y="81.74000000000001" width="60" height="30" as="geometry" />
        </mxCell>
        <mxCell id="ADrHtXgVLup0wLSR98Vt-403" value="Text" style="text;html=1;strokeColor=none;fillColor=none;align=center;verticalAlign=middle;whiteSpace=wrap;rounded=0;" vertex="1" parent="ADrHtXgVLup0wLSR98Vt-387">
          <mxGeometry x="682.72" y="111.74000000000001" width="60" height="30" as="geometry" />
        </mxCell>
        <mxCell id="ADrHtXgVLup0wLSR98Vt-404" value="" style="shape=image;html=1;verticalAlign=top;verticalLabelPosition=bottom;labelBackgroundColor=#ffffff;imageAspect=0;aspect=fixed;image=https://cdn1.iconfinder.com/data/icons/material-core/20/check-circle-128.png;strokeWidth=1;" vertex="1" parent="ADrHtXgVLup0wLSR98Vt-387">
          <mxGeometry x="22.72" y="57.74000000000001" width="18" height="18" as="geometry" />
        </mxCell>
        <mxCell id="ADrHtXgVLup0wLSR98Vt-405" value="" style="shape=image;html=1;verticalAlign=top;verticalLabelPosition=bottom;labelBackgroundColor=#ffffff;imageAspect=0;aspect=fixed;image=https://cdn1.iconfinder.com/data/icons/material-core/20/check-circle-128.png;strokeWidth=1;" vertex="1" parent="ADrHtXgVLup0wLSR98Vt-387">
          <mxGeometry x="22.72" y="87.74000000000001" width="18" height="18" as="geometry" />
        </mxCell>
        <mxCell id="ADrHtXgVLup0wLSR98Vt-406" value="" style="shape=image;html=1;verticalAlign=top;verticalLabelPosition=bottom;labelBackgroundColor=#ffffff;imageAspect=0;aspect=fixed;image=https://cdn1.iconfinder.com/data/icons/material-core/20/check-circle-128.png;strokeWidth=1;" vertex="1" parent="ADrHtXgVLup0wLSR98Vt-387">
          <mxGeometry x="22.72" y="117.74000000000001" width="18" height="18" as="geometry" />
        </mxCell>
        <mxCell id="ADrHtXgVLup0wLSR98Vt-407" value="" style="shape=image;html=1;verticalAlign=top;verticalLabelPosition=bottom;labelBackgroundColor=#ffffff;imageAspect=0;aspect=fixed;image=https://cdn1.iconfinder.com/data/icons/material-core/20/check-circle-128.png;strokeWidth=1;" vertex="1" parent="ADrHtXgVLup0wLSR98Vt-387">
          <mxGeometry x="184.72" y="57.74000000000001" width="18" height="18" as="geometry" />
        </mxCell>
        <mxCell id="ADrHtXgVLup0wLSR98Vt-408" value="" style="shape=image;html=1;verticalAlign=top;verticalLabelPosition=bottom;labelBackgroundColor=#ffffff;imageAspect=0;aspect=fixed;image=https://cdn1.iconfinder.com/data/icons/material-core/20/check-circle-128.png;strokeWidth=1;" vertex="1" parent="ADrHtXgVLup0wLSR98Vt-387">
          <mxGeometry x="184.72" y="87.74000000000001" width="18" height="18" as="geometry" />
        </mxCell>
        <mxCell id="ADrHtXgVLup0wLSR98Vt-409" value="" style="shape=image;html=1;verticalAlign=top;verticalLabelPosition=bottom;labelBackgroundColor=#ffffff;imageAspect=0;aspect=fixed;image=https://cdn1.iconfinder.com/data/icons/material-core/20/check-circle-128.png;strokeWidth=1;" vertex="1" parent="ADrHtXgVLup0wLSR98Vt-387">
          <mxGeometry x="184.72" y="117.74000000000001" width="18" height="18" as="geometry" />
        </mxCell>
        <mxCell id="ADrHtXgVLup0wLSR98Vt-410" value="" style="shape=image;html=1;verticalAlign=top;verticalLabelPosition=bottom;labelBackgroundColor=#ffffff;imageAspect=0;aspect=fixed;image=https://cdn1.iconfinder.com/data/icons/material-core/20/check-circle-128.png;strokeWidth=1;" vertex="1" parent="ADrHtXgVLup0wLSR98Vt-387">
          <mxGeometry x="352.72" y="57.74000000000001" width="18" height="18" as="geometry" />
        </mxCell>
        <mxCell id="ADrHtXgVLup0wLSR98Vt-411" value="" style="shape=image;html=1;verticalAlign=top;verticalLabelPosition=bottom;labelBackgroundColor=#ffffff;imageAspect=0;aspect=fixed;image=https://cdn1.iconfinder.com/data/icons/material-core/20/check-circle-128.png;strokeWidth=1;" vertex="1" parent="ADrHtXgVLup0wLSR98Vt-387">
          <mxGeometry x="352.72" y="87.74000000000001" width="18" height="18" as="geometry" />
        </mxCell>
        <mxCell id="ADrHtXgVLup0wLSR98Vt-412" value="" style="shape=image;html=1;verticalAlign=top;verticalLabelPosition=bottom;labelBackgroundColor=#ffffff;imageAspect=0;aspect=fixed;image=https://cdn1.iconfinder.com/data/icons/material-core/20/check-circle-128.png;strokeWidth=1;" vertex="1" parent="ADrHtXgVLup0wLSR98Vt-387">
          <mxGeometry x="352.72" y="117.74000000000001" width="18" height="18" as="geometry" />
        </mxCell>
        <mxCell id="ADrHtXgVLup0wLSR98Vt-413" value="" style="shape=image;html=1;verticalAlign=top;verticalLabelPosition=bottom;labelBackgroundColor=#ffffff;imageAspect=0;aspect=fixed;image=https://cdn1.iconfinder.com/data/icons/material-core/20/check-circle-128.png;strokeWidth=1;" vertex="1" parent="ADrHtXgVLup0wLSR98Vt-387">
          <mxGeometry x="522.72" y="57.74000000000001" width="18" height="18" as="geometry" />
        </mxCell>
        <mxCell id="ADrHtXgVLup0wLSR98Vt-414" value="" style="shape=image;html=1;verticalAlign=top;verticalLabelPosition=bottom;labelBackgroundColor=#ffffff;imageAspect=0;aspect=fixed;image=https://cdn1.iconfinder.com/data/icons/material-core/20/check-circle-128.png;strokeWidth=1;" vertex="1" parent="ADrHtXgVLup0wLSR98Vt-387">
          <mxGeometry x="522.72" y="87.74000000000001" width="18" height="18" as="geometry" />
        </mxCell>
        <mxCell id="ADrHtXgVLup0wLSR98Vt-415" value="" style="shape=image;html=1;verticalAlign=top;verticalLabelPosition=bottom;labelBackgroundColor=#ffffff;imageAspect=0;aspect=fixed;image=https://cdn1.iconfinder.com/data/icons/material-core/20/check-circle-128.png;strokeWidth=1;" vertex="1" parent="ADrHtXgVLup0wLSR98Vt-387">
          <mxGeometry x="522.72" y="117.74000000000001" width="18" height="18" as="geometry" />
        </mxCell>
        <mxCell id="ADrHtXgVLup0wLSR98Vt-416" value="" style="shape=image;html=1;verticalAlign=top;verticalLabelPosition=bottom;labelBackgroundColor=#ffffff;imageAspect=0;aspect=fixed;image=https://cdn1.iconfinder.com/data/icons/material-core/20/check-circle-128.png;strokeWidth=1;" vertex="1" parent="ADrHtXgVLup0wLSR98Vt-387">
          <mxGeometry x="672.72" y="57.74000000000001" width="18" height="18" as="geometry" />
        </mxCell>
        <mxCell id="ADrHtXgVLup0wLSR98Vt-417" value="" style="shape=image;html=1;verticalAlign=top;verticalLabelPosition=bottom;labelBackgroundColor=#ffffff;imageAspect=0;aspect=fixed;image=https://cdn1.iconfinder.com/data/icons/material-core/20/check-circle-128.png;strokeWidth=1;" vertex="1" parent="ADrHtXgVLup0wLSR98Vt-387">
          <mxGeometry x="672.72" y="87.74000000000001" width="18" height="18" as="geometry" />
        </mxCell>
        <mxCell id="ADrHtXgVLup0wLSR98Vt-418" value="" style="shape=image;html=1;verticalAlign=top;verticalLabelPosition=bottom;labelBackgroundColor=#ffffff;imageAspect=0;aspect=fixed;image=https://cdn1.iconfinder.com/data/icons/material-core/20/check-circle-128.png;strokeWidth=1;" vertex="1" parent="ADrHtXgVLup0wLSR98Vt-387">
          <mxGeometry x="672.72" y="117.74000000000001" width="18" height="18" as="geometry" />
        </mxCell>
        <mxCell id="ADrHtXgVLup0wLSR98Vt-419" value="TYPE ROOM" style="text;strokeColor=none;fillColor=none;html=1;fontSize=24;fontStyle=1;verticalAlign=middle;align=center;" vertex="1" parent="ADrHtXgVLup0wLSR98Vt-379">
          <mxGeometry x="100" y="10" width="630" height="40" as="geometry" />
        </mxCell>
      </root>
    </mxGraphModel>
  </diagram>
</mxfile>
